<svg width="24" height="8" viewBox="0 0 24 8" fill="none" xmlns="http://www.w3.org/2000/svg">
<g clip-path="url(#clip0_3185_897)">
<path d="M23.1196 3.85899C23.1506 3.85899 23.1403 3.77839 23.1506 3.76831C23.0885 3.78846 23.1196 3.87914 23.1196 3.85899Z" fill="white"/>
<path d="M22.5602 4.04036L22.5706 4.01013L22.4877 4.09074L22.5602 4.04036Z" fill="white"/>
<path d="M22.032 4.04025C22.0837 4.1813 22.2184 4.0201 22.3116 4.07047V4.1007C22.322 4.1007 22.3738 3.98987 22.3738 3.98987C22.2598 4.01002 22.1148 4.08055 22.032 4.04025Z" fill="white"/>
<path d="M21.7523 3.72791C21.773 3.78836 21.6901 3.77828 21.8144 3.74806C21.8144 3.74806 21.8144 3.74806 21.8041 3.73798C21.7937 3.73798 21.773 3.73798 21.7523 3.73798V3.72791Z" fill="white"/>
<path d="M21.8041 3.72796C21.773 3.67758 21.8559 3.72796 21.8041 3.72796V3.72796Z" fill="white"/>
<path d="M21.5451 3.75817L21.6176 3.70779C21.6072 3.67757 21.5347 3.66749 21.5658 3.64734C21.4933 3.67757 21.5037 3.70779 21.5451 3.75817Z" fill="white"/>
<path d="M21.4726 3.859L21.514 3.83885C21.514 3.82877 21.4933 3.81869 21.4726 3.859Z" fill="white"/>
<path d="M21.5969 3.79853L21.514 3.83883C21.5244 3.85898 21.5244 3.90936 21.5555 3.81868C21.5555 3.85898 21.5555 3.81868 21.5969 3.78845V3.79853Z" fill="white"/>
<path d="M21.6383 3.81869C21.6798 3.84892 21.7316 3.86907 21.6591 3.91945C21.8041 3.89929 21.7834 3.79854 21.6383 3.81869Z" fill="white"/>
<path d="M22.0009 4.18137L22.0526 4.22167L22.1044 4.17129C22.0837 4.19145 22.0009 4.13099 22.0009 4.17129V4.18137Z" fill="white"/>
<path d="M21.0894 3.67761C21.0894 3.70784 21.1101 3.75822 21.1204 3.79852L21.1722 3.76829C21.1411 3.74814 21.0894 3.72799 21.0894 3.67761Z" fill="white"/>
<path d="M21.1204 3.79846L21.0375 3.84884C21.11 3.84884 21.1204 3.82869 21.1204 3.79846Z" fill="white"/>
<path d="M21.4622 4.02013L21.5969 3.9093L21.4415 4.02013H21.4622Z" fill="white"/>
<path d="M20.789 3.66745L20.8304 3.59692L20.7475 3.70775L20.789 3.66745Z" fill="white"/>
<path d="M20.5818 3.67761C20.6129 3.61716 20.5403 3.57686 20.5818 3.54663C20.53 3.54663 20.4782 3.60708 20.4368 3.64739C20.4782 3.62724 20.53 3.62724 20.5921 3.67761H20.5818Z" fill="white"/>
<path d="M20.3539 3.71792C20.3746 3.70785 20.3953 3.67762 20.4264 3.65747C20.4057 3.66755 20.3746 3.6877 20.3539 3.71792Z" fill="white"/>
<path d="M20.9029 3.83885C20.9029 3.8187 20.8822 3.76832 20.8407 3.74817L20.8718 3.83885C20.8718 3.83885 20.8925 3.83885 20.9029 3.83885Z" fill="white"/>
<path d="M21.2551 3.93958C21.2033 3.98995 21.1101 4.04033 21.2033 4.11086C21.2344 4.05041 21.1826 4.0101 21.2551 3.93958Z" fill="white"/>
<path d="M20.9443 3.9396L21.0272 3.95975C21.0272 3.9396 21.0065 3.8993 21.0272 3.87915L20.934 3.9396H20.9443Z" fill="white"/>
<path d="M20.9029 3.9698L20.9443 3.93958H20.9133L20.9029 3.9698Z" fill="white"/>
<path d="M20.4989 3.79846C20.4575 3.83876 20.4161 3.83876 20.3746 3.84884C20.4264 3.86899 20.4782 3.87907 20.5196 3.87907C20.5196 3.84884 20.5507 3.80854 20.4989 3.80854V3.79846Z" fill="white"/>
<path d="M20.53 3.88911C20.5714 3.90926 20.5922 3.88911 20.6129 3.85889C20.5818 3.85889 20.5507 3.86896 20.5197 3.86896C20.5197 3.87904 20.5197 3.88911 20.5197 3.88911H20.53Z" fill="white"/>
<path d="M20.2192 3.75823C20.24 3.77838 20.2607 3.78846 20.2814 3.80861C20.2607 3.77838 20.2296 3.73808 20.2192 3.75823Z" fill="white"/>
<path d="M20.6559 3.80852C20.6434 3.78837 20.6434 3.80852 20.6559 3.80852V3.80852Z" fill="white"/>
<path d="M20.6543 3.80859C20.6336 3.81867 20.6232 3.83882 20.6025 3.85897C20.6232 3.85897 20.6439 3.83882 20.6647 3.82874C20.6647 3.82874 20.6647 3.80859 20.6543 3.80859Z" fill="white"/>
<path d="M19.7842 4.39296C19.7842 4.31235 19.8878 4.24182 19.9707 4.32243C20.0535 4.26198 20.0017 4.00001 19.9292 3.84888C19.9292 3.8791 19.9292 3.91941 19.836 3.95971C19.8671 4.00001 20.0225 4.06046 19.9499 4.13099C19.836 4.1713 19.8567 4.10077 19.8049 4.06046C19.8464 4.16122 19.6599 4.20152 19.6806 4.35266L19.7842 4.30228C19.7842 4.32243 19.7531 4.36273 19.7842 4.38288V4.39296Z" fill="white"/>
<path d="M20.095 3.86908H20.126C20.0846 3.84892 20.0535 3.80862 20.0017 3.74817C19.9396 3.78847 19.9292 3.8187 19.9292 3.83885H20.1053C20.1053 3.84892 20.095 3.859 20.095 3.859V3.86908Z" fill="white"/>
<path d="M20.2814 3.85897C20.2503 3.94965 20.1675 3.97988 20.2193 4.08063C20.3228 4.08063 20.2918 4.01011 20.3539 3.9698C20.1882 3.98995 20.4057 3.91943 20.2814 3.86905C20.3125 3.85897 20.3436 3.8489 20.3746 3.8489C20.3436 3.83882 20.3125 3.82874 20.2918 3.80859C20.2918 3.81867 20.2918 3.82875 20.2918 3.81867C20.2918 3.82875 20.2918 3.83882 20.2918 3.8489C20.24 3.82875 20.2918 3.82875 20.2918 3.81867C20.2918 3.81867 20.2918 3.81867 20.2918 3.80859L20.126 3.85897C20.1571 3.86905 20.2089 3.86905 20.2814 3.85897Z" fill="white"/>
<path d="M21.1117 4.30226C21.1117 4.30226 21.1117 4.29218 21.1117 4.2821C21.0992 4.29218 21.0992 4.30226 21.1117 4.30226Z" fill="white"/>
<path d="M21.0375 4.24186C21.0479 4.23178 21.0582 4.19148 21.0997 4.20156C21.1308 4.23178 21.0997 4.24186 21.0997 4.27209C21.1204 4.25194 21.1825 4.21163 21.0997 4.17133H21.0893C21.0272 4.15118 20.9339 4.04035 20.9547 4.03027C20.9754 4.11088 20.9857 4.16126 21.0375 4.24186Z" fill="white"/>
<path d="M20.6543 4.07056L20.5197 4.11086L20.5922 4.19146V4.15116C20.6647 4.17131 20.6543 4.11086 20.6647 4.08063L20.6543 4.07056Z" fill="white"/>
<path d="M19.9085 3.79844L19.9292 3.70776L19.8463 3.82867L19.9085 3.79844Z" fill="white"/>
<path d="M19.7221 3.80851L19.7324 3.72791L19.691 3.77828L19.7221 3.80851Z" fill="white"/>
<path d="M9.60207 4.70532L9.56064 4.72547C9.58135 4.72547 9.59171 4.7154 9.60207 4.70532Z" fill="white"/>
<path d="M9.89307 4.70534V4.66504C9.89307 4.68519 9.88056 4.70534 9.89307 4.70534Z" fill="white"/>
<path d="M15.3198 3.77834C15.2577 3.70781 15.1955 3.5869 15.2059 3.67758L15.2266 3.76826C15.268 3.74811 15.2991 3.76826 15.3302 3.77834H15.3198Z" fill="white"/>
<path d="M12.3056 4.27206C12.3056 4.27206 12.3159 4.29221 12.3263 4.30228C12.3366 4.27206 12.3574 4.24183 12.3677 4.22168C12.347 4.24183 12.3263 4.26198 12.3056 4.28213V4.27206Z" fill="white"/>
<path d="M12.2538 4.63479L12.1813 4.57434C12.202 4.59449 12.2227 4.61464 12.2538 4.63479Z" fill="white"/>
<path d="M7.99655 4.77588L7.94476 4.86656C8.01727 4.86656 7.9862 4.82626 7.99655 4.77588Z" fill="white"/>
<path d="M17.8886 3.81869C17.8369 3.78846 17.7954 3.76831 17.7643 3.76831C17.8265 3.81869 17.8783 3.89929 17.8886 3.81869Z" fill="white"/>
<path d="M9.72636 3.77832C9.70564 3.79847 9.69528 3.80855 9.69528 3.8287C9.716 3.81862 9.73672 3.79847 9.72636 3.77832Z" fill="white"/>
<path d="M17.6193 3.76826C17.6193 3.76826 17.64 3.77833 17.6504 3.78841C17.6918 3.77833 17.7229 3.75818 17.7747 3.76826C17.7333 3.72795 17.6815 3.7078 17.6297 3.76826H17.6193Z" fill="white"/>
<path d="M2.18775 4.65485C2.18775 4.65485 2.18775 4.65485 2.17523 4.64478C2.17523 4.65485 2.17523 4.65485 2.18775 4.65485Z" fill="white"/>
<path d="M19.186 4.11084C19.186 4.11084 19.1744 4.13099 19.1627 4.15114C19.1627 4.13099 19.1627 4.12092 19.186 4.11084Z" fill="white"/>
<path d="M17.2361 4.30225C17.2361 4.31232 17.2486 4.3224 17.2361 4.30225V4.30225Z" fill="white"/>
<path d="M19.0591 3.79854C19.0488 3.78846 19.028 3.77839 19.0073 3.76831C19.0073 3.76831 19.028 3.78846 19.0591 3.79854Z" fill="white"/>
<path d="M19.0591 3.75822C19.0695 3.75822 19.0799 3.75822 19.0902 3.75822C19.0902 3.74814 19.0902 3.73807 19.0591 3.75822Z" fill="white"/>
<path d="M18.9555 3.76825C18.9763 3.76825 18.997 3.76825 19.0177 3.76825C19.0177 3.76825 19.0073 3.75818 19.0177 3.75818C19.0073 3.75818 18.9866 3.75818 18.9659 3.75818L18.9555 3.76825Z" fill="white"/>
<path d="M5.30432 4.45337C5.26129 4.49367 5.28281 4.4836 5.30432 4.45337V4.45337Z" fill="white"/>
<path d="M14.1908 4.7355C14.2529 4.62467 14.284 4.64482 14.3254 4.66498L14.284 4.41309L14.1908 4.7355Z" fill="white"/>
<path d="M8.89773 4.7255L8.99095 4.80611C8.87701 4.93709 8.79415 4.88671 8.87701 4.99754C8.89773 4.7255 9.24991 4.97739 9.27063 4.69527L9.33277 4.75573C9.31206 4.75573 9.31206 4.7658 9.29134 4.7658C9.41564 4.89679 9.38457 4.56429 9.53994 4.60459C9.59173 4.62475 9.63316 4.66505 9.59173 4.69527L9.71603 4.62475C9.7471 4.62475 9.7471 4.67512 9.71603 4.67512L9.90248 4.65497C9.93355 4.62475 9.9957 4.55422 10.0164 4.52399C10.0682 4.56429 9.9957 4.55422 10.0061 4.58444L10.1096 4.52399C10.1511 4.59452 10.0682 4.66505 9.9957 4.65497C10.0889 4.92701 10.0786 4.58444 10.2857 4.74565L10.1821 4.77588C10.2443 4.92701 10.3168 4.87663 10.4307 4.97739C10.41 4.92701 10.2132 4.73558 10.3272 4.66505C10.3582 4.6852 10.3997 4.69527 10.4618 4.6449C10.4618 4.74565 10.524 4.71543 10.5965 4.71543V4.84641C10.669 4.80611 10.669 4.74565 10.7104 4.6852C10.8036 4.69527 10.814 4.79603 10.8347 4.88671C10.9797 4.90686 10.7415 4.7255 10.9072 4.70535C11.0212 4.75573 11.1144 4.70535 11.249 4.62475C11.3319 4.66505 11.2387 4.70535 11.2594 4.73558L11.3319 4.63482C11.3526 4.63482 11.3423 4.66505 11.3319 4.6852C11.3941 4.6449 11.3319 4.55422 11.4355 4.52399C11.4666 4.38293 11.6323 4.73558 11.7566 4.57437C11.7877 4.61467 11.7462 4.65497 11.7566 4.70535C11.9223 4.60459 11.9016 4.63482 12.0363 4.48369L12.1502 4.57437C12.0673 4.47361 12.1709 4.36278 12.2745 4.2721C12.2434 4.22172 12.2227 4.18142 12.202 4.16127L12.3574 4.09074C12.3781 4.11089 12.3574 4.15119 12.3367 4.21165C12.347 4.20157 12.3574 4.1915 12.3677 4.18142C12.4195 4.2318 12.3885 4.30233 12.3574 4.37286C12.3367 4.34263 12.3159 4.32248 12.3056 4.29225C12.2642 4.37286 12.2331 4.45346 12.2331 4.53407C12.2331 4.52399 12.2642 4.50384 12.2849 4.50384C12.2849 4.52399 12.2642 4.54414 12.2745 4.55422C12.2745 4.56429 12.2952 4.54414 12.3159 4.50384L12.347 4.6449V4.58444L12.5542 4.67512C12.6992 4.53407 12.8235 4.32248 13.0514 4.26202C12.9892 4.36278 13.041 4.43331 13.0307 4.55422C12.9685 4.42323 12.8546 4.60459 12.7406 4.58444C12.8028 4.59452 12.7924 4.65497 12.7717 4.67512L12.9789 4.55422C12.9789 4.65497 13.0203 4.63482 13.0721 4.67512C13.0307 4.47361 13.2275 4.54414 13.3207 4.48369C13.3207 4.55422 13.3 4.62475 13.1964 4.60459C13.3103 4.75573 13.3518 4.37286 13.4553 4.50384C13.4346 4.50384 13.4139 4.50384 13.4036 4.53407C13.4657 4.47361 13.6107 4.52399 13.5693 4.58444H13.5486C13.7143 4.61467 14.0665 4.58444 14.0872 4.42323C14.0872 4.44339 14.0665 4.62475 14.0561 4.66505L14.3669 4.09074C14.3358 4.24187 14.4394 4.58444 14.2944 4.67512C14.3358 4.69527 14.3876 4.7255 14.4705 4.67512C14.4394 4.65497 14.4083 4.46354 14.4394 4.45346C14.543 4.61467 14.5119 4.54414 14.6362 4.6852C14.5948 4.65497 14.6362 4.42323 14.7087 4.43331C14.6983 4.46354 14.7087 4.66505 14.688 4.6852L14.8537 4.46354C14.8123 4.50384 14.8537 4.65497 14.8848 4.71543C14.8641 4.67512 15.0194 4.71543 15.0712 4.69527L14.9987 4.6449C15.1852 4.6852 15.1852 4.33255 15.3613 4.34263C15.3405 4.39301 15.3095 4.63482 15.3923 4.65497C15.4338 4.54414 15.5891 4.10082 15.7445 4.01014L15.7756 4.08066L15.8999 4.01014C15.817 4.18142 15.5995 4.55422 15.4856 4.69527C15.5581 4.74565 15.5063 4.77588 15.6099 4.7658C15.6409 4.82626 15.5581 4.85648 15.527 4.86656L15.7652 4.90686C15.7652 4.77588 15.9517 4.77588 15.9413 4.65497L15.6824 4.79603C15.6824 4.66505 15.8377 4.41316 16.0035 4.44339C16.0449 4.49376 15.9724 4.6852 15.9724 4.7255C15.9931 4.67512 16.1381 4.63482 16.1485 4.67512L16.076 4.74565C16.1692 4.79603 16.2313 4.56429 16.3453 4.69527C16.3867 4.69527 16.4592 4.86656 16.4696 4.78595C16.4074 4.63482 16.3971 4.15119 16.4385 4.04036C16.4489 4.05044 16.6457 4.1915 16.6871 4.26202C16.7493 4.38293 16.5835 4.55422 16.6457 4.65497C16.6457 4.61467 16.6871 4.57437 16.6975 4.55422C16.7389 4.58444 16.6768 4.66505 16.77 4.65497C16.7907 4.51391 16.9461 4.66505 16.8114 4.54414C16.8943 4.50384 16.9046 4.57437 17.0082 4.56429C16.9771 4.47361 17.1014 4.26203 17.1947 4.22172C17.1947 4.25195 17.205 4.30233 17.2154 4.32248C17.3915 4.33255 17.4847 4.40308 17.6504 4.40308C17.6608 4.43331 17.7437 4.47361 17.7126 4.53407C17.7333 4.51391 17.754 4.46354 17.8058 4.46354C17.899 4.58444 17.6919 4.48369 17.7644 4.62475C17.7644 4.54414 17.899 4.51391 17.9715 4.46354C17.9508 4.34263 17.8058 4.44339 17.7333 4.48369C17.7333 4.3124 17.868 4.14112 18.0337 4.06051C18.1683 4.02021 18.0958 4.17134 18.1165 4.15119C18.3755 4.18142 18.3444 3.859 18.5516 3.97991C18.6345 4.09074 18.5516 4.1915 18.5723 4.2721C18.4584 4.3124 18.3962 4.20157 18.3237 4.20157L18.4169 4.25195C18.3859 4.29225 18.303 4.3124 18.2616 4.28218C18.3341 4.38293 18.6966 4.30233 18.9038 4.39301C18.9348 4.3527 18.997 4.32248 18.9763 4.2721H18.9141C18.852 4.20157 19.0384 4.17135 18.9556 4.12097C19.0384 4.06051 19.142 3.95976 19.256 4.02021L19.2767 4.14112C19.2767 4.10082 19.2042 4.07059 19.1627 4.10082C19.2145 4.05044 19.3492 4.2721 19.401 4.10082L19.3181 4.01014C19.401 3.94968 19.5149 3.8187 19.6185 3.859C19.5667 3.7381 19.5978 3.86908 19.5149 3.72802C19.5771 3.90938 19.2456 3.72802 19.3492 3.90938C19.2767 3.7381 19.2145 3.83885 19.1213 3.69779C19.1213 3.7381 19.1524 3.7784 19.0695 3.75825C19.0695 3.76832 19.0591 3.78847 19.0488 3.79855C19.0695 3.8187 19.0902 3.83885 19.0902 3.859C19.0488 3.94968 18.9038 3.94968 18.852 4.00006C18.8002 3.97991 18.8727 3.94968 18.852 3.90938L18.7795 3.97991C18.7795 3.88923 18.6448 3.82878 18.7691 3.7784H18.6552C18.593 3.71794 18.4998 3.69779 18.448 3.7381C18.3962 3.71794 18.3134 3.83885 18.3651 3.76832L18.1891 3.8187V3.79855C18.013 3.78847 17.8265 3.94968 17.6297 3.7784C17.5676 3.79855 17.5158 3.82878 17.4122 3.79855L17.3915 3.71794C17.319 3.74817 17.1636 3.63734 17.1325 3.71794C17.0497 3.50636 16.77 3.66757 16.6353 3.62726V3.72802C16.5421 3.72802 16.4489 3.74817 16.3349 3.78847V3.87915C16.2417 3.94968 16.0967 3.80862 15.9413 3.8187C15.9517 3.78847 15.9931 3.79855 16.0138 3.8187C15.8274 3.61719 15.6306 3.95976 15.4648 3.8187C15.4234 3.84893 15.3923 3.83885 15.3613 3.8187C15.3613 3.8187 15.3509 3.8187 15.3405 3.8187C15.3198 3.79855 15.2991 3.78847 15.2784 3.76832C15.2991 3.78847 15.3095 3.80862 15.3302 3.8187C15.2991 3.8187 15.2473 3.82878 15.2059 3.84893L15.1852 3.74817C15.1852 3.74817 15.1852 3.74817 15.1748 3.74817C15.1334 3.70787 15.1334 3.79855 15.1645 3.86908C15.1437 3.88923 15.123 3.8993 15.1023 3.92953C15.0609 3.76832 14.978 3.97991 14.9262 3.80862C14.8951 3.88923 14.688 3.86908 14.6569 4.04036C14.6569 4.02021 14.6465 4.01014 14.6569 4.01014C14.6051 3.98998 14.5533 3.96983 14.5015 4.01014L14.4808 3.88923L14.3669 4.05044C14.2944 3.96983 14.2736 3.92953 14.3358 3.83885C14.1701 3.97991 14.2011 3.88923 14.0561 4.04036V3.95976C14.0147 3.95976 13.9318 4.07059 13.9008 4.00006C13.7868 3.84893 13.331 3.96983 13.041 3.82878C13.0928 4.06051 12.9064 3.71794 12.896 3.8993C12.8753 3.83885 12.8339 3.80862 12.896 3.76832C12.7406 3.8187 12.6681 3.67764 12.5645 3.82878C12.5438 3.76832 12.5956 3.74817 12.5853 3.71794C12.5749 3.72802 12.5335 3.76832 12.5231 3.72802C12.5127 3.69779 12.5438 3.67764 12.5645 3.65749C12.4092 3.65749 12.3988 3.83885 12.3781 4.00006C12.3056 3.91946 12.2642 3.92953 12.202 4.04036C12.1709 3.98998 12.1295 3.92953 12.2227 3.90938C12.1709 3.90938 11.8913 3.82878 11.8913 3.95976C11.8705 3.92953 11.8187 3.94968 11.798 3.95976C11.6737 3.95976 11.6634 3.93961 11.5494 3.95976L11.5805 3.97991C11.5287 4.13104 11.4769 4.01014 11.3837 4.03029V4.01014C11.1662 3.8993 11.2905 4.06051 11.073 3.92953V4.03029C11.0626 4.24187 10.8969 3.90938 10.7726 3.97991L10.814 4.04036C10.7415 4.11089 10.6276 3.75825 10.555 3.72802C10.5447 3.70787 10.5758 3.69779 10.5965 3.68772C10.4204 3.56681 10.5758 3.8187 10.4411 3.83885C10.4204 3.76832 10.4722 3.66757 10.3893 3.64742C10.3479 3.58696 10.1304 3.86908 10.0061 3.7381C10.0371 3.78847 10.0578 3.83885 10.0061 3.87915C9.91284 3.8993 9.7471 3.67764 9.66424 3.83885C9.65388 3.82878 9.64352 3.80862 9.64352 3.79855C9.57101 3.83885 9.40528 3.86908 9.36385 3.95976C9.3017 3.62726 8.90809 4.12097 8.91845 3.80862H8.69057C8.69057 3.8187 8.69057 3.78847 8.69057 3.78847C8.54555 3.76832 8.49376 3.83885 8.44197 3.90938C8.41089 3.88923 8.44197 3.859 8.44197 3.83885C8.2348 3.7784 8.21409 3.78847 8.038 3.93961L8.01728 3.83885C7.96549 3.8993 7.71689 3.67764 7.50973 3.79855C7.50973 3.78847 7.50973 3.76832 7.53044 3.75825C7.30256 3.86908 6.98146 3.47613 6.88823 3.83885L6.73286 3.92953C6.92967 3.95976 6.70179 4.09074 6.78465 4.15119C6.71214 4.17134 6.58785 4.04036 6.68107 4.02021V4.04036C6.73286 3.84893 6.45319 3.96983 6.45319 3.83885C6.06993 3.83885 5.68668 3.7381 5.32414 3.72802L5.36557 3.87915H5.24128C5.2102 3.83885 5.19984 3.75825 5.29307 3.75825C5.24128 3.67764 5.13769 3.82878 5.13769 3.859C4.9616 3.79855 5.2102 3.68772 5.15841 3.68772H5.0859C5.0859 3.69779 5.10662 3.71794 5.10662 3.71794C5.04447 3.7784 5.04447 3.83885 4.93053 3.82878C4.85802 3.79855 4.89945 3.7381 4.86838 3.72802C4.86838 3.71794 4.86838 3.70787 4.82695 3.72802H4.67157C4.67157 3.71794 4.73372 3.82878 4.73372 3.82878C4.66122 3.88923 4.58871 3.82878 4.66122 3.94968C4.55763 3.74817 4.0708 3.86908 3.99829 3.80862C3.89471 3.88923 3.80148 3.88923 3.67718 3.87915C3.70826 3.8993 3.72898 4.03029 3.61504 4.02021C3.65647 3.74817 3.42859 3.8993 3.34572 3.70787C3.41823 3.83885 3.04533 3.7381 3.16963 3.91946C3.08677 3.8993 3.16963 3.8187 3.09712 3.75825C2.88996 3.859 2.64136 3.68772 2.38241 3.71794C2.38241 3.75825 2.42384 3.80862 2.36169 3.859L2.22703 3.67764C2.17524 3.69779 2.17524 3.87915 2.08202 3.75825C2.09238 3.78847 2.11309 3.82878 2.08202 3.84893C1.58482 3.66757 1.05655 3.97991 0.549001 3.64742C0.621508 3.71794 0.569717 3.72802 0.517926 3.72802C0.549001 3.74817 0.517926 3.8187 0.517926 3.859L0.310762 3.72802C0.269329 3.859 0.0828808 3.72802 0.0621643 3.859L0.134672 3.83885C0.0414479 3.98998 0.258971 4.17134 0.238254 4.36278C0.341836 4.1915 0.49721 4.61467 0.673299 4.37286C0.704374 4.41316 0.642225 4.43331 0.662941 4.48369C0.704374 4.40308 0.756165 4.38293 0.849389 4.42323V4.44339C1.09799 4.42323 1.21193 4.50384 1.51232 4.56429L1.4916 4.47361C1.55375 4.48369 1.56411 4.51391 1.59518 4.54414C1.66769 4.40308 1.41909 4.54414 1.48124 4.37286C1.56411 4.56429 1.92664 4.37286 1.98879 4.60459C2.08202 4.60459 1.95772 4.49376 2.0613 4.49376L2.08202 4.55422L2.10273 4.47361C2.16488 4.48369 2.19596 4.56429 2.19596 4.61467C2.1856 4.61467 2.15453 4.62475 2.13381 4.63482C2.21667 4.70535 2.37205 4.61467 2.39276 4.63482L2.29954 4.59452C2.56885 4.54414 2.88996 4.62475 3.14891 4.50384L3.1282 4.46354C3.325 4.38293 3.28357 4.51391 3.50109 4.47361C3.54253 4.44339 3.60468 4.41316 3.66683 4.42323C3.61504 4.47361 3.77041 4.52399 3.6979 4.58444C3.91542 4.49376 3.80148 4.51391 3.9465 4.35271L3.97757 4.42323C4.02936 4.35271 4.02936 4.32248 4.1433 4.30233C4.05008 4.36278 4.21581 4.41316 4.11223 4.50384C4.34011 4.66505 4.45405 4.34263 4.54728 4.58444C4.65086 4.38293 4.35047 4.46354 4.41262 4.42323C4.36083 4.35271 4.49548 4.2721 4.56799 4.29225C4.6405 4.29225 4.69229 4.55422 4.86838 4.55422C4.84766 4.55422 4.84766 4.56429 4.82695 4.56429C4.89945 4.61467 4.9616 4.49376 5.04447 4.58444C5.09626 4.46354 5.14805 4.58444 5.16877 4.43331L5.00304 4.47361C5.09626 4.43331 5.18949 4.25195 5.34486 4.34263C5.3345 4.37286 5.28271 4.41316 5.25163 4.44339C5.29307 4.49376 5.34486 4.41316 5.38629 4.46354C5.37593 4.62475 5.17913 4.49376 5.07554 4.61467C5.12734 4.6852 5.27235 4.50384 5.22056 4.67512C5.29307 4.45346 5.39665 4.70535 5.52095 4.53407V4.62475C5.53131 4.61467 5.57274 4.56429 5.60381 4.56429L5.54166 4.6852C5.64525 4.58444 5.72811 4.77588 5.83169 4.7255C5.63489 4.7255 5.79026 4.61467 5.7074 4.54414C5.95599 4.42323 5.84205 4.79603 6.12173 4.75573C6.08029 4.7658 5.97671 4.69527 6.03886 4.65497C6.09065 4.67512 6.16316 4.71543 6.19423 4.7658C6.38068 4.74565 6.16316 4.66505 6.24602 4.60459C6.30817 4.7255 6.33925 4.55422 6.42211 4.52399V4.62475C6.62928 4.6852 6.48426 4.42323 6.67071 4.50384L6.58784 4.63482L6.69143 4.60459L6.67071 4.71543C6.77429 4.63482 6.81573 4.65497 6.91931 4.6852C6.89859 4.61467 6.92967 4.51391 7.02289 4.50384C7.08504 4.56429 6.99182 4.59452 7.11611 4.58444C7.08504 4.6449 7.05397 4.7255 6.99182 4.63482C6.99182 4.66505 6.96074 4.69527 6.96074 4.7255C7.03325 4.79603 7.12647 4.74565 7.17826 4.74565C7.15755 4.74565 7.13683 4.74565 7.12647 4.7255L7.31292 4.59452C7.344 4.63482 7.31292 4.66505 7.2922 4.6852C7.33364 4.67512 7.35435 4.63482 7.4165 4.62475C7.40614 4.70535 7.40614 4.78595 7.32328 4.82626L7.50973 4.73558C7.52009 4.7658 7.60295 4.82626 7.58223 4.85648C7.68582 4.90686 7.83083 4.70535 7.96549 4.7658C7.96549 4.74565 7.98621 4.73558 8.01728 4.7255C8.14158 4.74565 8.25552 4.84641 8.40053 4.7255L8.4834 4.86656C8.59734 4.83633 8.36946 4.6852 8.56627 4.63482C8.70092 4.59452 8.61806 4.75573 8.65949 4.79603C8.732 4.7255 8.84594 4.58444 8.97024 4.69527C8.9288 4.7255 8.89773 4.69527 8.8563 4.71543L8.89773 4.7255ZM10.3272 4.67512C10.2961 4.69527 10.2443 4.75573 10.2236 4.69527C10.2547 4.58444 10.2754 4.63482 10.3272 4.67512ZM12.5127 4.46354C12.492 4.49376 12.461 4.48369 12.4195 4.44339C12.4506 4.44339 12.4713 4.44339 12.5127 4.46354ZM18.593 3.83885C18.5309 3.79855 18.5516 3.8187 18.593 3.83885V3.83885ZM18.7173 3.87915C18.7277 3.86908 18.7277 3.84893 18.7173 3.83885C18.7173 3.859 18.6759 3.86908 18.6448 3.859C18.6448 3.88923 18.6655 3.8993 18.707 3.87915H18.7173ZM4.89945 3.78847L4.92017 3.8187C4.86838 3.84893 4.87874 3.8187 4.89945 3.78847Z" fill="white"/>
<path d="M12.2663 4.58444C12.2663 4.56428 12.2663 4.55421 12.2546 4.53406C12.243 4.55421 12.243 4.56428 12.2663 4.58444Z" fill="white"/>
<path d="M16.7182 4.68514C16.6871 4.67507 16.6767 4.65492 16.6664 4.63477C16.6664 4.65492 16.6664 4.67507 16.7182 4.68514Z" fill="white"/>
<path d="M19.401 3.71784L19.3181 3.73799C19.3595 3.73799 19.3699 3.75814 19.3906 3.76822C19.3906 3.74807 19.3699 3.70776 19.3906 3.70776L19.401 3.71784Z" fill="white"/>
<path d="M20.1053 4.33248C20.1157 4.32241 20.126 4.33248 20.1467 4.32241V4.2821C20.095 4.2821 20.0535 4.32241 20.1053 4.34256V4.33248Z" fill="white"/>
<path d="M19.4734 4.04025C19.4734 4.12085 19.5356 4.09063 19.5874 4.08055C19.6081 3.96972 19.546 3.99995 19.4838 4.04025H19.4734Z" fill="white"/>
<path d="M19.5977 4.08062C19.6185 4.08062 19.6288 4.08062 19.6495 4.08062C19.6495 4.03024 19.6288 4.08062 19.5977 4.08062Z" fill="white"/>
<path d="M18.883 3.82869C18.9141 3.84884 18.9038 3.72793 18.9141 3.75816C18.9452 3.6574 18.7277 3.87906 18.883 3.82869Z" fill="white"/>
<path d="M19.5149 4.3123L19.4942 4.21155L19.4631 4.29215L19.5149 4.3123Z" fill="white"/>
<path d="M19.0591 4.23173L19.1524 4.26196C19.1524 4.24181 19.1627 4.23173 19.1731 4.23173C19.1213 4.23173 19.0591 4.21158 19.0591 4.23173Z" fill="white"/>
<path d="M19.1834 4.2317C19.2145 4.2317 19.2456 4.2317 19.2559 4.21155C19.2352 4.21155 19.2042 4.21155 19.1834 4.2317Z" fill="white"/>
<path d="M19.3906 4.3426L19.3595 4.32245L19.2974 4.31238L19.3906 4.3426Z" fill="white"/>
<path d="M18.0751 4.21155L17.9715 4.24177C17.9612 4.272 17.9922 4.30223 18.0233 4.28208C18.044 4.26193 18.0855 4.24177 18.0751 4.21155Z" fill="white"/>
<path d="M18.3755 4.48368C18.3444 4.46353 18.3444 4.44338 18.334 4.40308V4.52398L18.3755 4.47361V4.48368Z" fill="white"/>
<path d="M18.0751 4.51379C18.0647 4.54402 17.9301 4.61455 18.0544 4.60447C18.0647 4.57425 18.1683 4.54402 18.0751 4.51379Z" fill="white"/>
<path d="M16.5628 4.34257H16.5861V4.13098L16.5628 4.34257Z" fill="white"/>
<path d="M15.2162 4.81617C15.3302 4.86655 15.2473 4.68519 15.3509 4.75572C15.382 4.70534 15.268 4.70534 15.2887 4.66504C15.2162 4.71542 15.1748 4.68519 15.2059 4.82625L15.2162 4.81617Z" fill="white"/>
<path d="M15.2991 4.66499C15.3095 4.66499 15.3198 4.64484 15.3405 4.63477C15.3198 4.64484 15.3095 4.65492 15.2991 4.66499Z" fill="white"/>
<path d="M0.217527 3.6473L0.14502 3.59692L0.186452 3.66745L0.217527 3.6473Z" fill="white"/>
<path d="M0.0725075 3.79846L0.0517911 3.66748L0 3.78839C0.0207164 3.78839 0.0517911 3.76824 0.0621493 3.79846H0.0725075Z" fill="white"/>
<path d="M10.5447 4.93698V4.90676C10.5447 4.87653 10.5239 4.86646 10.4825 4.86646L10.5447 4.93698Z" fill="white"/>
<path d="M9.49849 4.82616L9.5192 4.83624L9.48813 4.71533L9.49849 4.82616Z" fill="white"/>
<path d="M8.6284 4.96724C8.65947 4.96724 8.71126 4.94708 8.74234 4.94708C8.65947 4.96723 8.61804 4.8161 8.6284 4.96724Z" fill="white"/>
<path d="M16.8839 0.0201416L17.2257 7.05289C19.0591 6.00503 20.9029 4.94709 22.7363 3.89924C20.6336 3.13349 18.6966 1.92442 17.1118 0.372786" fill="white"/>
<path d="M16.77 0.735504C16.7493 0.705277 16.6975 0.775806 16.6871 0.785881C16.7389 0.806032 16.7907 0.725428 16.77 0.735504Z" fill="white"/>
<path d="M17.2775 0.937012L17.2464 0.957163L17.3604 0.947087L17.2775 0.937012Z" fill="white"/>
<path d="M17.6297 1.24937C17.6918 1.10831 17.4847 1.15869 17.4536 1.05794V1.02771C17.464 1.02771 17.3604 1.08816 17.3604 1.08816C17.4432 1.13854 17.5986 1.16877 17.6297 1.24937Z" fill="white"/>
<path d="M17.609 1.6423C17.6297 1.59192 17.6815 1.6423 17.5779 1.59192C17.5779 1.59192 17.5779 1.60199 17.5779 1.61207C17.5779 1.61207 17.5986 1.63222 17.609 1.6423Z" fill="white"/>
<path d="M17.5802 1.61207C17.5336 1.58185 17.5802 1.67253 17.5802 1.61207V1.61207Z" fill="white"/>
<path d="M17.7747 1.73303H17.6918C17.6815 1.76326 17.7229 1.80356 17.6918 1.81364C17.7643 1.83379 17.7747 1.80356 17.7747 1.73303Z" fill="white"/>
<path d="M17.8887 1.69275H17.8472C17.8472 1.69275 17.8472 1.7129 17.8887 1.69275Z" fill="white"/>
<path d="M17.7644 1.67251H17.8472C17.8472 1.66243 17.8887 1.62213 17.8058 1.67251C17.8369 1.64228 17.8058 1.67251 17.754 1.67251H17.7644Z" fill="white"/>
<path d="M17.754 1.6322C17.754 1.58182 17.7229 1.54152 17.8058 1.54152C17.6918 1.48107 17.64 1.56167 17.754 1.6322Z" fill="white"/>
<path d="M17.7436 1.14859V1.08813H17.6711C17.7022 1.08813 17.7125 1.17881 17.7436 1.13851V1.14859Z" fill="white"/>
<path d="M18.0544 2.04528C18.0751 2.02513 18.0854 1.96467 18.1062 1.93445H18.044C18.044 1.96467 18.0751 2.00498 18.044 2.04528H18.0544Z" fill="white"/>
<path d="M18.1062 1.93454H18.1994C18.1476 1.89424 18.1269 1.90431 18.1062 1.93454Z" fill="white"/>
<path d="M18.0026 1.58191L17.8369 1.59198H18.0233L18.0026 1.58191Z" fill="white"/>
<path d="M18.2719 2.22675L18.189 2.25698L18.3237 2.21667L18.2719 2.22675Z" fill="white"/>
<path d="M18.4273 2.31738C18.3651 2.34761 18.3962 2.41814 18.3548 2.42821C18.4066 2.44837 18.4687 2.42821 18.5309 2.42821C18.4791 2.42821 18.448 2.39799 18.4376 2.31738H18.4273Z" fill="white"/>
<path d="M18.6137 2.40808C18.593 2.40808 18.5516 2.40808 18.5205 2.41816C18.5516 2.41816 18.5723 2.41816 18.6137 2.40808Z" fill="white"/>
<path d="M18.2823 2.02515C18.2823 2.0453 18.2512 2.0856 18.2823 2.1259L18.3133 2.0453C18.3133 2.0453 18.303 2.03522 18.2926 2.02515H18.2823Z" fill="white"/>
<path d="M18.1062 1.75317C18.1683 1.74309 18.2719 1.75317 18.2512 1.64233C18.189 1.67256 18.1994 1.73301 18.1062 1.75317Z" fill="white"/>
<path d="M18.3237 1.91434L18.2719 1.85388C18.2616 1.87403 18.2512 1.90426 18.2201 1.91434H18.3237Z" fill="white"/>
<path d="M18.3651 1.91431H18.3237L18.3341 1.93446L18.3651 1.91431Z" fill="white"/>
<path d="M18.5619 2.26706C18.6137 2.25699 18.6448 2.26706 18.6759 2.29729C18.6552 2.25699 18.6241 2.22676 18.5827 2.19653C18.5619 2.21668 18.5205 2.24691 18.5516 2.26706H18.5619Z" fill="white"/>
<path d="M18.593 2.18646C18.5723 2.15623 18.5516 2.15623 18.5205 2.1663C18.5412 2.1663 18.5723 2.18646 18.593 2.19653C18.593 2.19653 18.6034 2.18646 18.593 2.17638V2.18646Z" fill="white"/>
<path d="M18.7406 2.44834C18.7406 2.42819 18.729 2.39796 18.7173 2.37781C18.7173 2.40803 18.7173 2.46849 18.7406 2.44834Z" fill="white"/>
<path d="M18.448 2.17628C18.4687 2.17628 18.4894 2.17628 18.5205 2.15613C18.4998 2.15613 18.4791 2.15613 18.4584 2.15613C18.4584 2.15613 18.4584 2.17628 18.4584 2.18635L18.448 2.17628Z" fill="white"/>
<path d="M19.432 2.14614C19.3802 2.20659 19.2663 2.22674 19.2559 2.10583C19.1627 2.10583 19.0488 2.35772 19.0073 2.50886C19.028 2.47863 19.0488 2.45848 19.142 2.45848C19.142 2.4081 19.0591 2.27712 19.1627 2.25697C19.2663 2.27712 19.2145 2.3275 19.2248 2.38795C19.2456 2.2872 19.4113 2.33757 19.4838 2.20659H19.3802C19.3906 2.18644 19.4424 2.16629 19.432 2.13606V2.14614Z" fill="white"/>
<path d="M18.9038 2.42822H18.8727C18.8934 2.44837 18.8934 2.48868 18.8934 2.56928C18.9555 2.56928 18.9866 2.54913 19.0073 2.52898L18.883 2.42822H18.9038Z" fill="white"/>
<path d="M18.7484 2.33749C18.8209 2.27703 18.9038 2.29719 18.9245 2.18635C18.8416 2.13598 18.8312 2.20651 18.7587 2.20651C18.8934 2.27703 18.6966 2.21658 18.7587 2.32741C18.7277 2.32741 18.7069 2.30726 18.6759 2.29719C18.6862 2.31734 18.7069 2.34756 18.7173 2.37779C18.7173 2.35764 18.7173 2.36771 18.7173 2.37779L18.738 2.35764C18.7587 2.39794 18.738 2.37779 18.7173 2.37779L18.8727 2.42817C18.852 2.39794 18.8209 2.37779 18.7587 2.34756L18.7484 2.33749Z" fill="white"/>
<path d="M18.4273 1.55164C18.4273 1.55164 18.4273 1.56171 18.4273 1.57179C18.4398 1.57179 18.4523 1.57179 18.4273 1.55164Z" fill="white"/>
<path d="M18.448 1.63223C18.4273 1.63223 18.4065 1.65238 18.3858 1.63223C18.3858 1.59193 18.4169 1.602 18.4273 1.57178C18.3962 1.57178 18.334 1.57178 18.3548 1.65238H18.3755C18.4065 1.71284 18.3962 1.84382 18.3755 1.84382C18.4065 1.77329 18.4376 1.72291 18.448 1.63223Z" fill="white"/>
<path d="M18.6137 1.96475L18.738 2.00505V1.9043L18.707 1.9446C18.6655 1.89422 18.6345 1.9446 18.6137 1.96475Z" fill="white"/>
<path d="M18.997 2.56921L18.9348 2.63974L19.0695 2.56921H18.997Z" fill="white"/>
<path d="M19.142 2.6499L19.0902 2.72043L19.1524 2.70028L19.142 2.6499Z" fill="white"/>
<path d="M18.4687 6.89172L18.4273 6.9421C18.448 6.92195 18.4584 6.9018 18.4687 6.89172Z" fill="white"/>
<path d="M18.7493 6.7405V6.7002C18.7368 6.72035 18.7493 6.7405 18.7493 6.7405Z" fill="white"/>
<path d="M21.5555 3.98987C21.3794 3.99994 21.1411 3.99994 21.3276 4.01002H21.5037C21.4829 4.01002 21.5037 3.99994 21.5555 3.98987Z" fill="white"/>
<path d="M20.3332 5.28965C20.3332 5.28965 20.3539 5.29972 20.3643 5.3098C20.3643 5.27957 20.3643 5.24934 20.3539 5.21912C20.3539 5.23927 20.3539 5.26949 20.3435 5.28965H20.3332Z" fill="white"/>
<path d="M16.6664 7.68762C16.6353 7.70777 16.6042 7.72792 16.5732 7.738C16.5732 7.85891 16.6249 7.738 16.6664 7.68762Z" fill="white"/>
<path d="M20.5818 3.46605C20.6025 3.51643 20.6336 3.54666 20.6543 3.56681C20.6336 3.49628 20.6232 3.41567 20.5818 3.46605Z" fill="white"/>
<path d="M18.1372 6.005C18.1372 6.02516 18.1372 6.04531 18.1498 6.05538C18.1498 6.03523 18.1498 6.01508 18.1372 6.005Z" fill="white"/>
<path d="M20.7786 3.62723C20.7786 3.61715 20.7786 3.60707 20.7682 3.597C20.7268 3.597 20.6957 3.597 20.6646 3.56677C20.6854 3.61715 20.7164 3.65745 20.7786 3.62723Z" fill="white"/>
<path d="M16.4712 1.91437C16.4712 1.91437 16.4712 1.91437 16.4712 1.9043C16.4587 1.9043 16.4587 1.9043 16.4712 1.91437Z" fill="white"/>
<path d="M19.6495 2.97229C19.6495 2.99244 19.6612 3.00252 19.6728 3.01259C19.6728 3.01259 19.6728 2.99244 19.6495 2.97229Z" fill="white"/>
<path d="M19.6288 3.01258C19.6288 3.01258 19.6185 2.99243 19.6081 2.99243C19.5978 3.00251 19.5978 3.01258 19.6288 3.01258Z" fill="white"/>
<path d="M19.7117 3.05288C19.691 3.05288 19.6806 3.03272 19.6703 3.01257C19.6703 3.01257 19.6703 3.02265 19.6703 3.03272C19.6703 3.03272 19.691 3.03272 19.7117 3.05288Z" fill="white"/>
<path d="M16.8321 4.56424C16.7907 4.53402 16.801 4.54409 16.8321 4.56424V4.56424Z" fill="white"/>
<path d="M22.2287 4.73552C22.1873 4.63477 22.2287 4.62469 22.3116 4.60454C22.1977 4.57431 22.0941 4.53401 21.9801 4.50378C22.0734 4.57431 22.1562 4.65492 22.2287 4.7456V4.73552Z" fill="white"/>
<path d="M17.5986 7.41559C17.6297 7.42566 17.6711 7.43574 17.7022 7.44582C17.5158 7.6977 17.4018 7.71786 17.495 7.78838C17.5468 7.59695 17.6711 7.51634 17.8058 7.43574C17.9301 7.35513 18.0647 7.27453 18.0544 7.11332C18.0855 7.11332 18.1062 7.1234 18.1372 7.13347C18.1165 7.14355 18.1165 7.1637 18.0855 7.17377C18.1683 7.204 18.1994 7.1234 18.2201 7.04279C18.2408 6.96219 18.2615 6.86143 18.3548 6.83121C18.4273 6.81105 18.4894 6.83121 18.4583 6.88158C18.4998 6.83121 18.5412 6.78083 18.5723 6.74053C18.6034 6.73045 18.6241 6.77075 18.5826 6.7909L18.7173 6.69015C18.7173 6.64985 18.7173 6.56924 18.738 6.52894C18.7898 6.53901 18.738 6.56924 18.7587 6.58939L18.8002 6.48864C18.8727 6.52894 18.8416 6.62969 18.7795 6.64985C18.997 6.84128 18.8105 6.54909 19.0488 6.59947L18.997 6.67C19.1213 6.78083 19.1523 6.69015 19.287 6.73045C19.2456 6.70022 18.9866 6.61962 19.0384 6.50879C19.0695 6.50879 19.1109 6.50879 19.1316 6.42818C19.1834 6.50879 19.2145 6.46848 19.2663 6.42818L19.3284 6.53901C19.3699 6.46849 19.3284 6.41811 19.3284 6.34758C19.4009 6.31735 19.4735 6.39796 19.5252 6.45841C19.6495 6.41811 19.3699 6.36773 19.4838 6.26697C19.5978 6.26697 19.6392 6.17629 19.7013 6.04531C19.7842 6.04531 19.7324 6.11584 19.7738 6.13599V6.01508C19.7946 6.01508 19.8049 6.03524 19.8049 6.05539C19.836 5.99493 19.7428 5.94456 19.8049 5.87403C19.7531 5.74304 20.0639 5.96471 20.0742 5.77327C20.1157 5.79342 20.1053 5.8438 20.1364 5.8841C20.2089 5.72289 20.2089 5.75312 20.2296 5.57176L20.3643 5.59191C20.2503 5.54153 20.271 5.40048 20.2918 5.27957C20.24 5.24934 20.1985 5.22919 20.1778 5.21911L20.2607 5.08813C20.2814 5.09821 20.3021 5.13851 20.3021 5.19896C20.3021 5.18889 20.3021 5.16874 20.3021 5.15866C20.3643 5.17881 20.385 5.24934 20.3953 5.32995C20.3643 5.31987 20.3435 5.29972 20.3125 5.28964C20.3228 5.37025 20.3435 5.46093 20.385 5.52138C20.385 5.50123 20.385 5.48108 20.4057 5.471C20.4057 5.49116 20.4057 5.51131 20.4264 5.52138C20.4368 5.52138 20.4264 5.50123 20.4264 5.46093L20.53 5.57176L20.5093 5.52138H20.7061C20.7372 5.32995 20.7268 5.08813 20.8615 4.937C20.8718 5.04783 20.9443 5.08813 21.0065 5.19896C20.8925 5.10828 20.9029 5.31987 20.7993 5.3501C20.8511 5.34002 20.8718 5.3904 20.8718 5.42063L20.965 5.22919C21.0168 5.31987 21.0375 5.27957 21.0997 5.28964C20.965 5.13851 21.1515 5.10828 21.1826 5.0176C21.224 5.07806 21.2447 5.13851 21.1515 5.16874C21.3172 5.24934 21.1411 4.8967 21.2965 4.96723C21.2758 4.9773 21.2654 4.96723 21.2758 5.00753C21.2861 4.92692 21.4208 4.90677 21.4312 4.9773H21.4104C21.4312 4.9773 21.4519 4.9773 21.4726 4.96723C21.4726 4.96723 21.4933 4.95715 21.5037 4.94707C21.514 4.94707 21.5347 4.92692 21.5451 4.91685C21.6072 4.87655 21.6694 4.83624 21.7212 4.79594C21.8248 4.70526 21.8766 4.62466 21.8041 4.5642C21.8248 4.57428 21.9801 4.70526 21.9905 4.73549C21.9284 4.54405 21.8144 4.39292 21.6383 4.26194C21.7212 4.30224 21.8766 4.35262 22.0216 4.40299C22.1666 4.45337 22.2909 4.51383 22.2598 4.57428C22.3323 4.5642 22.4255 4.53398 22.4566 4.45337C22.3945 4.46345 22.1148 4.40299 22.1355 4.37277C22.2909 4.37277 22.3427 4.37277 22.3841 4.37277C22.4359 4.37277 22.4773 4.36269 22.6534 4.34254C22.6016 4.34254 22.5084 4.33247 22.4359 4.30224C22.3634 4.27201 22.3013 4.24179 22.3323 4.23171C22.3738 4.25186 22.6845 4.29216 22.6949 4.31231C22.6431 4.25186 22.5809 4.20148 22.4981 4.16118C22.5291 4.19141 22.8088 4.20148 22.9642 4.19141C22.871 4.19141 23.1299 4.10073 23.1403 4.0705L22.9642 4.1108C23.0988 4.05035 22.9953 4.02012 22.871 3.9899C22.7467 3.95967 22.612 3.94959 22.6949 3.90929C22.7777 3.90929 23.2542 3.91937 23.4303 3.85891C23.3371 3.85891 23.1817 3.83876 22.8813 3.83876C22.6845 3.83876 22.4773 3.83876 22.2702 3.83876C22.0941 3.83876 21.9491 3.83876 21.8766 3.83876L21.9905 3.81861C21.918 3.81861 21.8455 3.81861 21.7833 3.81861C21.8662 3.81861 21.9801 3.79846 22.1148 3.78838C22.2495 3.78838 22.3945 3.77831 22.5706 3.76823C22.9124 3.76823 23.2956 3.76823 23.5546 3.78838C23.5546 3.78838 23.5546 3.78838 23.565 3.78838C23.565 3.78838 23.5753 3.78838 23.5857 3.78838C23.6271 3.74808 23.7307 3.76823 23.5857 3.71786C23.6789 3.68763 23.8757 3.71786 23.9275 3.74808L23.6685 3.60702C23.3992 3.64733 23.1403 3.54657 22.9331 3.59695C23.1299 3.6171 23.3371 3.64733 23.5546 3.68763C23.4096 3.70778 23.1506 3.70778 22.9331 3.70778C22.7052 3.70778 22.5188 3.6977 22.467 3.6574C22.4981 3.63725 22.612 3.6171 22.7363 3.59695C22.8606 3.5768 22.9849 3.56672 23.0263 3.55665C22.9124 3.55665 22.6638 3.51634 22.7052 3.49619H22.9227C22.902 3.46597 22.7777 3.46597 22.6638 3.46597C22.5602 3.46597 22.467 3.46597 22.4877 3.39544C22.4566 3.37529 22.5602 3.23423 22.4463 3.27453C22.3945 3.33498 22.208 3.43574 22.0112 3.52642C21.8144 3.6171 21.628 3.68763 21.5347 3.71786C21.5347 3.71786 21.5555 3.67755 21.5762 3.63725C21.5969 3.59695 21.6072 3.54657 21.628 3.50627C21.659 3.45589 21.7523 3.41559 21.8455 3.37529C21.9387 3.33498 22.0527 3.30476 22.0734 3.26446C22.0319 3.28461 21.9387 3.30476 21.918 3.30476C21.9076 3.26445 22.0527 3.23423 21.9284 3.204C21.7833 3.29468 21.7315 3.11332 21.773 3.26446C21.6487 3.26446 21.7005 3.204 21.5865 3.15362C21.5762 3.19393 21.4933 3.2443 21.4208 3.28461C21.3483 3.32491 21.2758 3.36521 21.2344 3.36521C21.2551 3.33498 21.2654 3.28461 21.2654 3.26446C21.1308 3.18385 21.0893 3.09317 20.9547 3.02264C20.9547 2.98234 20.9132 2.92189 20.9754 2.88158C20.9443 2.89166 20.9029 2.92189 20.8615 2.91181C20.8407 2.77075 20.9547 2.94204 20.965 2.78083C20.9236 2.85136 20.8097 2.83121 20.7268 2.84128C20.6854 2.96219 20.8407 2.93196 20.9236 2.91181C20.8407 3.06294 20.6543 3.17377 20.4782 3.1637C20.3539 3.14355 20.4782 3.04279 20.4575 3.05287C20.271 2.92189 20.1364 3.21408 20.0328 3.01257C20.0328 2.88158 20.1467 2.82113 20.1675 2.7506C20.271 2.76068 20.2607 2.88158 20.3228 2.91181L20.2814 2.83121C20.3228 2.81105 20.3953 2.83121 20.4161 2.87151C20.4161 2.76068 20.0949 2.67 19.9914 2.49871C19.9499 2.50879 19.8774 2.51886 19.8774 2.56924L19.9292 2.58939C19.9292 2.69015 19.7738 2.63977 19.8153 2.7103C19.7221 2.72037 19.5874 2.76068 19.5252 2.65992L19.577 2.54909C19.5563 2.57932 19.5978 2.64985 19.6392 2.62969C19.5667 2.64985 19.5978 2.40803 19.4631 2.50879V2.61962C19.3802 2.62969 19.2249 2.69015 19.1627 2.60954C19.1316 2.73045 19.1938 2.60954 19.1627 2.76068C19.2145 2.57932 19.3595 2.90173 19.3906 2.69015C19.3595 2.87151 19.4527 2.81105 19.4527 2.98234C19.4735 2.94204 19.4631 2.90173 19.5252 2.96219C19.5252 2.96219 19.546 2.94204 19.5563 2.94204C19.5563 2.92189 19.5563 2.89166 19.5563 2.87151C19.6392 2.81105 19.7428 2.87151 19.8049 2.87151C19.836 2.91181 19.7635 2.90173 19.7635 2.95211L19.8567 2.92189C19.8153 3.00249 19.8878 3.11332 19.7635 3.10325L19.8464 3.15362C19.8671 3.22415 19.9292 3.28461 19.9914 3.27453C20.0224 3.31483 20.1467 3.2443 20.0742 3.28461L20.24 3.31483V3.33498C20.3643 3.41559 20.5818 3.35514 20.6647 3.5768C20.7268 3.5768 20.7889 3.5768 20.8511 3.64733L20.8304 3.72793C20.8718 3.72793 20.9029 3.76823 20.9443 3.79846C20.965 3.81861 20.965 3.81861 20.9754 3.81861C20.9754 3.81861 20.9858 3.81861 20.9961 3.79846C20.9547 3.88914 20.9443 3.90929 20.965 3.89922C20.9858 3.89922 21.0272 3.87906 21.0168 3.89922L21.1204 3.83876C21.1411 3.84884 21.1826 3.83876 21.2758 3.83876L21.4001 3.78838C21.4726 3.77831 21.483 3.78838 21.4726 3.81861C21.4726 3.83876 21.4415 3.85891 21.4726 3.86899C21.4104 3.86899 21.4104 3.86899 21.4415 3.86899C21.3172 3.90929 21.369 3.90929 21.4622 3.90929C21.5658 3.90929 21.7108 3.90929 21.6798 3.92944C21.6798 3.92944 21.659 3.92944 21.628 3.93952C21.6901 3.93952 21.6487 3.94959 21.5969 3.95967C21.5555 3.95967 21.514 3.95967 21.4726 3.96974C21.5244 3.96974 21.5658 3.96974 21.5865 3.95967C21.5865 3.95967 21.5865 3.96974 21.6176 3.97982H21.4208C21.3379 3.97982 21.5037 3.97982 21.6487 3.97982C21.6694 3.97982 21.7005 3.9899 21.7419 3.99997C21.5865 3.99997 21.5969 3.99997 21.6072 4.01005C21.6072 4.01005 21.6176 4.0302 21.4622 4.02012C21.5969 4.04027 21.483 4.08058 21.7212 4.14103C21.6901 4.14103 21.659 4.14103 21.6798 4.13095C21.6176 4.14103 21.5762 4.1511 21.6176 4.18133L21.4415 4.14103C21.5037 4.17126 21.5555 4.21156 21.5969 4.24178C21.4622 4.23171 21.4104 4.21156 21.3276 4.1511C21.3794 4.20148 21.3794 4.22163 21.3794 4.24178C21.3794 4.26194 21.3794 4.27201 21.4104 4.34254L21.3379 4.29216C21.3172 4.30224 21.3587 4.40299 21.2965 4.37277C21.2551 4.35262 21.2136 4.35262 21.1826 4.36269C21.1618 4.36269 21.1515 4.36269 21.1308 4.38284C21.0997 4.39292 21.0686 4.41307 21.0375 4.43322C20.9132 4.50375 20.7682 4.58435 20.6232 4.58435C20.7889 4.76571 20.4678 4.55413 20.5507 4.71534C20.5093 4.67503 20.4575 4.66496 20.4678 4.60451C20.385 4.71534 20.2503 4.62466 20.2503 4.80602C20.2089 4.76571 20.2296 4.72541 20.1985 4.69519C20.1985 4.71534 20.1882 4.75564 20.1571 4.73549C20.126 4.71534 20.1571 4.68511 20.1571 4.65488C20.0432 4.72541 20.126 4.88662 20.1985 5.02768C20.0949 4.99745 20.0742 5.02768 20.0846 5.13851C20.0328 5.10828 19.9706 5.07806 20.0328 5.0176C19.9914 5.03775 19.7428 5.09821 19.8049 5.20904C19.7738 5.18889 19.7428 5.22919 19.7428 5.24934C19.6495 5.29972 19.6288 5.28964 19.546 5.3501H19.577C19.6185 5.51131 19.5252 5.4307 19.4631 5.48108C19.2352 5.46093 19.4217 5.55161 19.1938 5.54153L19.2559 5.62214C19.3492 5.81357 19.0488 5.60199 18.997 5.72289L19.0591 5.75312C19.0488 5.8438 18.7691 5.59191 18.6966 5.60199C18.6759 5.60199 18.6966 5.57176 18.7069 5.54153C18.5101 5.51131 18.7587 5.66244 18.6655 5.74304C18.6137 5.69267 18.6034 5.58184 18.5205 5.61206C18.4583 5.58184 18.4376 5.91433 18.2719 5.85388C18.3237 5.8841 18.3651 5.9244 18.3444 5.98486C18.3133 6.01508 18.2408 5.99493 18.1787 5.99493C18.1476 5.99493 18.1165 5.99493 18.0958 6.01508C18.0751 6.03524 18.0647 6.05539 18.0751 6.09569C18.0647 6.09569 18.0544 6.07554 18.044 6.06546C18.044 6.11584 17.9819 6.18637 17.9715 6.2972C17.9197 6.13599 17.8886 6.19644 17.8369 6.27705C17.7851 6.35765 17.7229 6.44833 17.7643 6.24682L17.6711 6.31735L17.6918 6.26697C17.6504 6.26697 17.5883 6.38788 17.5158 6.51886C17.5158 6.49871 17.5468 6.44833 17.5572 6.41811C17.5261 6.38788 17.5158 6.3778 17.4536 6.46848C17.4329 6.48864 17.3915 6.52894 17.3397 6.56924L17.4329 6.40803C17.4018 6.43826 17.4329 6.3375 17.464 6.2569C17.495 6.16622 17.5158 6.10576 17.464 6.11584C17.4743 6.11584 17.495 6.08561 17.5054 6.08561C17.4743 6.08561 17.4743 6.05539 17.495 6.02516C17.5054 5.98486 17.5365 5.94456 17.5572 5.91433C17.5986 5.85388 17.5986 5.83372 17.4122 5.86395C17.3811 5.8438 17.35 5.82365 17.3189 5.8035C17.3086 5.86395 17.2672 5.87403 17.2257 5.86395C17.1843 5.86395 17.1325 5.83372 17.1014 5.86395C17.0807 5.79342 17.205 5.69267 17.2257 5.7632H17.205C17.4018 5.8035 17.2672 5.57176 17.4018 5.56168C17.3811 5.22919 17.464 4.90677 17.464 4.59443L17.3189 4.63473V4.5239C17.3604 4.49367 17.4432 4.4836 17.4329 4.55413C17.5158 4.51383 17.35 4.42315 17.3189 4.42315C17.3707 4.27201 17.495 4.47352 17.495 4.42315V4.36269C17.4847 4.36269 17.464 4.37277 17.464 4.37277C17.4018 4.32239 17.3293 4.32239 17.3397 4.23171C17.3707 4.17126 17.4329 4.20148 17.4329 4.17126C17.4432 4.17126 17.4432 4.17126 17.4329 4.13095V3.9899L17.3189 4.05035C17.2568 3.9899 17.3189 3.91937 17.1843 3.9899C17.3915 3.88914 17.2361 3.47604 17.2982 3.41559C17.205 3.33498 17.205 3.25438 17.205 3.14355C17.1843 3.17377 17.0496 3.19393 17.06 3.10325C17.3397 3.1234 17.1739 2.93196 17.3707 2.85136C17.2464 2.92189 17.3293 2.59947 17.1429 2.7103C17.1636 2.62969 17.2464 2.7103 17.3086 2.63977C17.1946 2.46849 17.3604 2.24682 17.3086 2.02516C17.2672 2.02516 17.2154 2.06546 17.1636 2.02516L17.3397 1.90425C17.3189 1.86395 17.1325 1.87403 17.2464 1.79342C17.2154 1.8035 17.1739 1.82365 17.1532 1.79342C17.3086 1.36017 16.9668 0.926924 17.2775 0.473523C17.205 0.533976 17.205 0.493674 17.1946 0.453372C17.1843 0.483599 17.1014 0.453372 17.06 0.463447L17.1843 0.272012C17.0496 0.241785 17.1636 0.0805759 17.0289 0.0604248L17.06 0.120878C16.9046 0.0503492 16.7182 0.241785 16.5214 0.241785C16.6975 0.32239 16.2728 0.483599 16.5214 0.614581C16.4799 0.644808 16.4592 0.59443 16.4074 0.614581C16.4903 0.644808 16.511 0.68511 16.4799 0.77579H16.4592C16.4903 0.987377 16.4074 1.08813 16.366 1.3501L16.4592 1.32995C16.4489 1.38032 16.4178 1.40048 16.3971 1.42063C16.5524 1.48108 16.3971 1.26949 16.5628 1.31987C16.366 1.40048 16.5835 1.70274 16.3556 1.7632C16.3556 1.8438 16.4696 1.73297 16.4696 1.81357L16.4074 1.83372L16.4903 1.85388C16.4799 1.91433 16.4074 1.94456 16.3556 1.94456C16.3556 1.93448 16.3349 1.90425 16.3349 1.89418C16.2624 1.96471 16.366 2.09569 16.3453 2.11584L16.3763 2.03524C16.4489 2.2569 16.3763 2.53901 16.511 2.76068L16.5524 2.74053C16.6457 2.90173 16.511 2.88158 16.5524 3.06294H16.5421C16.5939 3.09317 16.6146 3.14355 16.6146 3.19393C16.5628 3.15362 16.511 3.28461 16.4489 3.22415C16.5524 3.40551 16.5214 3.31483 16.7078 3.42566L16.6353 3.45589C16.7078 3.49619 16.7389 3.49619 16.77 3.58687C16.6975 3.51634 16.656 3.64733 16.5628 3.56672C16.4074 3.76823 16.7492 3.84884 16.5006 3.94959C16.7182 4.0302 16.6146 3.77831 16.656 3.82869C16.7285 3.78838 16.8217 3.89922 16.801 3.95967C16.801 4.02012 16.5317 4.08058 16.5421 4.23171C16.5421 4.21156 16.5214 4.21156 16.5214 4.20148C16.4696 4.26194 16.6042 4.31231 16.5214 4.38284C16.656 4.41307 16.5214 4.47352 16.6871 4.4836L16.6457 4.34254C16.6975 4.42314 16.8839 4.49367 16.801 4.62466C16.77 4.62466 16.7182 4.57428 16.6975 4.55413C16.656 4.59443 16.7285 4.62466 16.6871 4.67503C16.5214 4.67503 16.6457 4.50375 16.511 4.42315C16.4489 4.46345 16.6353 4.58435 16.4592 4.54405C16.6871 4.59443 16.4385 4.69519 16.6146 4.79594H16.511C16.5317 4.80602 16.5732 4.84632 16.5732 4.87655L16.4385 4.82617C16.5524 4.90677 16.3556 4.99745 16.4178 5.07806C16.4074 4.90677 16.5317 5.03775 16.6042 4.95715C16.7492 5.15866 16.3556 5.08813 16.4074 5.32995C16.3971 5.29972 16.4592 5.20904 16.511 5.25942C16.4903 5.30979 16.4592 5.37025 16.4074 5.40048C16.4385 5.55161 16.511 5.37025 16.5732 5.44078C16.4592 5.50123 16.6249 5.51131 16.6664 5.58184H16.5628C16.511 5.77327 16.77 5.62214 16.7078 5.79342L16.5628 5.73297L16.5835 5.77327C16.5835 5.78335 16.5939 5.79342 16.6042 5.82365C16.5628 5.82365 16.5317 5.8035 16.4903 5.8035C16.5835 5.94456 16.5628 5.98486 16.5421 6.13599C16.6146 6.08561 16.7182 6.10576 16.7285 6.20652C16.6767 6.30728 16.6353 6.20652 16.656 6.35765C16.5939 6.35765 16.511 6.3375 16.6042 6.22667C16.5732 6.22667 16.5421 6.20652 16.511 6.2166C16.4489 6.3375 16.511 6.46849 16.511 6.53901C16.511 6.50879 16.511 6.47856 16.5317 6.44833C16.5835 6.51886 16.6249 6.56924 16.6767 6.61962C16.6457 6.69015 16.6146 6.68007 16.5835 6.67C16.5939 6.72037 16.6457 6.72037 16.656 6.78083C16.5732 6.83121 16.5006 6.91181 16.4592 6.81105C16.4903 6.88158 16.5214 6.94204 16.5628 7.00249C16.5317 7.05287 16.4799 7.23423 16.4489 7.23423C16.4281 7.33498 16.4696 7.39544 16.511 7.44582C16.5524 7.49619 16.5939 7.54657 16.5628 7.68763C16.5732 7.67755 16.5939 7.67755 16.6042 7.68763C16.6042 7.77831 16.5835 7.89922 16.5732 7.99997C16.6457 7.97982 16.7389 7.92944 16.8839 7.77831C16.8839 7.82869 16.8839 7.88914 16.8943 7.93952C16.9875 7.86899 16.9771 7.82869 16.9771 7.76823C16.9771 7.70778 17.0082 7.63725 17.1325 7.5365C17.3189 7.37529 17.1325 7.67755 17.1739 7.6977C17.2361 7.6171 17.3189 7.50627 17.3915 7.43574C17.464 7.35513 17.5365 7.30476 17.609 7.33498C17.5572 7.39544 17.5158 7.39544 17.464 7.43574L17.5986 7.41559ZM19.0591 6.50879C19.0488 6.53901 19.0384 6.61962 18.997 6.57932C18.9659 6.46849 19.0073 6.50879 19.0591 6.50879ZM20.5921 5.36017C20.5921 5.40048 20.5611 5.40048 20.5093 5.38032C20.53 5.36017 20.5507 5.3501 20.5921 5.36017ZM20.0328 3.15362C20.0535 3.19393 20.0639 3.21408 20.0328 3.15362V3.15362ZM19.9499 3.06294C19.9292 3.06294 19.9292 3.08309 19.9189 3.09317C19.9396 3.07302 19.9603 3.09317 19.981 3.10325C19.981 3.07302 19.981 3.05287 19.9396 3.05287L19.9499 3.06294ZM17.4847 4.18133L17.464 4.20148C17.4329 4.1511 17.464 4.17126 17.4847 4.18133Z" fill="white"/>
<path d="M20.4782 5.58181C20.4678 5.57173 20.4575 5.55158 20.4368 5.5415C20.4368 5.56166 20.4368 5.57173 20.4782 5.58181Z" fill="white"/>
<path d="M16.6897 7.67761C16.6897 7.67761 16.678 7.67761 16.6664 7.68769H16.6897V7.67761Z" fill="white"/>
<path d="M22.1355 3.22412C22.1562 3.24427 22.1562 3.26442 22.1459 3.28457C22.177 3.2745 22.177 3.25435 22.1355 3.22412Z" fill="white"/>
<path d="M19.3388 2.88161L19.4113 2.90176C19.3802 2.88161 19.3802 2.86146 19.3699 2.84131C19.3595 2.86146 19.3491 2.89169 19.3284 2.88161H19.3388Z" fill="white"/>
<path d="M19.1627 2.03524C19.142 2.03524 19.142 2.02516 19.1316 2.03524L19.1109 2.07554C19.1524 2.09569 19.1938 2.08562 19.1731 2.04532L19.1627 2.03524Z" fill="white"/>
<path d="M19.4631 2.57933C19.5045 2.5088 19.4527 2.5088 19.4009 2.48865C19.3181 2.57933 19.4009 2.56925 19.4527 2.56925L19.4631 2.57933Z" fill="white"/>
<path d="M19.3906 2.47865C19.3802 2.47865 19.3595 2.46857 19.3492 2.4585C19.3181 2.48872 19.3595 2.47865 19.3906 2.47865Z" fill="white"/>
<path d="M19.8049 3.03274C19.8049 3.00252 19.7324 3.11335 19.7428 3.08312C19.6599 3.15365 19.9499 3.06297 19.8049 3.03274Z" fill="white"/>
<path d="M19.5874 2.32751L19.546 2.41819L19.6081 2.36782L19.5874 2.32751Z" fill="white"/>
<path d="M19.8774 2.59946L19.8256 2.52893C19.8256 2.53901 19.8049 2.54908 19.7842 2.54908C19.8256 2.57931 19.8567 2.61961 19.8774 2.59946Z" fill="white"/>
<path d="M19.7946 2.54913C19.7739 2.52898 19.7531 2.5189 19.7324 2.52898C19.7428 2.52898 19.7739 2.54913 19.7946 2.54913Z" fill="white"/>
<path d="M19.691 2.35767L19.7013 2.38789L19.7428 2.4282L19.691 2.35767Z" fill="white"/>
<path d="M20.6232 3.05288L20.7165 3.07303C20.7372 3.0428 20.7268 3.01257 20.6957 3.01257C20.6647 3.02265 20.6336 3.01257 20.6232 3.05288Z" fill="white"/>
<path d="M20.53 2.68013C20.53 2.71036 20.53 2.73051 20.53 2.76073L20.5921 2.6499L20.53 2.67005V2.68013Z" fill="white"/>
<path d="M20.7682 2.78086C20.789 2.75063 20.9236 2.75063 20.8304 2.71033C20.8097 2.74055 20.7164 2.71033 20.7682 2.78086Z" fill="white"/>
<path d="M21.9283 3.50635H21.9076L21.6797 3.62725C21.7626 3.58695 21.8455 3.54665 21.9283 3.50635Z" fill="white"/>
<path d="M23.6375 4.01002C23.8964 3.91934 23.4096 3.98987 23.6685 3.90927C23.596 3.88912 23.4614 3.96972 23.3992 3.94957C23.4199 3.99995 23.3163 4.0201 23.6271 3.99995L23.6375 4.01002Z" fill="white"/>
<path d="M23.4122 3.95973C23.4122 3.95973 23.4005 3.94965 23.3889 3.93958C23.3889 3.94965 23.4005 3.95973 23.4122 3.95973Z" fill="white"/>
<path d="M17.4018 0.171293L17.4432 0.11084L17.3707 0.151142L17.4018 0.171293Z" fill="white"/>
<path d="M17.2361 0.0605097L17.3707 0.0403585L17.2464 0.0101318C17.2464 0.0202074 17.2672 0.0504341 17.2464 0.0705852L17.2361 0.0605097Z" fill="white"/>
<path d="M19.3595 6.63982V6.6096C19.3181 6.58944 19.3077 6.58944 19.2766 6.6096L19.3595 6.6499V6.63982Z" fill="white"/>
<path d="M18.3858 7.08318H18.4066C18.3755 7.04288 18.3548 7.01265 18.3237 6.98242L18.3755 7.08318H18.3858Z" fill="white"/>
<path d="M17.1325 7.97979C17.1843 7.95964 17.2568 7.87904 17.3086 7.85889C17.1843 7.95964 17.1947 7.76821 17.1325 7.97979Z" fill="white"/>
</g>
<defs>
<clipPath id="clip0_3185_897">
<rect width="24" height="8" fill="white"/>
</clipPath>
</defs>
</svg>
