<svg width="1920" height="4" viewBox="0 0 1920 4" fill="none" xmlns="http://www.w3.org/2000/svg">
<g clip-path="url(#clip0_2803_11498)">
<path d="M1791.3 3.24138C1788.3 3.24138 1789.4 3.44827 1788.9 3.44827C1794 3.44827 1791.2 3.17241 1791.3 3.24138Z" fill="#4D403C" fill-opacity="0.7"/>
<path d="M1841.3 2.75862L1840.4 2.82759L1847.8 2.62069L1841.3 2.75862Z" fill="#4D403C" fill-opacity="0.7"/>
<path d="M1888 2.75862C1883.6 2.41379 1871.1 2.75862 1862.7 2.68965H1861.3C1861.3 2.62069 1857.5 2.89655 1857.5 2.89655C1867.6 2.89655 1880.8 2.62069 1887.9 2.75862H1888Z" fill="#4D403C" fill-opacity="0.7"/>
<path d="M1912.9 3.58621C1911.4 3.44827 1918.3 3.44827 1907.1 3.58621C1907.7 3.58621 1907.8 3.58621 1908.2 3.58621C1909.2 3.58621 1910.6 3.58621 1913 3.58621H1912.9Z" fill="#4D403C" fill-opacity="0.7"/>
<path d="M1908.2 3.5862C1903.3 3.5862 1911.4 3.72414 1908.2 3.5862V3.5862Z" fill="#4D403C" fill-opacity="0.7"/>
<path d="M1909.1 0.482756L1915.6 0.344825C1914.2 0.275859 1908.5 0.206894 1910.6 0.206894C1903.9 0.275859 1905.3 0.344825 1909.1 0.482756Z" fill="#4D403C" fill-opacity="0.7"/>
<path d="M1902.9 0.758618H1906.3C1905.7 0.689653 1904.8 0.689653 1902.9 0.758618Z" fill="#4D403C" fill-opacity="0.7"/>
<path d="M1913.4 0.620689L1906.3 0.75862C1907.2 0.75862 1907.3 0.965517 1909.6 0.75862C1909 0.896551 1910.4 0.75862 1913.5 0.689655L1913.4 0.620689Z" fill="#4D403C" fill-opacity="0.7"/>
<path d="M1917.5 0.689651C1918.3 0.689651 1919.2 0.689651 1920 0.689651V3.24138C1917.5 3.24138 1915.9 3.17241 1920 3.03448V0.896548C1919.9 0.896548 1919.6 0.896548 1919.3 0.896548C1919.6 0.896548 1919.8 0.896548 1920 0.896548V3.03448C1909.3 3.03448 1910.2 3.31034 1920 3.31034V0.689651C1919.3 0.689651 1918.4 0.689651 1917.5 0.689651Z" fill="#4D403C" fill-opacity="0.7"/>
<path d="M1890.4 2.41379L1885.5 2.27586L1881.3 2.41379C1883.4 2.41379 1890.7 2.48276 1890.4 2.41379Z" fill="#4D403C" fill-opacity="0.7"/>
<path d="M1868.7 0.344826C1868.3 0.413791 1870.9 0.551722 1871.4 0.620688H1876.2C1873.7 0.482757 1869.1 0.413791 1868.7 0.344826Z" fill="#4D403C" fill-opacity="0.7"/>
<path d="M1871.4 0.620689L1864.2 0.75862C1870.6 0.75862 1871.8 0.75862 1871.4 0.620689Z" fill="#4D403C" fill-opacity="0.7"/>
<path d="M1901.8 1.17242L1913.6 0.896553L1899.5 1.17242H1901.8Z" fill="#4D403C" fill-opacity="0.7"/>
<path d="M1841.3 0.344828L1845.4 0.137932L1838.1 0.413794L1841.3 0.344828Z" fill="#4D403C" fill-opacity="0.7"/>
<path d="M1823.2 0.344828C1826.2 0.206897 1819.1 0.0689655 1822.3 0C1817.4 0 1813.2 0.137931 1809.4 0.275862C1813.4 0.275862 1817.7 0.275862 1823.3 0.344828H1823.2Z" fill="#4D403C" fill-opacity="0.7"/>
<path d="M1802.9 0.413795C1804.9 0.413795 1807 0.344829 1809.3 0.275864C1807.2 0.275864 1805.1 0.344829 1802.9 0.413795Z" fill="#4D403C" fill-opacity="0.7"/>
<path d="M1852 0.758624C1851.4 0.758624 1850.4 0.620693 1846.4 0.551727L1849.2 0.758624C1850.1 0.758624 1851 0.758624 1852 0.758624Z" fill="#4D403C" fill-opacity="0.7"/>
<path d="M1883 0.965515C1878.8 1.10345 1870 1.24138 1878.5 1.37931C1881.5 1.24138 1876.7 1.10345 1883 0.965515Z" fill="#4D403C" fill-opacity="0.7"/>
<path d="M1856.2 1.03448H1863.8C1863.7 1.03448 1862.3 0.965519 1864.4 0.896553L1856.2 1.03448Z" fill="#4D403C" fill-opacity="0.7"/>
<path d="M1852.5 1.10345L1856.2 1.03448L1853.4 0.965515L1852.5 1.10345Z" fill="#4D403C" fill-opacity="0.7"/>
<path d="M1816 0.620693C1812.7 0.689658 1809.1 0.758624 1805.1 0.758624C1809.5 0.758624 1814 0.758624 1818.2 0.758624C1818.8 0.689658 1820.7 0.551727 1816 0.551727V0.620693Z" fill="#4D403C" fill-opacity="0.7"/>
<path d="M1818.9 0.896549C1822.2 0.896549 1824.1 0.896549 1826 0.827583C1823.6 0.827583 1821 0.827583 1818.2 0.827583C1817.9 0.827583 1817.9 0.827583 1818.9 0.827583V0.896549Z" fill="#4D403C" fill-opacity="0.7"/>
<path d="M1791.8 0.551725C1793.5 0.551725 1795.4 0.62069 1797.5 0.689656C1795.8 0.62069 1792.4 0.482759 1791.8 0.551725Z" fill="#4D403C" fill-opacity="0.7"/>
<path d="M1830.3 0.689651C1828.6 0.689651 1827.3 0.758617 1826 0.827583C1828 0.827583 1829.8 0.827583 1831.4 0.758617C1831 0.758617 1830.6 0.758617 1830.3 0.758617V0.689651Z" fill="#4D403C" fill-opacity="0.7"/>
<path d="M1752.9 2.20689C1753.5 2 1762.1 1.7931 1769.5 2C1776.8 1.86207 1772 1.17241 1765.6 0.827583C1765.4 0.896549 1765.4 0.965514 1757.9 1.10345C1760.5 1.24138 1774.6 1.37931 1768.2 1.51724C1758.2 1.65517 1760 1.44827 1755.2 1.31034C1759.3 1.5862 1742.5 1.65517 1744.7 2.06896L1753.4 1.93103C1753.6 1.93103 1750.4 2.06896 1752.8 2.13793L1752.9 2.20689Z" fill="#4D403C" fill-opacity="0.7"/>
<path d="M1780 0.827589H1783.1C1779.6 0.827589 1777 0.689658 1772.4 0.551727C1767.2 0.620693 1766.2 0.758624 1765.8 0.827589H1781H1779.9H1780Z" fill="#4D403C" fill-opacity="0.7"/>
<path d="M1797 0.827587C1794.6 1.03448 1787.1 1.17241 1791.7 1.37931C1800.8 1.37931 1798.1 1.17241 1803.5 1.10345C1788.8 1.10345 1807.7 0.965518 1797.1 0.827587C1800 0.827587 1802.6 0.827587 1805 0.827587C1802.4 0.827587 1799.8 0.758621 1797.4 0.758621C1797.5 0.758621 1797.6 0.758621 1797.7 0.758621C1798.3 0.758621 1798.5 0.758621 1797.8 0.758621C1797.8 0.758621 1797.6 0.758621 1797.5 0.758621C1797.5 0.758621 1797.1 0.758621 1796.8 0.827587C1792.6 0.827587 1796.1 0.827587 1797.5 0.758621H1797.7L1783 0.896552C1786.1 0.896552 1790 0.896552 1796.9 0.896552L1797 0.827587Z" fill="#4D403C" fill-opacity="0.7"/>
<path d="M1864.6 1.79311C1865.7 1.79311 1866.6 1.65518 1870 1.72414C1873 1.72414 1870 1.86207 1870.1 1.93104C1872.2 1.93104 1877.4 1.79311 1870.9 1.65518H1869.9C1864 1.65518 1856.4 1.31035 1857.4 1.31035C1859.1 1.51725 1860.6 1.65518 1864.6 1.86207V1.79311Z" fill="#4D403C" fill-opacity="0.7"/>
<path d="M1830.4 1.37931L1818.2 1.51724L1824.4 1.72414L1824.1 1.58621C1831.1 1.58621 1829.6 1.51724 1830.4 1.37931Z" fill="#4D403C" fill-opacity="0.7"/>
<path d="M1763.6 0.689658L1765.2 0.413795L1758.2 0.758623L1763.6 0.689658Z" fill="#4D403C" fill-opacity="0.7"/>
<path d="M1747.7 0.689654L1748.3 0.482758L1744.1 0.620689L1747.7 0.689654Z" fill="#4D403C" fill-opacity="0.7"/>
<path d="M1357.5 0.689653C1352.3 0.482756 1346.4 0.206894 1347.1 0.413791L1348.7 0.620688C1352.4 0.620688 1355.2 0.620688 1357.5 0.620688V0.689653Z" fill="#4D403C" fill-opacity="0.7"/>
<path d="M1090.2 2.06896C1090.7 2.06896 1091.2 2.06896 1091.7 2.06896C1093 2 1094.2 1.93103 1095.2 1.86207C1093.7 1.86207 1091.9 1.93103 1090.1 2L1090.2 2.06896Z" fill="#4D403C" fill-opacity="0.7"/>
<path d="M1086.5 2.96551L1079.6 2.82758C1081.2 2.82758 1083.4 2.89655 1086.5 2.96551Z" fill="#4D403C" fill-opacity="0.7"/>
<path d="M709 3.44827L704.8 3.65517C711.4 3.65517 708.5 3.51724 709 3.44827Z" fill="#4D403C" fill-opacity="0.7"/>
<path d="M1585 0.75862C1580.5 0.689655 1576.9 0.620689 1573.7 0.620689C1579.1 0.75862 1583.5 0.965517 1585 0.75862Z" fill="#4D403C" fill-opacity="0.7"/>
<path d="M861.3 0.827583C859.1 0.827583 858.2 0.896549 858.2 0.965514C860.5 0.965514 861.7 0.896549 861.3 0.827583Z" fill="#4D403C" fill-opacity="0.7"/>
<path d="M1560.7 0.620688C1561.5 0.620688 1562.3 0.620688 1563.1 0.620688C1566.4 0.620688 1569.7 0.620688 1573.8 0.620688C1569.8 0.551723 1565.2 0.482757 1560.8 0.620688H1560.7Z" fill="#4D403C" fill-opacity="0.7"/>
<path d="M1700.2 1.44827C1699.5 1.44827 1698.9 1.44827 1698.9 1.5862C1699.2 1.5862 1699.6 1.51724 1700.2 1.44827Z" fill="#4D403C" fill-opacity="0.7"/>
<path d="M469.8 2.68965C469.6 2.68965 469.3 2.68965 469.1 2.68965C465.7 2.75862 467.2 2.75862 469.8 2.68965Z" fill="#4D403C" fill-opacity="0.7"/>
<path d="M1257.6 3.17241C1262.8 2.89655 1265.7 2.89655 1269.6 2.96552L1265.6 2.34483L1257.6 3.17241Z" fill="#4D403C" fill-opacity="0.7"/>
<path d="M788.8 3.31034L797.3 3.51724C787 3.86207 779.6 3.72414 787.6 4C788.8 3.31034 820.6 3.93103 821.8 3.24138L827.4 3.37931C825.8 3.37931 825.5 3.37931 824 3.37931C834.9 3.72414 832.1 2.89655 846.1 2.96552C851 2.96552 854.4 3.10345 851.1 3.17241L862 2.96552C865.2 2.96552 864.4 3.10345 861.2 3.10345H877.8H877.7C880.1 2.96552 885.4 2.82758 888.1 2.75862C892.3 2.82758 886 2.82758 887.1 2.89655L896.3 2.75862C900.1 2.96552 892.4 3.10345 886.1 3.10345C894.7 3.7931 893.7 2.89655 912.3 3.31034H903.6C909.2 3.7931 916 3.65517 925.8 3.93103C923.5 3.7931 906.1 3.31034 916.1 3.10345C918.9 3.10345 922.6 3.17241 928 3.10345C928 3.37931 933.3 3.31034 939.9 3.31034L939.5 3.65517C946.6 3.5862 946.1 3.37931 950.2 3.24138C958.1 3.24138 959.8 3.51724 961.7 3.72414C974.4 3.72414 952.9 3.31034 968 3.24138C978.6 3.37931 986 3.24138 998.6 3.03448C1006 3.17241 997.3 3.24138 1000 3.31034L1006.6 3.03448C1008.2 3.03448 1007.7 3.10345 1007.4 3.17241C1012.9 3.10345 1007.9 2.82758 1016.5 2.75862C1018.8 2.41379 1034.3 3.31034 1045.1 2.89655C1047.8 2.96552 1043.8 3.10345 1044.6 3.24138C1059.4 2.96551 1057.2 3.03448 1069.4 2.68965L1079.7 2.89655C1072.1 2.62069 1081.8 2.34483 1090.3 2.13793C1087.6 2 1085.3 1.93103 1083.8 1.86207L1097.3 1.65517C1098.9 1.65517 1097.6 1.7931 1095.4 1.93103C1096.3 1.93103 1097.2 1.93103 1097.9 1.86207C1102.7 2 1100.2 2.20689 1096.8 2.34483C1095.2 2.27586 1093.5 2.20689 1091.9 2.13793C1088.6 2.34483 1085.4 2.55172 1086.1 2.75862C1087 2.75862 1088.7 2.68965 1090.5 2.68965C1089.6 2.68965 1089.1 2.75862 1089.5 2.82758C1090 2.82758 1091.4 2.82758 1093.6 2.68965L1096.7 3.03448L1097.4 2.89655L1115.1 3.10345C1127.8 2.75862 1138.8 2.20689 1158.9 2C1153.9 2.27586 1157.8 2.41379 1157.6 2.75862C1152.1 2.41379 1142 2.89655 1131.6 2.82758C1137 2.82758 1135.8 3.03448 1134.5 3.10345L1153.1 2.82758C1152.7 3.10345 1157 3.03448 1161.9 3.10345C1158.2 2.55172 1175.8 2.75862 1183.3 2.62069C1183.8 2.82758 1182 2.96552 1172.7 2.89655C1182.9 3.31034 1185.9 2.27586 1195.9 2.62069C1193.6 2.62069 1192.4 2.62069 1191.5 2.62069C1196.8 2.48276 1209.6 2.62069 1206.6 2.75862H1204.4C1219.4 2.75862 1250 2.75862 1252.2 2.34483C1252.3 2.34483 1250.2 2.89655 1249.3 2.96552L1276 1.51724C1273.6 1.86207 1282.7 2.82758 1270.3 3.03448C1273.9 3.03448 1278.3 3.17241 1285.8 3.03448C1283.4 3.03448 1279.7 2.48276 1283.1 2.48276C1292.2 2.89655 1289.4 2.68965 1300.7 3.03448C1297.1 2.96552 1301.1 2.34483 1306.9 2.41379C1306 2.48276 1307.4 2.96552 1305.3 3.03448L1319.6 2.48276C1316 2.62069 1319 2.96551 1322.2 3.17241C1320.7 3.03448 1334.6 3.17241 1338.4 3.17241L1332.3 3.03448C1348.5 3.10345 1348.3 2.20689 1364.3 2.27586C1362.4 2.41379 1359.5 3.03448 1367.7 3.10345C1371.4 2.82758 1384.3 1.65517 1398.5 1.44827L1401.2 1.5862L1412.1 1.37931C1405.3 1.86207 1386.3 2.75862 1375.9 3.10345C1382 3.24138 1377.6 3.31034 1386.7 3.31034C1389.9 3.44827 1381.8 3.5862 1379.1 3.5862H1400.2C1399.3 3.31034 1416.3 3.31034 1415.5 3.03448L1392.6 3.37931C1391.7 3.03448 1405.9 2.41379 1420.8 2.48276C1424.6 2.62069 1418 3.10345 1418.3 3.24138C1420.2 3.10345 1432.5 3.03448 1433.9 3.10345L1427.6 3.31034C1435.9 3.44827 1441.2 2.82758 1451.2 3.17241C1454.7 3.17241 1461.5 3.5862 1462.1 3.44827C1456.5 3.03448 1455.4 1.7931 1459.1 1.51724C1460.3 1.51724 1477.2 1.93103 1481.2 2.06896C1486.9 2.41379 1472.7 2.82758 1477.5 3.10345C1477.7 3.03448 1480.9 2.89655 1482.2 2.82758C1485.8 2.89655 1480.7 3.10345 1488.6 3.10345C1489.9 2.75862 1504.6 3.10345 1492.3 2.82758C1500 2.75862 1500.5 2.89655 1509.6 2.82758C1506.7 2.62069 1517.7 2.06896 1525.5 1.93103C1525 2 1526.8 2.13793 1527.6 2.20689C1543.4 2.20689 1551.9 2.41379 1566.6 2.41379C1568 2.48276 1575.1 2.62069 1572 2.75862C1574.1 2.75862 1576.1 2.55172 1580.6 2.55172C1589.4 2.82758 1570.5 2.55172 1577.2 2.96552C1577.8 2.75862 1589 2.68965 1595.4 2.55172C1593.4 2.20689 1580.4 2.55172 1574 2.55172C1574 2.13793 1585.3 1.65517 1600.7 1.44827C1612.9 1.31034 1606 1.72414 1608.1 1.65517C1631.1 1.72414 1627.7 0.89655 1646.8 1.24138C1654.4 1.51724 1647.1 1.7931 1648.8 2C1638.8 2.13793 1633.5 1.7931 1626.7 1.86207L1635 2C1631.8 2.06896 1625.2 2.13793 1621.5 2.06896C1627.9 2.34483 1660.4 2.06896 1678.1 2.34483C1681.3 2.27586 1686.7 2.13793 1684.1 2.06896H1678.5C1673.3 1.86207 1689.1 1.7931 1682 1.72414C1689.5 1.5862 1698 1.31034 1708.6 1.44827L1710.6 1.7931C1710.4 1.72414 1703.7 1.5862 1700.7 1.72414C1705.1 1.5862 1717 2.13793 1721.8 1.72414L1714.4 1.51724C1722 1.37931 1731.3 1.03448 1740.7 1.10345C1736.4 0.758619 1738.5 1.10345 1731.9 0.758619C1737.7 1.24138 1707.9 0.758619 1717.2 1.24138C1710.3 0.827584 1705.3 1.03448 1696.4 0.689653C1696.7 0.827584 1699.6 0.89655 1691.7 0.827584C1691.3 0.827584 1690.5 0.89655 1690 0.89655C1689.8 0.89655 1689.7 0.89655 1689.5 0.89655C1689.7 0.89655 1689.8 0.89655 1689.9 0.89655C1689.6 0.89655 1689.5 0.89655 1690.1 0.89655C1692 0.89655 1693.5 0.965515 1694.1 1.03448C1690.2 1.24138 1677.6 1.24138 1673.4 1.37931C1668.7 1.37931 1675.4 1.24138 1672.8 1.17241L1666.5 1.37931C1665.9 1.17241 1654.1 0.965515 1665.1 0.827584H1655.2C1649.4 0.689653 1641.3 0.620687 1636.4 0.758619C1631.7 0.758619 1624.6 1.03448 1628.7 0.827584L1613.1 0.965515H1613C1597.6 0.89655 1581.4 1.31034 1563.8 0.89655C1558.6 0.89655 1553.3 1.03448 1544.6 0.89655L1542.9 0.689653C1536.3 0.758619 1523 0.482756 1520.1 0.689653C1512.9 0.137929 1487.9 0.551722 1476.2 0.482756L1475.8 0.758619C1467.8 0.758619 1460.1 0.758618 1450.1 0.89655L1450.7 1.10345C1442.1 1.31034 1428.6 0.965515 1415 0.965515C1415.9 0.89655 1419.4 0.965515 1421.8 0.965515C1405.6 0.413791 1387.5 1.37931 1372.8 0.965515C1369.1 1.03448 1366.5 0.965515 1363.9 0.965515C1364.2 0.965515 1364.5 0.965515 1364.8 0.965515C1364.4 0.965515 1363.9 0.965515 1363.3 0.965515C1361.7 0.965515 1360 0.89655 1358.2 0.827584C1359.7 0.827584 1361.2 0.89655 1362.5 0.965515C1359.7 0.965515 1355.4 0.965515 1351.2 1.03448L1349.4 0.758619C1349.1 0.758619 1348.8 0.758619 1348.4 0.758619C1344.3 0.689653 1345.1 0.89655 1347.3 1.03448C1345.2 1.03448 1343.2 1.10345 1341.7 1.17241C1338.3 0.758619 1330.7 1.31034 1326.1 0.89655C1323.3 1.10345 1304.9 1.03448 1302.7 1.51724C1302.6 1.51724 1301.3 1.44827 1303.6 1.44827C1298.9 1.44827 1294.2 1.37931 1290 1.44827L1288 1.10345L1277.8 1.51724C1271.6 1.31034 1269 1.24138 1275.2 0.965515C1260.3 1.31034 1263.1 1.10345 1250.4 1.44827L1251 1.24138C1246.5 1.24138 1239.2 1.51724 1236.5 1.37931C1226.3 0.965515 1186.3 1.37931 1160.2 0.965515C1165.3 1.5862 1148.1 0.689653 1147.1 1.17241C1145.6 1.03448 1141.9 0.965515 1146.2 0.827584C1132.9 0.965515 1126.2 0.620687 1117 0.965515C1115.5 0.827584 1119.8 0.758619 1118.5 0.689653C1117.4 0.689653 1114.3 0.827584 1112.9 0.689653C1111.5 0.620687 1114.8 0.551722 1117 0.482756C1103.4 0.482756 1102 0.965515 1101.1 1.37931C1094.2 1.17241 1090.8 1.24138 1085.8 1.44827C1083.4 1.31034 1079.4 1.17241 1087.8 1.10345C1083.1 1.10345 1058.8 0.89655 1058.3 1.24138C1056.8 1.17241 1051.7 1.24138 1050.4 1.24138C1039.7 1.24138 1038.8 1.24138 1028.3 1.24138H1031.2C1027.1 1.72414 1022.5 1.37931 1014.1 1.44827H1014.3C995 1.10345 1005.9 1.51724 986.9 1.24138L987.9 1.51724C986.1 2.06896 971 1.17241 959.9 1.37931L963.9 1.51724C957.9 1.72414 947 0.758619 940.9 0.758619C939.6 0.758619 943 0.689653 944.8 0.620687C928.9 0.27586 942.7 0.965515 930.9 1.03448C928.7 0.827584 933.7 0.620688 925.7 0.551722C921.7 0.413791 902.6 1.10345 891.7 0.758619C894.1 0.89655 896.5 1.03448 891 1.10345C882.6 1.10345 868.2 0.620687 860.6 1.03448C859.5 1.03448 859.1 0.965515 859.1 0.89655C852.7 1.03448 838.1 1.10345 834.3 1.31034C828.3 0.482756 794.2 1.72414 794.3 0.965515H774.5H775C762.3 0.965515 757.8 1.10345 753.4 1.31034C750.5 1.31034 752.6 1.17241 752.9 1.17241C734.4 1.03448 732.5 1.03448 717 1.44827L715.4 1.17241C711.2 1.31034 688.6 0.758619 670.4 1.10345C670.6 1.10345 671 1.03448 672.4 0.965515C652 1.24138 623.4 0.27586 616 1.17241L602.5 1.37931C620 1.44827 599.9 1.7931 607.1 1.93103C600.2 1.93103 589.4 1.65517 597.8 1.5862H599.1C602.2 1.17241 577.4 1.44827 577.9 1.10345C543.5 1.10345 510.1 0.827584 477.9 0.827584L481.6 1.17241H470.4C467.5 1.03448 466.4 0.827584 474.5 0.89655C472.4 0.758618 469 0.89655 466.2 0.89655C463.3 0.965515 461 1.10345 460.9 1.17241C445.2 1.03448 467 0.758619 462.2 0.689653H455.7L457.2 0.758619C451.9 0.89655 451.4 1.10345 441.8 1.03448C435.7 0.965515 438.7 0.827584 436.3 0.758619C436.3 0.758619 436.1 0.758619 435.5 0.758619C434.9 0.758619 434 0.758619 432.6 0.758619H418.5L424.2 1.03448C417.9 1.17241 410.9 1.03448 417.4 1.37931C407.8 0.827584 364.7 1.17241 358.8 1.03448C350 1.24138 341.4 1.24138 330.6 1.24138C333.3 1.24138 334.9 1.65517 325.6 1.5862C329 0.89655 308.6 1.31034 301.2 0.758619C307.9 1.10345 274.9 0.827584 285.4 1.31034C277.7 1.31034 284.9 1.03448 279.1 0.89655C260.7 1.17241 238.6 0.689653 215.9 0.827584C215.5 0.89655 219.4 1.03448 214.5 1.17241L202.5 0.689653C198 0.689653 198.4 1.24138 190.2 0.89655C191.4 0.965515 193.1 1.10345 190.1 1.10345C145.6 0.689653 99.0996 1.44827 53.8996 0.620687C59.9996 0.827584 55.8996 0.827584 51.2996 0.827584C54.2996 0.827584 51.2996 1.03448 51.7996 1.17241L32.8996 0.827584C29.4996 1.17241 12.5996 0.827584 10.5996 1.17241H16.5996C8.59961 1.51724 27.7996 2 26.5996 2.48276C35.4996 2.06896 50.0996 3.10345 64.7996 2.48276C67.9996 2.55172 61.9996 2.62069 63.7996 2.75862C67.4996 2.55172 71.9996 2.48276 80.2996 2.62069H79.3996C102.7 2.62069 112.7 2.82758 139 2.96552L137.1 2.68965C142.7 2.68965 143.9 2.82758 146.6 2.82758C153.1 2.48276 130.8 2.82758 136.7 2.41379C144.2 2.89655 176.4 2.41379 181.5 2.96552C190.2 2.96552 179 2.68965 187.6 2.68965L189.9 2.82758L192.1 2.62069C197.8 2.62069 200.6 2.82758 200.9 2.96552C199.5 2.96552 197 2.96552 195.5 2.96552C202.9 3.17241 216.3 2.96552 218.8 2.96552H210.5C234.2 2.75862 263 2.96552 285.9 2.62069L284.2 2.48276C301.7 2.27586 298.2 2.62069 317.3 2.48276H316.6C320.4 2.41379 325.6 2.34483 330.8 2.34483C326 2.48276 339.9 2.62069 333.6 2.75862C352.5 2.55172 343 2.55172 355.5 2.13793L358.4 2.34483C362.7 2.13793 363 2.06896 372.6 2C364.8 2.13793 378.7 2.27586 369.9 2.48276C390 2.89655 399.7 2.06896 408.9 2.68965C418.1 2.13793 391.5 2.41379 396.7 2.27586C392.4 2.06896 404.3 1.86207 410.6 1.93103C417 1.93103 421.5 2.62069 437.6 2.62069C436 2.62069 435.9 2.62069 434.3 2.62069C440.3 2.75862 446.1 2.41379 453.5 2.62069C457.7 2.27586 463.1 2.62069 464.3 2.20689H449.5C457.9 2.20689 465.8 1.72414 479.6 1.93103C478.5 2 474.4 2.13793 471.6 2.20689C475.6 2.34483 479.4 2.13793 483.6 2.20689C482.4 2.62069 465.6 2.27586 456.6 2.62069C460.9 2.82758 473.6 2.34483 469.1 2.75862C475.6 2.20689 485 2.82758 495.9 2.41379L495.2 2.68965C496.9 2.68965 500.5 2.55172 503.7 2.55172L497.9 2.89655C506.7 2.62069 515 3.10345 523.4 2.96552C505.6 2.96552 519.4 2.68965 511.9 2.48276C533.8 2.13793 524.5 3.10345 549 3.03448C545.7 3.03448 536.5 2.89655 541.7 2.75862C546.4 2.75862 552.5 2.89655 555.4 3.03448C571.7 3.03448 552.9 2.75862 559.8 2.62069C565.3 2.89655 567.8 2.48276 574.9 2.41379V2.68965C593.5 2.82758 579.9 2.13793 596.5 2.34483L589.5 2.68965H598.2C598.2 2.62069 596.4 2.89655 596.4 2.89655C605.9 2.68965 608.8 2.75862 618.1 2.82758C615.9 2.62069 619.3 2.34483 627.5 2.34483C633.1 2.48276 624.4 2.55172 636 2.55172C633.4 2.68965 630.5 2.89655 625.4 2.68965C624.9 2.75862 622.8 2.82758 622.3 2.89655C628.3 3.03448 637.4 2.89655 641.7 2.89655C640.1 2.89655 638.1 2.89655 637.1 2.89655L654 2.55172C656.7 2.62069 654.5 2.68965 652.5 2.82758C655.9 2.82758 658.3 2.68965 663.3 2.68965C662 2.89655 662.3 3.10345 655.2 3.17241L671.3 2.96552C672.4 3.03448 679.5 3.24138 677.5 3.31034C686.4 3.44827 699.3 2.89655 711.2 3.10345C711.8 3.10345 713 3.03448 715.6 2.96552C726.7 2.96552 736.5 3.24138 749.7 2.96552L757.2 3.31034C767.5 3.24138 747.1 2.82758 764.2 2.68965C776.3 2.55172 768.7 2.96552 773 3.10345C779 2.89655 789.5 2.55172 800.7 2.82758C797 2.82758 794.1 2.82758 790.7 2.82758L788.8 3.31034ZM915.8 3.17241C913.3 3.17241 908.4 3.37931 906.6 3.17241C909.4 2.89655 911.6 3.03448 915.8 3.17241ZM1108.9 2.55172C1107.1 2.62069 1104.2 2.55172 1101 2.55172C1103.3 2.55172 1105.9 2.55172 1108.9 2.55172ZM1646.9 0.827584C1646.8 0.827584 1646.7 0.827584 1646.6 0.827584C1641.1 0.758619 1643.1 0.827584 1646.9 0.827584ZM1658.3 0.965515C1659.4 0.965515 1659.4 0.89655 1658.9 0.827584C1658.1 0.827584 1655.5 0.827584 1652.6 0.827584C1653.4 0.827584 1654.9 0.965515 1658.3 0.827584V0.965515ZM433.9 1.03448H436.1C431.1 1.17241 432.5 1.10345 433.9 1.03448Z" fill="#4D403C" fill-opacity="0.7"/>
<path d="M1087 2.89655C1086.3 2.89655 1086.1 2.82759 1085.9 2.75862C1084.9 2.75862 1084.9 2.82759 1087 2.89655Z" fill="#4D403C" fill-opacity="0.7"/>
<path d="M1481.6 3.03448C1479.3 3.03448 1477.9 2.96552 1477.1 2.89655C1477 2.89655 1478 3.03448 1481.6 3.03448Z" fill="#4D403C" fill-opacity="0.7"/>
<path d="M1718.7 0.482758H1711.4C1714.9 0.482758 1716.2 0.620689 1718 0.620689C1717.8 0.620689 1716.4 0.482758 1718.7 0.482758Z" fill="#4D403C" fill-opacity="0.7"/>
<path d="M1782.1 2C1783.2 2 1784.4 2 1785.4 2L1785.1 1.86207C1780.6 1.86207 1777.4 1.93103 1782.1 2Z" fill="#4D403C" fill-opacity="0.7"/>
<path d="M1725.4 1.31034C1726 1.51724 1730.6 1.44827 1735.7 1.37931H1734.8C1736.3 1.10344 1730.9 1.17241 1725.4 1.31034Z" fill="#4D403C" fill-opacity="0.7"/>
<path d="M1736.9 1.37931C1738.5 1.37931 1740.1 1.37931 1741.6 1.37931C1742.2 1.24138 1739.7 1.37931 1736.9 1.37931Z" fill="#4D403C" fill-opacity="0.7"/>
<path d="M1672.7 0.758621C1675.1 0.758621 1674.2 0.482759 1675.6 0.551725C1678.3 0.275863 1659.4 0.896552 1672.7 0.758621Z" fill="#4D403C" fill-opacity="0.7"/>
<path d="M1729.6 2L1727.7 1.72414L1724.9 1.93103L1729.6 2Z" fill="#4D403C" fill-opacity="0.7"/>
<path d="M1718.4 2.06897L1716 2H1710.2L1718.4 2.06897Z" fill="#4D403C" fill-opacity="0.7"/>
<path d="M1601.3 1.72414H1592.4C1591.5 1.86207 1593.9 1.93103 1597.2 1.93103C1599.3 1.93103 1602.6 1.86207 1601.3 1.72414Z" fill="#4D403C" fill-opacity="0.7"/>
<path d="M1628.3 2.48276C1625.9 2.48276 1625.7 2.34483 1624.4 2.27586L1624.1 2.62069L1628.3 2.48276Z" fill="#4D403C" fill-opacity="0.7"/>
<path d="M1602.3 2.55173C1601.4 2.62069 1589.4 2.82759 1600.7 2.75862C1601.6 2.68966 1610.5 2.62069 1602.3 2.55173Z" fill="#4D403C" fill-opacity="0.7"/>
<path d="M1467.8 2.13793H1470.1L1469.8 1.5862L1467.8 2.13793Z" fill="#4D403C" fill-opacity="0.7"/>
<path d="M1349.4 3.37931C1360 3.51724 1351.9 3.03448 1361.5 3.24138C1364 3.10345 1353.7 3.10345 1356.2 3.03448C1349.8 3.17242 1346.5 3.03448 1349.4 3.44828V3.37931Z" fill="#4D403C" fill-opacity="0.7"/>
<path d="M1356.2 2.96552C1357.2 2.96552 1358.3 2.96552 1359.5 2.89655C1357.7 2.89655 1356.8 2.89655 1356.2 2.96552Z" fill="#4D403C" fill-opacity="0.7"/>
<path d="M18.7004 0.75862L11.9004 0.620689L16.3004 0.827586L18.7004 0.75862Z" fill="#4D403C" fill-opacity="0.7"/>
<path d="M5.7 1.10345L4.1 0.758621L0 1.10345C1.5 1.10345 4.5 1.10345 5.7 1.10345Z" fill="#4D403C" fill-opacity="0.7"/>
<path d="M934.7 3.7931H935.2C934.1 3.65517 932.6 3.5862 929.4 3.5862L934.7 3.7931Z" fill="#4D403C" fill-opacity="0.7"/>
<path d="M842.5 3.58621H844.1L841.1 3.24138L842.5 3.58621Z" fill="#4D403C" fill-opacity="0.7"/>
<path d="M765.1 3.93104C768.3 3.93104 772 3.93104 775.1 3.93104C768.2 3.93104 764.2 3.58621 765.1 3.93104Z" fill="#4D403C" fill-opacity="0.7"/>
</g>
<defs>
<clipPath id="clip0_2803_11498">
<rect width="1920" height="4" fill="white"/>
</clipPath>
</defs>
</svg>
