<svg width="24" height="8" viewBox="0 0 24 8" fill="none" xmlns="http://www.w3.org/2000/svg">
<g clip-path="url(#clip0_3238_386)">
<path d="M23.1195 3.85893C23.1506 3.85893 23.1403 3.77833 23.1506 3.76825C23.0885 3.7884 23.1195 3.87908 23.1195 3.85893Z" fill="#752525"/>
<path d="M22.5602 4.0403L22.5706 4.01007L22.4877 4.09068L22.5602 4.0403Z" fill="#752525"/>
<path d="M22.0319 4.04031C22.0837 4.18136 22.2184 4.02016 22.3116 4.07053V4.10076C22.322 4.10076 22.3738 3.98993 22.3738 3.98993C22.2598 4.01008 22.1148 4.08061 22.0319 4.04031Z" fill="#752525"/>
<path d="M21.7523 3.72797C21.773 3.78842 21.6901 3.77834 21.8144 3.74812C21.8144 3.74812 21.8144 3.74812 21.8041 3.73804C21.7937 3.73804 21.773 3.73804 21.7523 3.73804V3.72797Z" fill="#752525"/>
<path d="M21.8041 3.72796C21.773 3.67758 21.8558 3.72796 21.8041 3.72796V3.72796Z" fill="#752525"/>
<path d="M21.5451 3.7582L21.6176 3.70782C21.6072 3.6776 21.5347 3.66752 21.5658 3.64737C21.4933 3.6776 21.5037 3.70782 21.5451 3.7582Z" fill="#752525"/>
<path d="M21.4726 3.85894L21.514 3.83878C21.514 3.82871 21.4933 3.81863 21.4726 3.85894Z" fill="#752525"/>
<path d="M21.5969 3.7985L21.514 3.8388C21.5244 3.85895 21.5244 3.90933 21.5555 3.81865C21.5555 3.85895 21.5555 3.81865 21.5969 3.78842V3.7985Z" fill="#752525"/>
<path d="M21.6383 3.81863C21.6798 3.84886 21.7316 3.86901 21.659 3.91938C21.8041 3.89923 21.7833 3.79848 21.6383 3.81863Z" fill="#752525"/>
<path d="M22.0009 4.18137L22.0527 4.22167L22.1044 4.17129C22.0837 4.19145 22.0009 4.13099 22.0009 4.17129V4.18137Z" fill="#752525"/>
<path d="M21.0893 3.67758C21.0893 3.70781 21.1101 3.75819 21.1204 3.79849L21.1722 3.76826C21.1411 3.74811 21.0893 3.72796 21.0893 3.67758Z" fill="#752525"/>
<path d="M21.1204 3.79849L21.0376 3.84887C21.1101 3.84887 21.1204 3.82872 21.1204 3.79849Z" fill="#752525"/>
<path d="M21.4622 4.02016L21.5969 3.90933L21.4415 4.02016H21.4622Z" fill="#752525"/>
<path d="M20.789 3.66751L20.8304 3.59698L20.7475 3.70782L20.789 3.66751Z" fill="#752525"/>
<path d="M20.5818 3.67758C20.6129 3.61713 20.5404 3.57683 20.5818 3.5466C20.53 3.5466 20.4782 3.60705 20.4368 3.64736C20.4782 3.6272 20.53 3.6272 20.5921 3.67758H20.5818Z" fill="#752525"/>
<path d="M20.3539 3.71789C20.3746 3.70782 20.3953 3.67759 20.4264 3.65744C20.4057 3.66752 20.3746 3.68767 20.3539 3.71789Z" fill="#752525"/>
<path d="M20.9029 3.83879C20.9029 3.81864 20.8822 3.76826 20.8407 3.74811L20.8718 3.83879C20.8718 3.83879 20.8925 3.83879 20.9029 3.83879Z" fill="#752525"/>
<path d="M21.2551 3.93954C21.2033 3.98992 21.1101 4.0403 21.2033 4.11083C21.2344 4.05038 21.1826 4.01007 21.2551 3.93954Z" fill="#752525"/>
<path d="M20.9443 3.93954L21.0272 3.95969C21.0272 3.93954 21.0065 3.89924 21.0272 3.87909L20.934 3.93954H20.9443Z" fill="#752525"/>
<path d="M20.9029 3.96977L20.9443 3.93954H20.9133L20.9029 3.96977Z" fill="#752525"/>
<path d="M20.4989 3.79849C20.4575 3.83879 20.4161 3.83879 20.3746 3.84887C20.4264 3.86902 20.4782 3.8791 20.5196 3.8791C20.5196 3.84887 20.5507 3.80857 20.4989 3.80857V3.79849Z" fill="#752525"/>
<path d="M20.53 3.88917C20.5714 3.90933 20.5921 3.88917 20.6129 3.85895C20.5818 3.85895 20.5507 3.86902 20.5196 3.86902C20.5196 3.8791 20.5196 3.88917 20.5196 3.88917H20.53Z" fill="#752525"/>
<path d="M20.2192 3.7582C20.24 3.77835 20.2607 3.78843 20.2814 3.80858C20.2607 3.77835 20.2296 3.73805 20.2192 3.7582Z" fill="#752525"/>
<path d="M20.6559 3.80858C20.6434 3.78843 20.6434 3.80858 20.6559 3.80858V3.80858Z" fill="#752525"/>
<path d="M20.6543 3.80856C20.6336 3.81864 20.6232 3.83879 20.6025 3.85894C20.6232 3.85894 20.6439 3.83879 20.6647 3.82871C20.6647 3.82871 20.6647 3.80856 20.6543 3.80856Z" fill="#752525"/>
<path d="M19.7842 4.39296C19.7842 4.31235 19.8878 4.24182 19.9707 4.32243C20.0535 4.26198 20.0017 4.00001 19.9292 3.84888C19.9292 3.8791 19.9292 3.91941 19.836 3.95971C19.8671 4.00001 20.0224 4.06046 19.9499 4.13099C19.836 4.1713 19.8567 4.10077 19.8049 4.06046C19.8464 4.16122 19.6599 4.20152 19.6806 4.35266L19.7842 4.30228C19.7842 4.32243 19.7531 4.36273 19.7842 4.38288V4.39296Z" fill="#752525"/>
<path d="M20.095 3.86901H20.126C20.0846 3.84886 20.0535 3.80856 20.0017 3.74811C19.9396 3.78841 19.9292 3.81864 19.9292 3.83879H20.1053C20.1053 3.84886 20.095 3.85894 20.095 3.85894V3.86901Z" fill="#752525"/>
<path d="M20.2814 3.85894C20.2503 3.94962 20.1675 3.97985 20.2192 4.0806C20.3228 4.0806 20.2918 4.01007 20.3539 3.96977C20.1882 3.98992 20.4057 3.91939 20.2814 3.86902C20.3125 3.85894 20.3435 3.84887 20.3746 3.84887C20.3435 3.83879 20.3125 3.82871 20.2918 3.80856C20.2918 3.81864 20.2918 3.82871 20.2918 3.81864C20.2918 3.82871 20.2918 3.83879 20.2918 3.84887C20.24 3.82871 20.2918 3.82871 20.2918 3.81864C20.2918 3.81864 20.2918 3.81864 20.2918 3.80856L20.126 3.85894C20.1571 3.86902 20.2089 3.86902 20.2814 3.85894Z" fill="#752525"/>
<path d="M21.1117 4.30226C21.1117 4.30226 21.1117 4.29218 21.1117 4.2821C21.0992 4.29218 21.0992 4.30226 21.1117 4.30226Z" fill="#752525"/>
<path d="M21.0375 4.2418C21.0479 4.23172 21.0583 4.19142 21.0997 4.2015C21.1308 4.23172 21.0997 4.2418 21.0997 4.27203C21.1204 4.25188 21.1826 4.21157 21.0997 4.17127H21.0893C21.0272 4.15112 20.934 4.04029 20.9547 4.03021C20.9754 4.11082 20.9858 4.16119 21.0375 4.2418Z" fill="#752525"/>
<path d="M20.6543 4.07053L20.5196 4.11083L20.5921 4.19143V4.15113C20.6647 4.17128 20.6543 4.11083 20.6647 4.0806L20.6543 4.07053Z" fill="#752525"/>
<path d="M19.9085 3.79847L19.9292 3.70779L19.8464 3.8287L19.9085 3.79847Z" fill="#752525"/>
<path d="M19.7221 3.80857L19.7324 3.72797L19.691 3.77834L19.7221 3.80857Z" fill="#752525"/>
<path d="M9.60207 4.70529L9.56064 4.72544C9.58135 4.72544 9.59171 4.71537 9.60207 4.70529Z" fill="#752525"/>
<path d="M9.89306 4.70528V4.66498C9.89306 4.68513 9.88055 4.70528 9.89306 4.70528Z" fill="#752525"/>
<path d="M15.3198 3.77834C15.2577 3.70781 15.1955 3.5869 15.2059 3.67758L15.2266 3.76826C15.268 3.74811 15.2991 3.76826 15.3302 3.77834H15.3198Z" fill="#752525"/>
<path d="M12.3056 4.27203C12.3056 4.27203 12.3159 4.29218 12.3263 4.30225C12.3366 4.27203 12.3574 4.2418 12.3677 4.22165C12.347 4.2418 12.3263 4.26195 12.3056 4.2821V4.27203Z" fill="#752525"/>
<path d="M12.2538 4.63476L12.1813 4.57431C12.202 4.59446 12.2227 4.61461 12.2538 4.63476Z" fill="#752525"/>
<path d="M7.99655 4.77582L7.94476 4.8665C8.01726 4.8665 7.98619 4.8262 7.99655 4.77582Z" fill="#752525"/>
<path d="M17.8886 3.81863C17.8369 3.7884 17.7954 3.76825 17.7644 3.76825C17.8265 3.81863 17.8783 3.89923 17.8886 3.81863Z" fill="#752525"/>
<path d="M9.72637 3.77835C9.70566 3.7985 9.6953 3.80858 9.6953 3.82873C9.71601 3.81865 9.73673 3.7985 9.72637 3.77835Z" fill="#752525"/>
<path d="M17.6193 3.76826C17.6193 3.76826 17.6401 3.77833 17.6504 3.78841C17.6918 3.77833 17.7229 3.75818 17.7747 3.76826C17.7333 3.72795 17.6815 3.7078 17.6297 3.76826H17.6193Z" fill="#752525"/>
<path d="M2.18774 4.65491C2.18774 4.65491 2.18774 4.65491 2.17523 4.64484C2.17523 4.65491 2.17523 4.65491 2.18774 4.65491Z" fill="#752525"/>
<path d="M19.186 4.11084C19.186 4.11084 19.1744 4.13099 19.1627 4.15114C19.1627 4.13099 19.1627 4.12092 19.186 4.11084Z" fill="#752525"/>
<path d="M17.2361 4.30228C17.2361 4.31235 17.2486 4.32243 17.2361 4.30228V4.30228Z" fill="#752525"/>
<path d="M19.0591 3.79848C19.0488 3.7884 19.0281 3.77833 19.0073 3.76825C19.0073 3.76825 19.0281 3.7884 19.0591 3.79848Z" fill="#752525"/>
<path d="M19.0591 3.75819C19.0695 3.75819 19.0798 3.75819 19.0902 3.75819C19.0902 3.74811 19.0902 3.73803 19.0591 3.75819Z" fill="#752525"/>
<path d="M18.9555 3.76825C18.9763 3.76825 18.997 3.76825 19.0177 3.76825C19.0177 3.76825 19.0073 3.75818 19.0177 3.75818C19.0073 3.75818 18.9866 3.75818 18.9659 3.75818L18.9555 3.76825Z" fill="#752525"/>
<path d="M5.30433 4.4534C5.2613 4.4937 5.28282 4.48363 5.30433 4.4534V4.4534Z" fill="#752525"/>
<path d="M14.1908 4.7355C14.2529 4.62467 14.284 4.64482 14.3254 4.66498L14.284 4.41309L14.1908 4.7355Z" fill="#752525"/>
<path d="M8.89771 4.72544L8.99094 4.80604C8.877 4.93703 8.79413 4.88665 8.877 4.99748C8.89771 4.72544 9.24989 4.97733 9.27061 4.69521L9.33276 4.75567C9.31204 4.75567 9.31204 4.76574 9.29133 4.76574C9.41562 4.89672 9.38455 4.56423 9.53992 4.60453C9.59171 4.62468 9.63315 4.66499 9.59171 4.69521L9.71601 4.62468C9.74709 4.62468 9.74709 4.67506 9.71601 4.67506L9.90246 4.65491C9.93354 4.62468 9.99568 4.55416 10.0164 4.52393C10.0682 4.56423 9.99569 4.55416 10.006 4.58438L10.1096 4.52393C10.1511 4.59446 10.0682 4.66499 9.99569 4.65491C10.0889 4.92695 10.0786 4.58438 10.2857 4.74559L10.1821 4.77582C10.2443 4.92695 10.3168 4.87657 10.4307 4.97733C10.41 4.92695 10.2132 4.73552 10.3271 4.66499C10.3582 4.68514 10.3997 4.69521 10.4618 4.64484C10.4618 4.74559 10.524 4.71536 10.5965 4.71536V4.84635C10.669 4.80604 10.669 4.74559 10.7104 4.68514C10.8036 4.69521 10.814 4.79597 10.8347 4.88665C10.9797 4.9068 10.7415 4.72544 10.9072 4.70529C11.0211 4.75567 11.1144 4.70529 11.249 4.62468C11.3319 4.66499 11.2387 4.70529 11.2594 4.73552L11.3319 4.63476C11.3526 4.63476 11.3423 4.66499 11.3319 4.68514C11.394 4.64484 11.3319 4.55416 11.4355 4.52393C11.4666 4.38287 11.6323 4.73552 11.7566 4.57431C11.7877 4.61461 11.7462 4.65491 11.7566 4.70529C11.9223 4.60453 11.9016 4.63476 12.0363 4.48363L12.1502 4.57431C12.0673 4.47355 12.1709 4.36272 12.2745 4.27204C12.2434 4.22166 12.2227 4.18136 12.202 4.16121L12.3574 4.09068C12.3781 4.11083 12.3574 4.15113 12.3366 4.21159C12.347 4.20151 12.3574 4.19144 12.3677 4.18136C12.4195 4.23174 12.3884 4.30227 12.3574 4.3728C12.3366 4.34257 12.3159 4.32242 12.3056 4.29219C12.2641 4.3728 12.2331 4.4534 12.2331 4.534C12.2331 4.52393 12.2641 4.50378 12.2849 4.50378C12.2849 4.52393 12.2641 4.54408 12.2745 4.55416C12.2745 4.56423 12.2952 4.54408 12.3159 4.50378L12.347 4.64484V4.58438L12.5542 4.67506C12.6992 4.534 12.8235 4.32242 13.0514 4.26196C12.9892 4.36272 13.041 4.43325 13.0306 4.55416C12.9685 4.42317 12.8546 4.60453 12.7406 4.58438C12.8028 4.59446 12.7924 4.65491 12.7717 4.67506L12.9789 4.55416C12.9789 4.65491 13.0203 4.63476 13.0721 4.67506C13.0306 4.47355 13.2275 4.54408 13.3207 4.48363C13.3207 4.55416 13.3 4.62468 13.1964 4.60453C13.3103 4.75567 13.3517 4.3728 13.4553 4.50378C13.4346 4.50378 13.4139 4.50378 13.4035 4.534C13.4657 4.47355 13.6107 4.52393 13.5693 4.58438H13.5486C13.7143 4.61461 14.0665 4.58438 14.0872 4.42317C14.0872 4.44332 14.0665 4.62468 14.0561 4.66499L14.3669 4.09068C14.3358 4.24181 14.4394 4.58438 14.2943 4.67506C14.3358 4.69521 14.3876 4.72544 14.4704 4.67506C14.4394 4.65491 14.4083 4.46348 14.4394 4.4534C14.5429 4.61461 14.5119 4.54408 14.6362 4.68514C14.5947 4.65491 14.6362 4.42317 14.7087 4.43325C14.6983 4.46348 14.7087 4.66499 14.688 4.68514L14.8537 4.46348C14.8123 4.50378 14.8537 4.65491 14.8848 4.71536C14.864 4.67506 15.0194 4.71536 15.0712 4.69521L14.9987 4.64484C15.1852 4.68514 15.1852 4.33249 15.3612 4.34257C15.3405 4.39295 15.3095 4.63476 15.3923 4.65491C15.4338 4.54408 15.5891 4.10075 15.7445 4.01007L15.7756 4.0806L15.8999 4.01007C15.817 4.18136 15.5995 4.55416 15.4855 4.69521C15.5581 4.74559 15.5063 4.77582 15.6098 4.76574C15.6409 4.8262 15.5581 4.85642 15.527 4.8665L15.7652 4.9068C15.7652 4.77582 15.9517 4.77582 15.9413 4.65491L15.6823 4.79597C15.6823 4.66499 15.8377 4.4131 16.0035 4.44332C16.0449 4.4937 15.9724 4.68514 15.9724 4.72544C15.9931 4.67506 16.1381 4.63476 16.1485 4.67506L16.076 4.74559C16.1692 4.79597 16.2313 4.56423 16.3453 4.69521C16.3867 4.69521 16.4592 4.8665 16.4696 4.78589C16.4074 4.63476 16.3971 4.15113 16.4385 4.0403C16.4489 4.05038 16.6457 4.19143 16.6871 4.26196C16.7492 4.38287 16.5835 4.55416 16.6457 4.65491C16.6457 4.61461 16.6871 4.57431 16.6975 4.55416C16.7389 4.58438 16.6767 4.66499 16.77 4.65491C16.7907 4.51385 16.9461 4.66499 16.8114 4.54408C16.8943 4.50378 16.9046 4.57431 17.0082 4.56423C16.9771 4.47355 17.1014 4.26196 17.1947 4.22166C17.1947 4.25189 17.205 4.30227 17.2154 4.32242C17.3915 4.33249 17.4847 4.40302 17.6504 4.40302C17.6608 4.43325 17.7436 4.47355 17.7126 4.534C17.7333 4.51385 17.754 4.46348 17.8058 4.46348C17.899 4.58438 17.6918 4.48363 17.7644 4.62468C17.7644 4.54408 17.899 4.51385 17.9715 4.46348C17.9508 4.34257 17.8058 4.44332 17.7333 4.48363C17.7333 4.31234 17.8679 4.14106 18.0337 4.06045C18.1683 4.02015 18.0958 4.17128 18.1165 4.15113C18.3755 4.18136 18.3444 3.85894 18.5516 3.97985C18.6344 4.09068 18.5516 4.19144 18.5723 4.27204C18.4584 4.31234 18.3962 4.20151 18.3237 4.20151L18.4169 4.25189C18.3858 4.29219 18.303 4.31234 18.2615 4.28212C18.3341 4.38287 18.6966 4.30227 18.9038 4.39295C18.9348 4.35264 18.997 4.32242 18.9763 4.27204H18.9141C18.852 4.20151 19.0384 4.17128 18.9555 4.12091C19.0384 4.06045 19.142 3.9597 19.2559 4.02015L19.2767 4.14106C19.2767 4.10075 19.2041 4.07053 19.1627 4.10076C19.2145 4.05038 19.3492 4.27204 19.401 4.10076L19.3181 4.01007C19.401 3.94962 19.5149 3.81864 19.6185 3.85894C19.5667 3.73803 19.5978 3.86902 19.5149 3.72796C19.577 3.90932 19.2456 3.72796 19.3492 3.90932C19.2767 3.73803 19.2145 3.83879 19.1213 3.69773C19.1213 3.73803 19.1524 3.77834 19.0695 3.75819C19.0695 3.76826 19.0591 3.78841 19.0488 3.79849C19.0695 3.81864 19.0902 3.83879 19.0902 3.85894C19.0488 3.94962 18.9038 3.94962 18.852 4C18.8002 3.97985 18.8727 3.94962 18.852 3.90932L18.7795 3.97985C18.7795 3.88917 18.6448 3.82871 18.7691 3.77834H18.6552C18.593 3.71788 18.4998 3.69773 18.448 3.73803C18.3962 3.71788 18.3133 3.83879 18.3651 3.76826L18.189 3.81864V3.79849C18.013 3.78841 17.8265 3.94962 17.6297 3.77834C17.5675 3.79849 17.5158 3.82871 17.4122 3.79849L17.3915 3.71788C17.3189 3.74811 17.1636 3.63728 17.1325 3.71788C17.0496 3.5063 16.77 3.66751 16.6353 3.6272V3.72796C16.5421 3.72796 16.4489 3.74811 16.3349 3.78841V3.87909C16.2417 3.94962 16.0967 3.80856 15.9413 3.81864C15.9517 3.78841 15.9931 3.79849 16.0138 3.81864C15.8274 3.61713 15.6306 3.9597 15.4648 3.81864C15.4234 3.84887 15.3923 3.83879 15.3612 3.81864C15.3612 3.81864 15.3509 3.81864 15.3405 3.81864C15.3198 3.79849 15.2991 3.78841 15.2784 3.76826C15.2991 3.78841 15.3095 3.80856 15.3302 3.81864C15.2991 3.81864 15.2473 3.82871 15.2059 3.84887L15.1852 3.74811C15.1852 3.74811 15.1852 3.74811 15.1748 3.74811C15.1334 3.70781 15.1334 3.79849 15.1644 3.86902C15.1437 3.88917 15.123 3.89924 15.1023 3.92947C15.0609 3.76826 14.978 3.97985 14.9262 3.80856C14.8951 3.88917 14.688 3.86902 14.6569 4.0403C14.6569 4.02015 14.6465 4.01007 14.6569 4.01007C14.6051 3.98992 14.5533 3.96977 14.5015 4.01007L14.4808 3.88917L14.3669 4.05038C14.2943 3.96977 14.2736 3.92947 14.3358 3.83879C14.17 3.97985 14.2011 3.88917 14.0561 4.0403V3.9597C14.0147 3.9597 13.9318 4.07053 13.9007 4C13.7868 3.84887 13.331 3.96977 13.041 3.82871C13.0928 4.06045 12.9063 3.71788 12.896 3.89924C12.8753 3.83879 12.8338 3.80856 12.896 3.76826C12.7406 3.81864 12.6681 3.67758 12.5645 3.82871C12.5438 3.76826 12.5956 3.74811 12.5852 3.71788C12.5749 3.72796 12.5335 3.76826 12.5231 3.72796C12.5127 3.69773 12.5438 3.67758 12.5645 3.65743C12.4092 3.65743 12.3988 3.83879 12.3781 4C12.3056 3.91939 12.2641 3.92947 12.202 4.0403C12.1709 3.98992 12.1295 3.92947 12.2227 3.90932C12.1709 3.90932 11.8912 3.82871 11.8912 3.9597C11.8705 3.92947 11.8187 3.94962 11.798 3.9597C11.6737 3.9597 11.6634 3.93955 11.5494 3.9597L11.5805 3.97985C11.5287 4.13098 11.4769 4.01007 11.3837 4.03023V4.01007C11.1662 3.89924 11.2905 4.06045 11.0729 3.92947V4.03023C11.0626 4.24181 10.8969 3.90932 10.7726 3.97985L10.814 4.0403C10.7415 4.11083 10.6275 3.75819 10.555 3.72796C10.5447 3.70781 10.5757 3.69773 10.5965 3.68766C10.4204 3.56675 10.5757 3.81864 10.4411 3.83879C10.4204 3.76826 10.4722 3.66751 10.3893 3.64735C10.3479 3.5869 10.1303 3.86902 10.006 3.73803C10.0371 3.78841 10.0578 3.83879 10.006 3.87909C9.91282 3.89924 9.74709 3.67758 9.66422 3.83879C9.65386 3.82871 9.64351 3.80856 9.64351 3.79849C9.571 3.83879 9.40527 3.86902 9.36383 3.9597C9.30168 3.6272 8.90807 4.12091 8.91843 3.80856H8.69055C8.69055 3.81864 8.69055 3.78841 8.69055 3.78841C8.54553 3.76826 8.49374 3.83879 8.44195 3.90932C8.41088 3.88917 8.44195 3.85894 8.44195 3.83879C8.23479 3.77834 8.21407 3.78841 8.03798 3.93955L8.01726 3.83879C7.96547 3.89924 7.71688 3.67758 7.50971 3.79849C7.50971 3.78841 7.50971 3.76826 7.53043 3.75819C7.30255 3.86902 6.98144 3.47607 6.88822 3.83879L6.73284 3.92947C6.92965 3.9597 6.70177 4.09068 6.78464 4.15113C6.71213 4.17128 6.58783 4.0403 6.68105 4.02015V4.0403C6.73284 3.84887 6.45317 3.96977 6.45317 3.83879C6.06992 3.83879 5.68666 3.73803 5.32413 3.72796L5.36556 3.87909H5.24126C5.21019 3.83879 5.19983 3.75819 5.29305 3.75819C5.24126 3.67758 5.13768 3.82871 5.13768 3.85894C4.96159 3.79849 5.21019 3.68766 5.15839 3.68766H5.08589C5.08589 3.69773 5.1066 3.71788 5.1066 3.71788C5.04445 3.77834 5.04445 3.83879 4.93051 3.82871C4.85801 3.79849 4.89944 3.73803 4.86836 3.72796C4.86836 3.71788 4.86836 3.70781 4.82693 3.72796H4.67156C4.67156 3.71788 4.73371 3.82871 4.73371 3.82871C4.6612 3.88917 4.58869 3.82871 4.6612 3.94962C4.55762 3.74811 4.07078 3.86902 3.99827 3.80856C3.89469 3.88917 3.80147 3.88917 3.67717 3.87909C3.70824 3.89924 3.72896 4.03023 3.61502 4.02015C3.65645 3.74811 3.42857 3.89924 3.34571 3.70781C3.41821 3.83879 3.04532 3.73803 3.16962 3.91939C3.08675 3.89924 3.16962 3.81864 3.09711 3.75819C2.88994 3.85894 2.64135 3.68766 2.38239 3.71788C2.38239 3.75819 2.42382 3.80856 2.36167 3.85894L2.22702 3.67758C2.17523 3.69773 2.17523 3.87909 2.082 3.75819C2.09236 3.78841 2.11308 3.82871 2.082 3.84887C1.58481 3.66751 1.05654 3.97985 0.548986 3.64735C0.621493 3.71788 0.569702 3.72796 0.517911 3.72796C0.548986 3.74811 0.517911 3.81864 0.517911 3.85894L0.310746 3.72796C0.269314 3.85894 0.0828655 3.72796 0.062149 3.85894L0.134657 3.83879C0.0414326 3.98992 0.258955 4.17128 0.238239 4.36272C0.341821 4.19143 0.497194 4.61461 0.673284 4.3728C0.704359 4.4131 0.64221 4.43325 0.662926 4.48363C0.704359 4.40302 0.75615 4.38287 0.849374 4.42317V4.44332C1.09797 4.42317 1.21191 4.50378 1.5123 4.56423L1.49158 4.47355C1.55373 4.48363 1.56409 4.51385 1.59517 4.54408C1.66767 4.40302 1.41908 4.54408 1.48123 4.3728C1.56409 4.56423 1.92663 4.3728 1.98878 4.60453C2.082 4.60453 1.9577 4.4937 2.06129 4.4937L2.082 4.55416L2.10272 4.47355C2.16487 4.48363 2.19594 4.56423 2.19594 4.61461C2.18558 4.61461 2.15451 4.62468 2.13379 4.63476C2.21666 4.70529 2.37203 4.61461 2.39275 4.63476L2.29953 4.59446C2.56884 4.54408 2.88994 4.62468 3.1489 4.50378L3.12818 4.46348C3.32499 4.38287 3.28356 4.51385 3.50108 4.47355C3.54251 4.44332 3.60466 4.4131 3.66681 4.42317C3.61502 4.47355 3.77039 4.52393 3.69789 4.58438C3.91541 4.4937 3.80147 4.51385 3.94648 4.35264L3.97756 4.42317C4.02935 4.35264 4.02935 4.32242 4.14329 4.30227C4.05007 4.36272 4.2158 4.4131 4.11221 4.50378C4.3401 4.66499 4.45404 4.34257 4.54726 4.58438C4.65084 4.38287 4.35045 4.46348 4.4126 4.42317C4.36081 4.35264 4.49547 4.27204 4.56798 4.29219C4.64048 4.29219 4.69228 4.55416 4.86836 4.55416C4.84765 4.55416 4.84765 4.56423 4.82693 4.56423C4.89944 4.61461 4.96159 4.4937 5.04445 4.58438C5.09625 4.46348 5.14804 4.58438 5.16875 4.43325L5.00302 4.47355C5.09625 4.43325 5.18947 4.25189 5.34484 4.34257C5.33448 4.3728 5.28269 4.4131 5.25162 4.44332C5.29305 4.4937 5.34484 4.4131 5.38628 4.46348C5.37592 4.62468 5.17911 4.4937 5.07553 4.61461C5.12732 4.68514 5.27234 4.50378 5.22054 4.67506C5.29305 4.4534 5.39663 4.70529 5.52093 4.534V4.62468C5.53129 4.61461 5.57272 4.56423 5.6038 4.56423L5.54165 4.68514C5.64523 4.58438 5.7281 4.77582 5.83168 4.72544C5.63487 4.72544 5.79025 4.61461 5.70738 4.54408C5.95598 4.42317 5.84204 4.79597 6.12171 4.75567C6.08028 4.76574 5.97669 4.69521 6.03884 4.65491C6.09064 4.67506 6.16314 4.71536 6.19422 4.76574C6.38067 4.74559 6.16314 4.66499 6.24601 4.60453C6.30816 4.72544 6.33923 4.55416 6.4221 4.52393V4.62468C6.62926 4.68514 6.48425 4.42317 6.6707 4.50378L6.58783 4.63476L6.69141 4.60453L6.6707 4.71536C6.77428 4.63476 6.81571 4.65491 6.91929 4.68514C6.89858 4.61461 6.92965 4.51385 7.02288 4.50378C7.08502 4.56423 6.9918 4.59446 7.1161 4.58438C7.08502 4.64484 7.05395 4.72544 6.9918 4.63476C6.9918 4.66499 6.96073 4.69521 6.96073 4.72544C7.03323 4.79597 7.12646 4.74559 7.17825 4.74559C7.15753 4.74559 7.13682 4.74559 7.12646 4.72544L7.31291 4.59446C7.34398 4.63476 7.31291 4.66499 7.29219 4.68514C7.33362 4.67506 7.35434 4.63476 7.41649 4.62468C7.40613 4.70529 7.40613 4.78589 7.32326 4.8262L7.50971 4.73552C7.52007 4.76574 7.60294 4.8262 7.58222 4.85642C7.6858 4.9068 7.83082 4.70529 7.96547 4.76574C7.96547 4.74559 7.98619 4.73552 8.01726 4.72544C8.14156 4.74559 8.2555 4.84635 8.40052 4.72544L8.48339 4.8665C8.59733 4.83627 8.36944 4.68514 8.56625 4.63476C8.70091 4.59446 8.61804 4.75567 8.65947 4.79597C8.73198 4.72544 8.84592 4.58438 8.97022 4.69521C8.92879 4.72544 8.89771 4.69521 8.85628 4.71536L8.89771 4.72544ZM10.3271 4.67506C10.2961 4.69521 10.2443 4.75567 10.2236 4.69521C10.2546 4.58438 10.2754 4.63476 10.3271 4.67506ZM12.5127 4.46348C12.492 4.4937 12.4609 4.48363 12.4195 4.44332C12.4506 4.44332 12.4713 4.44332 12.5127 4.46348ZM18.593 3.83879C18.5309 3.79849 18.5516 3.81864 18.593 3.83879V3.83879ZM18.7173 3.87909C18.7277 3.86902 18.7277 3.84887 18.7173 3.83879C18.7173 3.85894 18.6759 3.86902 18.6448 3.85894C18.6448 3.88917 18.6655 3.89924 18.707 3.87909H18.7173ZM4.89944 3.78841L4.92016 3.81864C4.86836 3.84887 4.87872 3.81864 4.89944 3.78841Z" fill="#752525"/>
<path d="M12.2663 4.58437C12.2663 4.56422 12.2663 4.55415 12.2546 4.534C12.243 4.55415 12.243 4.56422 12.2663 4.58437Z" fill="#752525"/>
<path d="M16.7182 4.68514C16.6871 4.67507 16.6767 4.65492 16.6664 4.63477C16.6664 4.65492 16.6664 4.67507 16.7182 4.68514Z" fill="#752525"/>
<path d="M19.401 3.71787L19.3181 3.73802C19.3595 3.73802 19.3699 3.75817 19.3906 3.76825C19.3906 3.7481 19.3699 3.70779 19.3906 3.70779L19.401 3.71787Z" fill="#752525"/>
<path d="M20.1053 4.33248C20.1157 4.32241 20.126 4.33248 20.1467 4.32241V4.2821C20.095 4.2821 20.0535 4.32241 20.1053 4.34256V4.33248Z" fill="#752525"/>
<path d="M19.4735 4.04031C19.4735 4.12092 19.5356 4.09069 19.5874 4.08061C19.6081 3.96978 19.546 4.00001 19.4838 4.04031H19.4735Z" fill="#752525"/>
<path d="M19.5978 4.08062C19.6185 4.08062 19.6288 4.08062 19.6495 4.08062C19.6495 4.03024 19.6288 4.08062 19.5978 4.08062Z" fill="#752525"/>
<path d="M18.883 3.82872C18.9141 3.84887 18.9038 3.72796 18.9141 3.75819C18.9452 3.65743 18.7277 3.8791 18.883 3.82872Z" fill="#752525"/>
<path d="M19.5149 4.31233L19.4942 4.21158L19.4631 4.29218L19.5149 4.31233Z" fill="#752525"/>
<path d="M19.0591 4.23173L19.1524 4.26196C19.1524 4.24181 19.1627 4.23173 19.1731 4.23173C19.1213 4.23173 19.0591 4.21158 19.0591 4.23173Z" fill="#752525"/>
<path d="M19.1834 4.23173C19.2145 4.23173 19.2456 4.23173 19.2559 4.21158C19.2352 4.21158 19.2041 4.21158 19.1834 4.23173Z" fill="#752525"/>
<path d="M19.3906 4.34257L19.3595 4.32242L19.2974 4.31235L19.3906 4.34257Z" fill="#752525"/>
<path d="M18.0751 4.21158L17.9715 4.2418C17.9612 4.27203 17.9922 4.30226 18.0233 4.28211C18.044 4.26196 18.0855 4.24181 18.0751 4.21158Z" fill="#752525"/>
<path d="M18.3755 4.48362C18.3444 4.46347 18.3444 4.44332 18.3341 4.40302V4.52392L18.3755 4.47354V4.48362Z" fill="#752525"/>
<path d="M18.0751 4.51385C18.0647 4.54408 17.9301 4.61461 18.0544 4.60454C18.0647 4.57431 18.1683 4.54408 18.0751 4.51385Z" fill="#752525"/>
<path d="M16.5628 4.34257H16.5861V4.13098L16.5628 4.34257Z" fill="#752525"/>
<path d="M15.2162 4.81611C15.3302 4.86649 15.2473 4.68513 15.3509 4.75566C15.382 4.70528 15.268 4.70528 15.2887 4.66498C15.2162 4.71536 15.1748 4.68513 15.2059 4.82619L15.2162 4.81611Z" fill="#752525"/>
<path d="M15.2991 4.66499C15.3095 4.66499 15.3198 4.64484 15.3405 4.63477C15.3198 4.64484 15.3095 4.65492 15.2991 4.66499Z" fill="#752525"/>
<path d="M0.217523 3.64736L0.145016 3.59698L0.186449 3.66751L0.217523 3.64736Z" fill="#752525"/>
<path d="M0.0725075 3.79849L0.0517911 3.66751L0 3.78842C0.0207164 3.78842 0.0517911 3.76827 0.0621493 3.79849H0.0725075Z" fill="#752525"/>
<path d="M10.5447 4.93701V4.90679C10.5447 4.87656 10.524 4.86649 10.4825 4.86649L10.5447 4.93701Z" fill="#752525"/>
<path d="M9.49849 4.82619L9.5192 4.83627L9.48813 4.71536L9.49849 4.82619Z" fill="#752525"/>
<path d="M8.6284 4.96727C8.65947 4.96727 8.71126 4.94711 8.74234 4.94711C8.65947 4.96727 8.61804 4.81613 8.6284 4.96727Z" fill="#752525"/>
<path d="M16.8839 0.0201416L17.2257 7.05289C19.0591 6.00503 20.9029 4.94709 22.7363 3.89924C20.6336 3.13349 18.6966 1.92442 17.1118 0.372786" fill="#752525"/>
<path d="M16.77 0.735504C16.7492 0.705277 16.6975 0.775806 16.6871 0.785881C16.7389 0.806032 16.7907 0.725428 16.77 0.735504Z" fill="#752525"/>
<path d="M17.2775 0.937042L17.2464 0.957193L17.3604 0.947118L17.2775 0.937042Z" fill="#752525"/>
<path d="M17.6297 1.24937C17.6918 1.10831 17.4847 1.15869 17.4536 1.05794V1.02771C17.464 1.02771 17.3604 1.08816 17.3604 1.08816C17.4432 1.13854 17.5986 1.16877 17.6297 1.24937Z" fill="#752525"/>
<path d="M17.609 1.64233C17.6297 1.59195 17.6815 1.64233 17.5779 1.59195C17.5779 1.59195 17.5779 1.60203 17.5779 1.6121C17.5779 1.6121 17.5986 1.63225 17.609 1.64233Z" fill="#752525"/>
<path d="M17.5802 1.6121C17.5336 1.58188 17.5802 1.67256 17.5802 1.6121V1.6121Z" fill="#752525"/>
<path d="M17.7747 1.733H17.6918C17.6815 1.76323 17.7229 1.80353 17.6918 1.81361C17.7643 1.83376 17.7747 1.80353 17.7747 1.733Z" fill="#752525"/>
<path d="M17.8887 1.69269H17.8472C17.8472 1.69269 17.8472 1.71284 17.8887 1.69269Z" fill="#752525"/>
<path d="M17.7643 1.67254H17.8472C17.8472 1.66246 17.8886 1.62216 17.8058 1.67254C17.8369 1.64231 17.8058 1.67254 17.754 1.67254H17.7643Z" fill="#752525"/>
<path d="M17.754 1.63223C17.754 1.58185 17.7229 1.54155 17.8058 1.54155C17.6918 1.4811 17.6401 1.5617 17.754 1.63223Z" fill="#752525"/>
<path d="M17.7436 1.14862V1.08817H17.6711C17.7022 1.08817 17.7126 1.17885 17.7436 1.13854V1.14862Z" fill="#752525"/>
<path d="M18.0544 2.04534C18.0751 2.02519 18.0855 1.96474 18.1062 1.93451H18.044C18.044 1.96474 18.0751 2.00504 18.044 2.04534H18.0544Z" fill="#752525"/>
<path d="M18.1062 1.93451H18.1994C18.1476 1.89421 18.1269 1.90428 18.1062 1.93451Z" fill="#752525"/>
<path d="M18.0026 1.58188L17.8369 1.59195H18.0233L18.0026 1.58188Z" fill="#752525"/>
<path d="M18.2719 2.22669L18.189 2.25692L18.3237 2.21661L18.2719 2.22669Z" fill="#752525"/>
<path d="M18.4273 2.31738C18.3651 2.34761 18.3962 2.41814 18.3548 2.42821C18.4066 2.44837 18.4687 2.42821 18.5309 2.42821C18.4791 2.42821 18.448 2.39799 18.4376 2.31738H18.4273Z" fill="#752525"/>
<path d="M18.6137 2.40805C18.593 2.40805 18.5516 2.40805 18.5205 2.41813C18.5516 2.41813 18.5723 2.41813 18.6137 2.40805Z" fill="#752525"/>
<path d="M18.2823 2.02518C18.2823 2.04533 18.2512 2.08563 18.2823 2.12593L18.3133 2.04533C18.3133 2.04533 18.303 2.03525 18.2926 2.02518H18.2823Z" fill="#752525"/>
<path d="M18.1062 1.75313C18.1683 1.74306 18.2719 1.75313 18.2512 1.6423C18.189 1.67253 18.1994 1.73298 18.1062 1.75313Z" fill="#752525"/>
<path d="M18.3237 1.91437L18.2719 1.85391C18.2615 1.87406 18.2512 1.90429 18.2201 1.91437H18.3237Z" fill="#752525"/>
<path d="M18.3651 1.91437H18.3237L18.3341 1.93452L18.3651 1.91437Z" fill="#752525"/>
<path d="M18.5619 2.267C18.6137 2.25693 18.6448 2.267 18.6759 2.29723C18.6552 2.25693 18.6241 2.2267 18.5827 2.19647C18.5619 2.21662 18.5205 2.24685 18.5516 2.267H18.5619Z" fill="#752525"/>
<path d="M18.593 2.18639C18.5723 2.15617 18.5516 2.15617 18.5205 2.16624C18.5412 2.16624 18.5723 2.18639 18.593 2.19647C18.593 2.19647 18.6034 2.18639 18.593 2.17632V2.18639Z" fill="#752525"/>
<path d="M18.7406 2.44837C18.7406 2.42822 18.729 2.39799 18.7173 2.37784C18.7173 2.40806 18.7173 2.46852 18.7406 2.44837Z" fill="#752525"/>
<path d="M18.448 2.17631C18.4687 2.17631 18.4894 2.17631 18.5205 2.15616C18.4998 2.15616 18.4791 2.15616 18.4583 2.15616C18.4583 2.15616 18.4583 2.17631 18.4583 2.18639L18.448 2.17631Z" fill="#752525"/>
<path d="M19.432 2.14611C19.3802 2.20656 19.2663 2.22671 19.2559 2.1058C19.1627 2.1058 19.0488 2.35769 19.0073 2.50883C19.0281 2.4786 19.0488 2.45845 19.142 2.45845C19.142 2.40807 19.0591 2.27709 19.1627 2.25694C19.2663 2.27709 19.2145 2.32747 19.2249 2.38792C19.2456 2.28716 19.4113 2.33754 19.4838 2.20656H19.3802C19.3906 2.18641 19.4424 2.16626 19.432 2.13603V2.14611Z" fill="#752525"/>
<path d="M18.9038 2.42822H18.8727C18.8934 2.44837 18.8934 2.48868 18.8934 2.56928C18.9555 2.56928 18.9866 2.54913 19.0073 2.52898L18.883 2.42822H18.9038Z" fill="#752525"/>
<path d="M18.7484 2.33752C18.8209 2.27707 18.9038 2.29722 18.9245 2.18639C18.8416 2.13601 18.8312 2.20654 18.7587 2.20654C18.8934 2.27707 18.6966 2.21661 18.7587 2.32744C18.7277 2.32744 18.7069 2.30729 18.6759 2.29722C18.6862 2.31737 18.7069 2.34759 18.7173 2.37782C18.7173 2.35767 18.7173 2.36775 18.7173 2.37782L18.738 2.35767C18.7587 2.39797 18.738 2.37782 18.7173 2.37782L18.8727 2.4282C18.852 2.39797 18.8209 2.37782 18.7587 2.34759L18.7484 2.33752Z" fill="#752525"/>
<path d="M18.4273 1.55164C18.4273 1.55164 18.4273 1.56171 18.4273 1.57179C18.4398 1.57179 18.4523 1.57179 18.4273 1.55164Z" fill="#752525"/>
<path d="M18.448 1.63223C18.4273 1.63223 18.4066 1.65238 18.3858 1.63223C18.3858 1.59193 18.4169 1.602 18.4273 1.57178C18.3962 1.57178 18.334 1.57178 18.3548 1.65238H18.3755C18.4066 1.71284 18.3962 1.84382 18.3755 1.84382C18.4066 1.77329 18.4376 1.72291 18.448 1.63223Z" fill="#752525"/>
<path d="M18.6137 1.96475L18.738 2.00505V1.9043L18.7069 1.9446C18.6655 1.89422 18.6344 1.9446 18.6137 1.96475Z" fill="#752525"/>
<path d="M18.997 2.56927L18.9348 2.6398L19.0695 2.56927H18.997Z" fill="#752525"/>
<path d="M19.142 2.64987L19.0902 2.7204L19.1524 2.70025L19.142 2.64987Z" fill="#752525"/>
<path d="M18.4687 6.89169L18.4273 6.94207C18.448 6.92192 18.4584 6.90177 18.4687 6.89169Z" fill="#752525"/>
<path d="M18.7493 6.74056V6.70026C18.7368 6.72041 18.7493 6.74056 18.7493 6.74056Z" fill="#752525"/>
<path d="M21.5555 3.98993C21.3794 4 21.1411 4 21.3276 4.01008H21.5037C21.483 4.01008 21.5037 4 21.5555 3.98993Z" fill="#752525"/>
<path d="M20.3332 5.28968C20.3332 5.28968 20.3539 5.29975 20.3643 5.30983C20.3643 5.2796 20.3643 5.24937 20.3539 5.21915C20.3539 5.2393 20.3539 5.26952 20.3435 5.28968H20.3332Z" fill="#752525"/>
<path d="M16.6664 7.68765C16.6353 7.7078 16.6042 7.72795 16.5732 7.73803C16.5732 7.85894 16.6249 7.73803 16.6664 7.68765Z" fill="#752525"/>
<path d="M20.5818 3.46599C20.6025 3.51637 20.6336 3.54659 20.6543 3.56675C20.6336 3.49622 20.6232 3.41561 20.5818 3.46599Z" fill="#752525"/>
<path d="M18.1372 6.00504C18.1372 6.02519 18.1372 6.04534 18.1498 6.05541C18.1498 6.03526 18.1498 6.01511 18.1372 6.00504Z" fill="#752525"/>
<path d="M20.7786 3.6272C20.7786 3.61712 20.7786 3.60704 20.7682 3.59697C20.7268 3.59697 20.6957 3.59697 20.6647 3.56674C20.6854 3.61712 20.7164 3.65742 20.7786 3.6272Z" fill="#752525"/>
<path d="M16.4712 1.91437C16.4712 1.91437 16.4712 1.91437 16.4712 1.9043C16.4587 1.9043 16.4587 1.9043 16.4712 1.91437Z" fill="#752525"/>
<path d="M19.6495 2.97229C19.6495 2.99244 19.6612 3.00252 19.6728 3.01259C19.6728 3.01259 19.6728 2.99244 19.6495 2.97229Z" fill="#752525"/>
<path d="M19.6288 3.01258C19.6288 3.01258 19.6185 2.99243 19.6081 2.99243C19.5978 3.00251 19.5978 3.01258 19.6288 3.01258Z" fill="#752525"/>
<path d="M19.7117 3.05291C19.691 3.05291 19.6806 3.03275 19.6703 3.0126C19.6703 3.0126 19.6703 3.02268 19.6703 3.03275C19.6703 3.03275 19.691 3.03275 19.7117 3.05291Z" fill="#752525"/>
<path d="M16.8321 4.56424C16.7907 4.53402 16.801 4.54409 16.8321 4.56424V4.56424Z" fill="#752525"/>
<path d="M22.2287 4.73552C22.1873 4.63477 22.2287 4.62469 22.3116 4.60454C22.1977 4.57431 22.0941 4.53401 21.9801 4.50378C22.0734 4.57431 22.1562 4.65492 22.2287 4.7456V4.73552Z" fill="#752525"/>
<path d="M17.5986 7.41562C17.6297 7.42569 17.6711 7.43577 17.7022 7.44585C17.5158 7.69773 17.4018 7.71789 17.495 7.78841C17.5468 7.59698 17.6711 7.51637 17.8058 7.43577C17.9301 7.35517 18.0647 7.27456 18.0544 7.11335C18.0855 7.11335 18.1062 7.12343 18.1372 7.1335C18.1165 7.14358 18.1165 7.16373 18.0855 7.1738C18.1683 7.20403 18.1994 7.12343 18.2201 7.04282C18.2408 6.96222 18.2615 6.86146 18.3548 6.83124C18.4273 6.81109 18.4894 6.83124 18.4583 6.88161C18.4998 6.83124 18.5412 6.78086 18.5723 6.74056C18.6034 6.73048 18.6241 6.77078 18.5826 6.79093L18.7173 6.69018C18.7173 6.64988 18.7173 6.56927 18.738 6.52897C18.7898 6.53904 18.738 6.56927 18.7587 6.58942L18.8002 6.48867C18.8727 6.52897 18.8416 6.62972 18.7795 6.64988C18.997 6.84131 18.8105 6.54912 19.0488 6.5995L18.997 6.67003C19.1213 6.78086 19.1523 6.69018 19.287 6.73048C19.2456 6.70025 18.9866 6.61965 19.0384 6.50882C19.0695 6.50882 19.1109 6.50882 19.1316 6.42821C19.1834 6.50882 19.2145 6.46852 19.2663 6.42821L19.3284 6.53904C19.3699 6.46852 19.3284 6.41814 19.3284 6.34761C19.4009 6.31738 19.4735 6.39799 19.5252 6.45844C19.6495 6.41814 19.3699 6.36776 19.4838 6.267C19.5978 6.267 19.6392 6.17632 19.7013 6.04534C19.7842 6.04534 19.7324 6.11587 19.7738 6.13602V6.01512C19.7946 6.01512 19.8049 6.03527 19.8049 6.05542C19.836 5.99496 19.7428 5.94459 19.8049 5.87406C19.7531 5.74307 20.0639 5.96474 20.0742 5.7733C20.1157 5.79345 20.1053 5.84383 20.1364 5.88413C20.2089 5.72292 20.2089 5.75315 20.2296 5.57179L20.3643 5.59194C20.2503 5.54156 20.271 5.40051 20.2918 5.2796C20.24 5.24937 20.1985 5.22922 20.1778 5.21915L20.2607 5.08816C20.2814 5.09824 20.3021 5.13854 20.3021 5.19899C20.3021 5.18892 20.3021 5.16877 20.3021 5.15869C20.3643 5.17884 20.385 5.24937 20.3953 5.32998C20.3643 5.3199 20.3435 5.29975 20.3125 5.28967C20.3228 5.37028 20.3435 5.46096 20.385 5.52141C20.385 5.50126 20.385 5.48111 20.4057 5.47103C20.4057 5.49119 20.4057 5.51134 20.4264 5.52141C20.4368 5.52141 20.4264 5.50126 20.4264 5.46096L20.53 5.57179L20.5093 5.52141H20.7061C20.7372 5.32998 20.7268 5.08816 20.8615 4.93703C20.8718 5.04786 20.9443 5.08816 21.0065 5.19899C20.8925 5.10831 20.9029 5.3199 20.7993 5.35013C20.8511 5.34005 20.8718 5.39043 20.8718 5.42066L20.965 5.22922C21.0168 5.3199 21.0375 5.2796 21.0997 5.28967C20.965 5.13854 21.1515 5.10831 21.1826 5.01763C21.224 5.07809 21.2447 5.13854 21.1515 5.16877C21.3172 5.24937 21.1411 4.89673 21.2965 4.96726C21.2758 4.97733 21.2654 4.96726 21.2758 5.00756C21.2861 4.92695 21.4208 4.9068 21.4312 4.97733H21.4104C21.4312 4.97733 21.4519 4.97733 21.4726 4.96726C21.4726 4.96726 21.4933 4.95718 21.5037 4.9471C21.514 4.9471 21.5347 4.92695 21.5451 4.91688C21.6072 4.87658 21.6694 4.83627 21.7212 4.79597C21.8248 4.70529 21.8766 4.62469 21.8041 4.56423C21.8248 4.57431 21.9801 4.70529 21.9905 4.73552C21.9284 4.54408 21.8144 4.39295 21.6383 4.26197C21.7212 4.30227 21.8766 4.35265 22.0216 4.40302C22.1666 4.4534 22.2909 4.51386 22.2598 4.57431C22.3323 4.56423 22.4255 4.53401 22.4566 4.4534C22.3945 4.46348 22.1148 4.40302 22.1355 4.3728C22.2909 4.3728 22.3427 4.3728 22.3841 4.3728C22.4359 4.3728 22.4773 4.36272 22.6534 4.34257C22.6016 4.34257 22.5084 4.3325 22.4359 4.30227C22.3634 4.27204 22.3013 4.24182 22.3323 4.23174C22.3738 4.25189 22.6845 4.29219 22.6949 4.31234C22.6431 4.25189 22.5809 4.20151 22.4981 4.16121C22.5291 4.19144 22.8088 4.20151 22.9642 4.19144C22.871 4.19144 23.1299 4.10076 23.1403 4.07053L22.9642 4.11083C23.0988 4.05038 22.9953 4.02015 22.871 3.98993C22.7467 3.9597 22.612 3.94962 22.6949 3.90932C22.7777 3.90932 23.2542 3.9194 23.4303 3.85894C23.3371 3.85894 23.1817 3.83879 22.8813 3.83879C22.6845 3.83879 22.4773 3.83879 22.2702 3.83879C22.0941 3.83879 21.9491 3.83879 21.8766 3.83879L21.9905 3.81864C21.918 3.81864 21.8455 3.81864 21.7833 3.81864C21.8662 3.81864 21.9801 3.79849 22.1148 3.78841C22.2495 3.78841 22.3945 3.77834 22.5706 3.76826C22.9124 3.76826 23.2956 3.76826 23.5546 3.78841C23.5546 3.78841 23.5546 3.78841 23.565 3.78841C23.565 3.78841 23.5753 3.78841 23.5857 3.78841C23.6271 3.74811 23.7307 3.76826 23.5857 3.71789C23.6789 3.68766 23.8757 3.71789 23.9275 3.74811L23.6685 3.60705C23.3992 3.64736 23.1403 3.5466 22.9331 3.59698C23.1299 3.61713 23.3371 3.64736 23.5546 3.68766C23.4096 3.70781 23.1506 3.70781 22.9331 3.70781C22.7052 3.70781 22.5188 3.69773 22.467 3.65743C22.4981 3.63728 22.612 3.61713 22.7363 3.59698C22.8606 3.57683 22.9849 3.56675 23.0263 3.55668C22.9124 3.55668 22.6638 3.51637 22.7052 3.49622H22.9227C22.902 3.466 22.7777 3.466 22.6638 3.466C22.5602 3.466 22.467 3.466 22.4877 3.39547C22.4566 3.37532 22.5602 3.23426 22.4463 3.27456C22.3945 3.33501 22.208 3.43577 22.0112 3.52645C21.8144 3.61713 21.628 3.68766 21.5347 3.71789C21.5347 3.71789 21.5555 3.67758 21.5762 3.63728C21.5969 3.59698 21.6072 3.5466 21.628 3.5063C21.659 3.45592 21.7523 3.41562 21.8455 3.37532C21.9387 3.33501 22.0527 3.30479 22.0734 3.26449C22.0319 3.28464 21.9387 3.30479 21.918 3.30479C21.9076 3.26449 22.0527 3.23426 21.9284 3.20403C21.7833 3.29471 21.7315 3.11335 21.773 3.26449C21.6487 3.26449 21.7005 3.20403 21.5865 3.15365C21.5762 3.19396 21.4933 3.24433 21.4208 3.28464C21.3483 3.32494 21.2758 3.36524 21.2344 3.36524C21.2551 3.33501 21.2654 3.28464 21.2654 3.26449C21.1308 3.18388 21.0893 3.0932 20.9547 3.02267C20.9547 2.98237 20.9132 2.92192 20.9754 2.88161C20.9443 2.89169 20.9029 2.92192 20.8615 2.91184C20.8407 2.77078 20.9547 2.94207 20.965 2.78086C20.9236 2.85139 20.8097 2.83124 20.7268 2.84131C20.6854 2.96222 20.8407 2.93199 20.9236 2.91184C20.8407 3.06297 20.6543 3.17381 20.4782 3.16373C20.3539 3.14358 20.4782 3.04282 20.4575 3.0529C20.271 2.92192 20.1364 3.21411 20.0328 3.0126C20.0328 2.88161 20.1467 2.82116 20.1675 2.75063C20.271 2.76071 20.2607 2.88161 20.3228 2.91184L20.2814 2.83124C20.3228 2.81108 20.3953 2.83124 20.4161 2.87154C20.4161 2.76071 20.0949 2.67003 19.9914 2.49874C19.9499 2.50882 19.8774 2.51889 19.8774 2.56927L19.9292 2.58942C19.9292 2.69018 19.7738 2.6398 19.8153 2.71033C19.7221 2.7204 19.5874 2.76071 19.5252 2.65995L19.577 2.54912C19.5563 2.57935 19.5978 2.64988 19.6392 2.62972C19.5667 2.64988 19.5978 2.40806 19.4631 2.50882V2.61965C19.3802 2.62972 19.2249 2.69018 19.1627 2.60957C19.1316 2.73048 19.1938 2.60957 19.1627 2.76071C19.2145 2.57935 19.3595 2.90177 19.3906 2.69018C19.3595 2.87154 19.4527 2.81108 19.4527 2.98237C19.4735 2.94207 19.4631 2.90176 19.5252 2.96222C19.5252 2.96222 19.546 2.94207 19.5563 2.94207C19.5563 2.92192 19.5563 2.89169 19.5563 2.87154C19.6392 2.81108 19.7428 2.87154 19.8049 2.87154C19.836 2.91184 19.7635 2.90176 19.7635 2.95214L19.8567 2.92192C19.8153 3.00252 19.8878 3.11335 19.7635 3.10328L19.8464 3.15365C19.8671 3.22418 19.9292 3.28464 19.9914 3.27456C20.0224 3.31486 20.1467 3.24433 20.0742 3.28464L20.24 3.31486V3.33501C20.3643 3.41562 20.5818 3.35517 20.6647 3.57683C20.7268 3.57683 20.7889 3.57683 20.8511 3.64736L20.8304 3.72796C20.8718 3.72796 20.9029 3.76826 20.9443 3.79849C20.965 3.81864 20.965 3.81864 20.9754 3.81864C20.9754 3.81864 20.9858 3.81864 20.9961 3.79849C20.9547 3.88917 20.9443 3.90932 20.965 3.89925C20.9858 3.89925 21.0272 3.8791 21.0168 3.89925L21.1204 3.83879C21.1411 3.84887 21.1826 3.83879 21.2758 3.83879L21.4001 3.78841C21.4726 3.77834 21.483 3.78842 21.4726 3.81864C21.4726 3.83879 21.4415 3.85894 21.4726 3.86902C21.4104 3.86902 21.4104 3.86902 21.4415 3.86902C21.3172 3.90932 21.369 3.90932 21.4622 3.90932C21.5658 3.90932 21.7108 3.90932 21.6798 3.92947C21.6798 3.92947 21.659 3.92947 21.628 3.93955C21.6901 3.93955 21.6487 3.94962 21.5969 3.9597C21.5555 3.9597 21.514 3.9597 21.4726 3.96978C21.5244 3.96978 21.5658 3.96977 21.5865 3.9597C21.5865 3.9597 21.5865 3.96978 21.6176 3.97985H21.4208C21.3379 3.97985 21.5037 3.97985 21.6487 3.97985C21.6694 3.97985 21.7005 3.98993 21.7419 4C21.5865 4 21.5969 4 21.6072 4.01008C21.6072 4.01008 21.6176 4.03023 21.4622 4.02015C21.5969 4.0403 21.483 4.08061 21.7212 4.14106C21.6901 4.14106 21.659 4.14106 21.6798 4.13098C21.6176 4.14106 21.5762 4.15114 21.6176 4.18136L21.4415 4.14106C21.5037 4.17129 21.5555 4.21159 21.5969 4.24182C21.4622 4.23174 21.4104 4.21159 21.3276 4.15114C21.3794 4.20151 21.3794 4.22166 21.3794 4.24182C21.3794 4.26197 21.3794 4.27204 21.4104 4.34257L21.3379 4.29219C21.3172 4.30227 21.3587 4.40302 21.2965 4.3728C21.2551 4.35265 21.2136 4.35265 21.1826 4.36272C21.1618 4.36272 21.1515 4.36272 21.1308 4.38287C21.0997 4.39295 21.0686 4.4131 21.0375 4.43325C20.9132 4.50378 20.7682 4.58438 20.6232 4.58438C20.7889 4.76574 20.4678 4.55416 20.5507 4.71537C20.5093 4.67506 20.4575 4.66499 20.4678 4.60454C20.385 4.71537 20.2503 4.62469 20.2503 4.80605C20.2089 4.76575 20.2296 4.72544 20.1985 4.69522C20.1985 4.71537 20.1882 4.75567 20.1571 4.73552C20.126 4.71537 20.1571 4.68514 20.1571 4.65491C20.0432 4.72544 20.126 4.88665 20.1985 5.02771C20.0949 4.99748 20.0742 5.02771 20.0846 5.13854C20.0328 5.10831 19.9706 5.07809 20.0328 5.01763C19.9914 5.03779 19.7428 5.09824 19.8049 5.20907C19.7738 5.18892 19.7428 5.22922 19.7428 5.24937C19.6495 5.29975 19.6288 5.28967 19.546 5.35013H19.577C19.6185 5.51134 19.5252 5.43073 19.4631 5.48111C19.2352 5.46096 19.4217 5.55164 19.1938 5.54156L19.2559 5.62217C19.3492 5.8136 19.0488 5.60202 18.997 5.72292L19.0591 5.75315C19.0488 5.84383 18.7691 5.59194 18.6966 5.60202C18.6759 5.60202 18.6966 5.57179 18.7069 5.54156C18.5101 5.51134 18.7587 5.66247 18.6655 5.74307C18.6137 5.6927 18.6034 5.58187 18.5205 5.61209C18.4583 5.58187 18.4376 5.91436 18.2719 5.85391C18.3237 5.88413 18.3651 5.92444 18.3444 5.98489C18.3133 6.01512 18.2408 5.99496 18.1787 5.99496C18.1476 5.99496 18.1165 5.99496 18.0958 6.01512C18.0751 6.03527 18.0647 6.05542 18.0751 6.09572C18.0647 6.09572 18.0544 6.07557 18.044 6.06549C18.044 6.11587 17.9819 6.1864 17.9715 6.29723C17.9197 6.13602 17.8886 6.19648 17.8369 6.27708C17.7851 6.35768 17.7229 6.44836 17.7643 6.24685L17.6711 6.31738L17.6918 6.267C17.6504 6.267 17.5883 6.38791 17.5158 6.51889C17.5158 6.49874 17.5468 6.44836 17.5572 6.41814C17.5261 6.38791 17.5158 6.37784 17.4536 6.46852C17.4329 6.48867 17.3915 6.52897 17.3397 6.56927L17.4329 6.40806C17.4018 6.43829 17.4329 6.33753 17.464 6.25693C17.495 6.16625 17.5158 6.1058 17.464 6.11587C17.4743 6.11587 17.495 6.08564 17.5054 6.08564C17.4743 6.08564 17.4743 6.05542 17.495 6.02519C17.5054 5.98489 17.5365 5.94459 17.5572 5.91436C17.5986 5.85391 17.5986 5.83376 17.4122 5.86398C17.3811 5.84383 17.35 5.82368 17.3189 5.80353C17.3086 5.86398 17.2672 5.87406 17.2257 5.86398C17.1843 5.86398 17.1325 5.83376 17.1014 5.86398C17.0807 5.79345 17.205 5.6927 17.2257 5.76323H17.205C17.4018 5.80353 17.2672 5.57179 17.4018 5.56171C17.3811 5.22922 17.464 4.9068 17.464 4.59446L17.3189 4.63476V4.52393C17.3604 4.4937 17.4432 4.48363 17.4329 4.55416C17.5158 4.51386 17.35 4.42318 17.3189 4.42318C17.3707 4.27204 17.495 4.47355 17.495 4.42318V4.36272C17.4847 4.36272 17.464 4.3728 17.464 4.3728C17.4018 4.32242 17.3293 4.32242 17.3397 4.23174C17.3707 4.17129 17.4329 4.20151 17.4329 4.17129C17.4432 4.17129 17.4432 4.17129 17.4329 4.13098V3.98993L17.3189 4.05038C17.2568 3.98993 17.3189 3.9194 17.1843 3.98993C17.3915 3.88917 17.2361 3.47607 17.2982 3.41562C17.205 3.33501 17.205 3.25441 17.205 3.14358C17.1843 3.17381 17.0496 3.19396 17.06 3.10328C17.3397 3.12343 17.1739 2.93199 17.3707 2.85139C17.2464 2.92192 17.3293 2.5995 17.1429 2.71033C17.1636 2.62972 17.2464 2.71033 17.3086 2.6398C17.1946 2.46852 17.3604 2.24685 17.3086 2.02519C17.2672 2.02519 17.2154 2.06549 17.1636 2.02519L17.3397 1.90428C17.3189 1.86398 17.1325 1.87406 17.2464 1.79345C17.2154 1.80353 17.1739 1.82368 17.1532 1.79345C17.3086 1.3602 16.9668 0.926954 17.2775 0.473554C17.205 0.534007 17.205 0.493705 17.1946 0.453402C17.1843 0.483629 17.1014 0.453402 17.06 0.463478L17.1843 0.272042C17.0496 0.241816 17.1636 0.0806065 17.0289 0.0604553L17.06 0.120909C16.9046 0.0503798 16.7182 0.241816 16.5214 0.241816C16.6975 0.32242 16.2728 0.483629 16.5214 0.614611C16.4799 0.644838 16.4592 0.59446 16.4074 0.614611C16.4903 0.644838 16.511 0.68514 16.4799 0.77582H16.4592C16.4903 0.987407 16.4074 1.08816 16.366 1.35013L16.4592 1.32998C16.4489 1.38035 16.4178 1.40051 16.3971 1.42066C16.5524 1.48111 16.3971 1.26952 16.5628 1.3199C16.366 1.40051 16.5835 1.70277 16.3556 1.76323C16.3556 1.84383 16.4696 1.733 16.4696 1.8136L16.4074 1.83376L16.4903 1.85391C16.4799 1.91436 16.4074 1.94459 16.3556 1.94459C16.3556 1.93451 16.3349 1.90428 16.3349 1.89421C16.2624 1.96474 16.366 2.09572 16.3453 2.11587L16.3763 2.03527C16.4489 2.25693 16.3763 2.53904 16.511 2.76071L16.5524 2.74056C16.6457 2.90177 16.511 2.88161 16.5524 3.06297H16.5421C16.5939 3.0932 16.6146 3.14358 16.6146 3.19396C16.5628 3.15365 16.511 3.28464 16.4489 3.22418C16.5524 3.40554 16.5214 3.31486 16.7078 3.42569L16.6353 3.45592C16.7078 3.49622 16.7389 3.49622 16.77 3.5869C16.6975 3.51637 16.656 3.64736 16.5628 3.56675C16.4074 3.76826 16.7492 3.84887 16.5006 3.94962C16.7182 4.03023 16.6146 3.77834 16.656 3.82872C16.7285 3.78841 16.8217 3.89925 16.801 3.9597C16.801 4.02015 16.5317 4.08061 16.5421 4.23174C16.5421 4.21159 16.5214 4.21159 16.5214 4.20151C16.4696 4.26197 16.6042 4.31234 16.5214 4.38287C16.656 4.4131 16.5214 4.47355 16.6871 4.48363L16.6457 4.34257C16.6975 4.42318 16.8839 4.4937 16.801 4.62469C16.77 4.62469 16.7182 4.57431 16.6975 4.55416C16.656 4.59446 16.7285 4.62469 16.6871 4.67507C16.5214 4.67507 16.6457 4.50378 16.511 4.42318C16.4489 4.46348 16.6353 4.58438 16.4592 4.54408C16.6871 4.59446 16.4385 4.69522 16.6146 4.79597H16.511C16.5317 4.80605 16.5732 4.84635 16.5732 4.87658L16.4385 4.8262C16.5524 4.9068 16.3556 4.99748 16.4178 5.07809C16.4074 4.9068 16.5317 5.03779 16.6042 4.95718C16.7492 5.15869 16.3556 5.08816 16.4074 5.32998C16.3971 5.29975 16.4592 5.20907 16.511 5.25945C16.4903 5.30983 16.4592 5.37028 16.4074 5.40051C16.4385 5.55164 16.511 5.37028 16.5732 5.44081C16.4592 5.50126 16.6249 5.51134 16.6664 5.58187H16.5628C16.511 5.7733 16.77 5.62217 16.7078 5.79345L16.5628 5.733L16.5835 5.7733C16.5835 5.78338 16.5939 5.79345 16.6042 5.82368C16.5628 5.82368 16.5317 5.80353 16.4903 5.80353C16.5835 5.94459 16.5628 5.98489 16.5421 6.13602C16.6146 6.08564 16.7182 6.10579 16.7285 6.20655C16.6767 6.30731 16.6353 6.20655 16.656 6.35768C16.5939 6.35768 16.511 6.33753 16.6042 6.2267C16.5732 6.2267 16.5421 6.20655 16.511 6.21663C16.4489 6.33753 16.511 6.46852 16.511 6.53904C16.511 6.50882 16.511 6.47859 16.5317 6.44836C16.5835 6.51889 16.6249 6.56927 16.6767 6.61965C16.6457 6.69018 16.6146 6.6801 16.5835 6.67003C16.5939 6.7204 16.6457 6.72041 16.656 6.78086C16.5732 6.83124 16.5006 6.91184 16.4592 6.81108C16.4903 6.88161 16.5214 6.94207 16.5628 7.00252C16.5317 7.0529 16.4799 7.23426 16.4489 7.23426C16.4281 7.33501 16.4696 7.39547 16.511 7.44585C16.5524 7.49622 16.5939 7.5466 16.5628 7.68766C16.5732 7.67758 16.5939 7.67758 16.6042 7.68766C16.6042 7.77834 16.5835 7.89925 16.5732 8C16.6457 7.97985 16.7389 7.92947 16.8839 7.77834C16.8839 7.82872 16.8839 7.88917 16.8943 7.93955C16.9875 7.86902 16.9771 7.82872 16.9771 7.76826C16.9771 7.70781 17.0082 7.63728 17.1325 7.53653C17.3189 7.37532 17.1325 7.67758 17.1739 7.69773C17.2361 7.61713 17.3189 7.5063 17.3915 7.43577C17.464 7.35517 17.5365 7.30479 17.609 7.33501C17.5572 7.39547 17.5158 7.39547 17.464 7.43577L17.5986 7.41562ZM19.0591 6.50882C19.0488 6.53904 19.0384 6.61965 18.997 6.57935C18.9659 6.46852 19.0073 6.50882 19.0591 6.50882ZM20.5921 5.3602C20.5921 5.40051 20.5611 5.40051 20.5093 5.38035C20.53 5.3602 20.5507 5.35013 20.5921 5.3602ZM20.0328 3.15365C20.0535 3.19396 20.0639 3.21411 20.0328 3.15365V3.15365ZM19.9499 3.06297C19.9292 3.06297 19.9292 3.08313 19.9189 3.0932C19.9396 3.07305 19.9603 3.0932 19.981 3.10328C19.981 3.07305 19.981 3.0529 19.9396 3.0529L19.9499 3.06297ZM17.4847 4.18136L17.464 4.20151C17.4329 4.15114 17.464 4.17129 17.4847 4.18136Z" fill="#752525"/>
<path d="M20.4782 5.58187C20.4678 5.57179 20.4575 5.55164 20.4368 5.54156C20.4368 5.56172 20.4368 5.57179 20.4782 5.58187Z" fill="#752525"/>
<path d="M16.6897 7.67758C16.6897 7.67758 16.678 7.67758 16.6664 7.68766H16.6897V7.67758Z" fill="#752525"/>
<path d="M22.1355 3.22418C22.1562 3.24433 22.1562 3.26448 22.1459 3.28464C22.177 3.27456 22.177 3.25441 22.1355 3.22418Z" fill="#752525"/>
<path d="M19.3388 2.88161L19.4113 2.90176C19.3802 2.88161 19.3802 2.86146 19.3699 2.84131C19.3595 2.86146 19.3492 2.89169 19.3284 2.88161H19.3388Z" fill="#752525"/>
<path d="M19.1627 2.03527C19.142 2.03527 19.142 2.02519 19.1316 2.03527L19.1109 2.07557C19.1524 2.09572 19.1938 2.08565 19.1731 2.04535L19.1627 2.03527Z" fill="#752525"/>
<path d="M19.4631 2.57936C19.5045 2.50883 19.4527 2.50883 19.401 2.48868C19.3181 2.57936 19.401 2.56928 19.4527 2.56928L19.4631 2.57936Z" fill="#752525"/>
<path d="M19.3906 2.47859C19.3802 2.47859 19.3595 2.46851 19.3492 2.45844C19.3181 2.48866 19.3595 2.47859 19.3906 2.47859Z" fill="#752525"/>
<path d="M19.8049 3.03274C19.8049 3.00252 19.7324 3.11335 19.7428 3.08312C19.6599 3.15365 19.9499 3.06297 19.8049 3.03274Z" fill="#752525"/>
<path d="M19.5874 2.32745L19.546 2.41813L19.6081 2.36776L19.5874 2.32745Z" fill="#752525"/>
<path d="M19.8774 2.59949L19.8256 2.52896C19.8256 2.53904 19.8049 2.54911 19.7842 2.54911C19.8256 2.57934 19.8567 2.61964 19.8774 2.59949Z" fill="#752525"/>
<path d="M19.7946 2.54913C19.7738 2.52898 19.7531 2.5189 19.7324 2.52898C19.7428 2.52898 19.7738 2.54913 19.7946 2.54913Z" fill="#752525"/>
<path d="M19.691 2.3577L19.7013 2.38792L19.7428 2.42823L19.691 2.3577Z" fill="#752525"/>
<path d="M20.6232 3.05291L20.7164 3.07306C20.7372 3.04283 20.7268 3.0126 20.6957 3.0126C20.6647 3.02268 20.6336 3.0126 20.6232 3.05291Z" fill="#752525"/>
<path d="M20.53 2.6801C20.53 2.71033 20.53 2.73048 20.53 2.7607L20.5921 2.64987L20.53 2.67002V2.6801Z" fill="#752525"/>
<path d="M20.7682 2.78086C20.789 2.75063 20.9236 2.75063 20.8304 2.71033C20.8097 2.74055 20.7164 2.71033 20.7682 2.78086Z" fill="#752525"/>
<path d="M21.9284 3.50629H21.9076L21.6798 3.62719C21.7626 3.58689 21.8455 3.54659 21.9284 3.50629Z" fill="#752525"/>
<path d="M23.6375 4.01008C23.8964 3.9194 23.4096 3.98993 23.6685 3.90933C23.596 3.88918 23.4614 3.96978 23.3992 3.94963C23.4199 4.00001 23.3164 4.02016 23.6271 4.00001L23.6375 4.01008Z" fill="#752525"/>
<path d="M23.4122 3.9597C23.4122 3.9597 23.4005 3.94962 23.3889 3.93954C23.3889 3.94962 23.4005 3.9597 23.4122 3.9597Z" fill="#752525"/>
<path d="M17.4018 0.171293L17.4432 0.11084L17.3707 0.151142L17.4018 0.171293Z" fill="#752525"/>
<path d="M17.2361 0.0604486L17.3707 0.0402975L17.2464 0.0100708C17.2464 0.0201464 17.2672 0.0503731 17.2464 0.0705242L17.2361 0.0604486Z" fill="#752525"/>
<path d="M19.3595 6.63979V6.60957C19.3181 6.58941 19.3077 6.58941 19.2766 6.60957L19.3595 6.64987V6.63979Z" fill="#752525"/>
<path d="M18.3858 7.08312H18.4066C18.3755 7.04281 18.3548 7.01259 18.3237 6.98236L18.3755 7.08312H18.3858Z" fill="#752525"/>
<path d="M17.1325 7.97985C17.1843 7.9597 17.2568 7.8791 17.3086 7.85895C17.1843 7.9597 17.1946 7.76827 17.1325 7.97985Z" fill="#752525"/>
</g>
<defs>
<clipPath id="clip0_3238_386">
<rect width="24" height="8" fill="white"/>
</clipPath>
</defs>
</svg>
