<svg width="4" height="352" viewBox="0 0 4 352" fill="none" xmlns="http://www.w3.org/2000/svg">
<g clip-path="url(#clip0_2803_931)">
<path d="M3.24138 351.587C3.24138 352.103 3.44828 351.897 3.44828 352C3.44828 351.122 3.17242 351.587 3.24138 351.587Z" fill="#4D403C" fill-opacity="0.7"/>
<path d="M2.75863 343.018L2.82759 343.173L2.6207 341.934L2.75863 343.018Z" fill="#4D403C" fill-opacity="0.7"/>
<path d="M2.75863 335.017C2.4138 335.791 2.75863 337.908 2.68966 339.353V339.611C2.6207 339.611 2.89656 340.231 2.89656 340.231C2.89656 338.475 2.6207 336.256 2.75863 335.017Z" fill="#4D403C" fill-opacity="0.7"/>
<path d="M3.58621 330.732C3.44827 330.991 3.44827 329.803 3.58621 331.713C3.58621 331.61 3.58621 331.61 3.58621 331.558C3.58621 331.403 3.58621 331.145 3.58621 330.732Z" fill="#4D403C" fill-opacity="0.7"/>
<path d="M3.58621 331.558C3.58621 332.384 3.72414 330.99 3.58621 331.558V331.558Z" fill="#4D403C" fill-opacity="0.7"/>
<path d="M3.44827 327.635L3.5862 328.771C3.65517 328.513 3.72413 327.532 3.72413 327.893C3.65517 326.757 3.5862 326.964 3.44827 327.635Z" fill="#4D403C" fill-opacity="0.7"/>
<path d="M3.17241 326.603V327.171C3.24137 327.067 3.24137 326.913 3.17241 326.603Z" fill="#4D403C" fill-opacity="0.7"/>
<path d="M3.37931 328.41L3.24138 327.171C3.24138 327.326 3.03449 327.326 3.24138 327.738C3.10345 327.635 3.24138 327.893 3.31035 328.41H3.37931Z" fill="#4D403C" fill-opacity="0.7"/>
<path d="M3.31035 329.081C3.24138 329.7 3.17242 330.526 3.03448 329.39C3.03448 331.507 3.37931 331.197 3.31035 329.081Z" fill="#4D403C" fill-opacity="0.7"/>
<path d="M2.41379 334.604L2.27586 335.43L2.41379 336.152C2.41379 335.791 2.48276 334.552 2.41379 334.604Z" fill="#4D403C" fill-opacity="0.7"/>
<path d="M3.65517 320.718C3.5862 320.666 3.44827 321.079 3.3793 321.183V322.009C3.51723 321.596 3.5862 320.77 3.65517 320.718Z" fill="#4D403C" fill-opacity="0.7"/>
<path d="M3.37931 321.183L3.24138 319.944C3.24138 321.028 3.24138 321.234 3.37931 321.183Z" fill="#4D403C" fill-opacity="0.7"/>
<path d="M2.82759 326.396L3.10345 328.41L2.75862 325.983L2.82759 326.396Z" fill="#4D403C" fill-opacity="0.7"/>
<path d="M3.65518 316.02L3.86207 316.692L3.58621 315.453L3.65518 316.02Z" fill="#4D403C" fill-opacity="0.7"/>
<path d="M3.65517 312.872C3.7931 313.388 3.93103 312.149 3.99999 312.717C3.99999 311.891 3.86206 311.168 3.72413 310.497C3.72413 311.168 3.72413 311.942 3.65517 312.872Z" fill="#4D403C" fill-opacity="0.7"/>
<path d="M3.51724 309.413C3.51724 309.774 3.58621 310.136 3.65517 310.497C3.65517 310.136 3.58621 309.774 3.51724 309.413Z" fill="#4D403C" fill-opacity="0.7"/>
<path d="M3.24138 317.827C3.24138 317.724 3.37931 317.569 3.44828 316.846L3.24138 317.311C3.24138 317.466 3.24138 317.621 3.24138 317.776V317.827Z" fill="#4D403C" fill-opacity="0.7"/>
<path d="M2.96552 323.144C2.82759 322.421 2.68966 320.924 2.55173 322.37C2.68966 322.886 2.82759 322.06 2.96552 323.144Z" fill="#4D403C" fill-opacity="0.7"/>
<path d="M2.96552 318.55V319.84C2.96552 319.84 3.03448 319.582 3.10345 319.944L2.96552 318.55Z" fill="#4D403C" fill-opacity="0.7"/>
<path d="M2.89655 317.93L2.96551 318.55L3.03448 318.085L2.89655 317.93Z" fill="#4D403C" fill-opacity="0.7"/>
<path d="M3.31034 311.633C3.24137 311.065 3.17241 310.445 3.17241 309.774C3.17241 310.497 3.17241 311.271 3.17241 312.046C3.24137 312.149 3.37931 312.459 3.37931 311.684L3.31034 311.633Z" fill="#4D403C" fill-opacity="0.7"/>
<path d="M3.10345 312.149C3.10345 312.717 3.10345 313.027 3.17242 313.388C3.17242 312.975 3.17242 312.51 3.17242 312.046C3.17242 312.046 3.17242 311.994 3.17242 312.149H3.10345Z" fill="#4D403C" fill-opacity="0.7"/>
<path d="M3.44828 307.503C3.44828 307.813 3.37931 308.123 3.31035 308.484C3.37931 308.174 3.51724 307.606 3.44828 307.503Z" fill="#4D403C" fill-opacity="0.7"/>
<path d="M3.31034 314.111C3.31034 313.801 3.24137 313.594 3.17241 313.388C3.17241 313.749 3.17241 314.059 3.24137 314.317C3.24137 314.266 3.24137 314.162 3.24137 314.111H3.31034Z" fill="#4D403C" fill-opacity="0.7"/>
<path d="M1.79311 300.844C2 300.947 2.2069 302.444 2 303.683C2.13793 304.922 2.82759 304.096 3.17242 303.012C3.10345 303.012 3.03449 303.012 2.89655 301.67C2.75862 302.134 2.62069 304.509 2.48276 303.425C2.34483 301.722 2.55173 302.031 2.68966 301.205C2.4138 301.928 2.34483 299.037 1.93104 299.399L2.06897 300.896C2.06897 300.896 1.93104 300.379 1.86207 300.792L1.79311 300.844Z" fill="#4D403C" fill-opacity="0.7"/>
<path d="M3.17241 305.49V306.006C3.17241 305.387 3.31034 304.974 3.44827 304.148C3.37931 303.27 3.24137 303.064 3.17241 303.012V305.645V305.438V305.49Z" fill="#4D403C" fill-opacity="0.7"/>
<path d="M3.17242 308.381C2.96552 307.968 2.82759 306.677 2.6207 307.451C2.6207 309 2.82759 308.535 2.89656 309.465C2.89656 306.935 3.03449 310.187 3.17242 308.381C3.17242 308.897 3.17242 309.31 3.17242 309.723C3.17242 309.258 3.17242 308.845 3.24139 308.432C3.24139 308.432 3.24139 308.432 3.24139 308.484C3.24139 308.587 3.24139 308.639 3.24139 308.484C3.24139 308.484 3.24139 308.484 3.24139 308.432C3.24139 308.432 3.24139 308.381 3.17242 308.329C3.17242 307.606 3.17242 308.226 3.24139 308.432L3.10346 305.903C3.10346 306.419 3.10346 307.09 3.10346 308.277L3.17242 308.381Z" fill="#4D403C" fill-opacity="0.7"/>
<path d="M2.2069 319.995C2.2069 320.202 2.34483 320.357 2.27587 320.925C2.27587 321.441 2.13794 320.925 2.06897 320.925C2.06897 321.286 2.2069 322.163 2.34483 321.079V320.925C2.34483 319.892 2.68966 318.602 2.68966 318.808C2.48276 319.118 2.34483 319.376 2.13794 320.047L2.2069 319.995Z" fill="#4D403C" fill-opacity="0.7"/>
<path d="M2.62069 314.111L2.48276 311.994L2.27586 313.078H2.41379C2.41379 314.214 2.48276 313.956 2.62069 314.111Z" fill="#4D403C" fill-opacity="0.7"/>
<path d="M3.31034 302.651L3.58621 302.961L3.24138 301.722L3.31034 302.651Z" fill="#4D403C" fill-opacity="0.7"/>
<path d="M3.31035 299.967L3.51724 300.07L3.37931 299.347L3.31035 299.967Z" fill="#4D403C" fill-opacity="0.7"/>
<path d="M3.31035 232.963C3.51725 232.086 3.79311 231.053 3.58621 231.157L3.37931 231.415C3.37931 232.034 3.37931 232.499 3.37931 232.912L3.31035 232.963Z" fill="#4D403C" fill-opacity="0.7"/>
<path d="M1.93103 187.124C1.93103 187.228 1.93103 187.279 1.93103 187.382C2 187.589 2.06896 187.795 2.13793 188.002C2.13793 187.744 2.06896 187.434 2 187.124H1.93103Z" fill="#4D403C" fill-opacity="0.7"/>
<path d="M1.03448 186.453L1.17242 185.266C1.17242 185.524 1.10345 185.937 1.03448 186.453Z" fill="#4D403C" fill-opacity="0.7"/>
<path d="M0.55173 121.669L0.344833 120.947C0.344833 122.082 0.482764 121.566 0.55173 121.669Z" fill="#4D403C" fill-opacity="0.7"/>
<path d="M3.24138 272.04C3.31035 271.266 3.37931 270.646 3.37931 270.13C3.24138 271.059 3.03449 271.833 3.24138 272.04Z" fill="#4D403C" fill-opacity="0.7"/>
<path d="M3.17242 147.789C3.17242 147.428 3.10345 147.273 3.03448 147.273C3.03448 147.686 3.10345 147.893 3.17242 147.789Z" fill="#4D403C" fill-opacity="0.7"/>
<path d="M3.3793 267.859C3.3793 268.014 3.3793 268.117 3.3793 268.272C3.3793 268.839 3.3793 269.407 3.3793 270.078C3.44827 269.407 3.51723 268.581 3.3793 267.859Z" fill="#4D403C" fill-opacity="0.7"/>
<path d="M2.55172 291.81C2.55172 291.707 2.55172 291.604 2.41379 291.604C2.41379 291.604 2.48275 291.707 2.55172 291.81Z" fill="#4D403C" fill-opacity="0.7"/>
<path d="M1.31035 80.6311V80.5279C1.24138 79.9601 1.24138 80.2182 1.31035 80.6311Z" fill="#4D403C" fill-opacity="0.7"/>
<path d="M0.758621 215.825C1.03448 216.703 1.03448 217.219 0.965518 217.89L1.58621 217.219L0.758621 215.825Z" fill="#4D403C" fill-opacity="0.7"/>
<path d="M0.689655 135.349L0.482759 136.794C0.137931 135.039 0.275862 133.749 0 135.142C0.689655 135.349 0.0689656 140.821 0.758621 141.027L0.62069 142.008C0.62069 141.75 0.62069 141.698 0.62069 141.44C0.275862 143.299 1.10345 142.834 1.03448 145.26C1.03448 146.086 0.896552 146.705 0.827586 146.138L1.03448 147.996C1.03448 148.564 0.896552 148.409 0.896552 147.841V150.68C1.03448 151.093 1.17241 152.022 1.24138 152.435C1.17241 153.158 1.17241 152.074 1.10345 152.281L1.24138 153.881C1.03448 154.5 0.896552 153.21 0.896552 152.126C0.206897 153.623 1.10345 153.416 0.689655 156.617V155.12C0.206897 156.1 0.344828 157.236 0.0689655 158.94C0.206897 158.527 0.689655 155.584 0.896552 157.288C0.896552 157.752 0.827586 158.423 0.896552 159.353C0.62069 159.353 0.689655 160.282 0.689655 161.417H0.344828C0.413793 162.553 0.62069 162.45 0.758621 163.172C0.758621 164.515 0.482759 164.824 0.275862 165.134C0.275862 167.302 0.689655 163.637 0.758621 166.218C0.62069 168.025 0.758621 169.315 0.965517 171.483C0.827586 172.774 0.758621 171.277 0.689655 171.741L0.965517 172.877C0.965517 173.135 0.896552 173.084 0.827586 173.032C0.896552 173.961 1.17241 173.135 1.24138 174.581C1.58621 174.994 0.689655 177.626 1.10345 179.484C1.03448 179.949 0.896552 179.278 0.758621 179.381C1.03448 181.911 0.965517 181.549 1.31034 183.614L1.10345 185.369C1.37931 184.079 1.65517 185.731 1.86207 187.176C2 186.711 2.06897 186.298 2.13793 186.04L2.34483 188.363C2.34483 188.621 2.2069 188.363 2.06897 188.053C2.06897 188.208 2.06897 188.363 2.13793 188.466C2 189.292 1.7931 188.879 1.65517 188.26C1.65517 188.002 1.7931 187.692 1.86207 187.434C1.65517 186.866 1.44828 186.298 1.24138 186.453C1.24138 186.608 1.31034 186.918 1.31034 187.228C1.31034 187.073 1.24138 186.969 1.17241 187.073C1.17241 187.176 1.17241 187.382 1.31034 187.795L0.965517 188.312L1.10345 188.415L0.896552 191.46C1.24138 193.628 1.7931 195.538 2 198.997C1.72414 198.119 1.58621 198.791 1.24138 198.791C1.58621 197.861 1.10345 196.106 1.17241 194.351C1.17241 195.28 0.965517 195.074 0.896552 194.867L1.17241 198.068C0.896552 198.016 0.965517 198.739 0.896552 199.565C1.44828 198.945 1.24138 201.939 1.37931 203.23C1.17241 203.333 1.03448 203.023 1.10345 201.423C0.689655 203.178 1.72414 203.694 1.37931 205.398C1.37931 205.037 1.37931 204.779 1.37931 204.675C1.51724 205.604 1.37931 207.773 1.24138 207.256V206.895C1.24138 209.476 1.24138 214.69 1.65517 215.103C1.65517 215.103 1.10345 214.741 1.03448 214.586L2.48276 219.181C2.13793 218.768 1.17241 220.316 0.965517 218.2C0.965517 218.819 0.827586 219.594 0.965517 220.832C0.965517 220.42 1.51724 219.8 1.51724 220.368C1.10345 221.917 1.31034 221.452 0.965517 223.362C1.03448 222.742 1.65517 223.414 1.58621 224.394C1.51724 224.239 1.03448 224.498 0.965517 224.136L1.51724 226.614C1.37931 225.995 1.03448 226.511 0.827586 227.079C0.965517 226.82 0.827586 229.195 0.827586 229.866L0.965517 228.834C0.896552 231.621 1.7931 231.57 1.72414 234.357C1.58621 234.047 0.965517 233.531 0.896552 234.925C1.17241 235.544 2.34483 237.764 2.55172 240.19L2.41379 240.655L2.62069 242.513C2.13793 241.326 1.24138 238.074 0.896552 236.319C0.758621 237.351 0.689655 236.628 0.689655 238.177C0.551724 238.745 0.413793 237.351 0.413793 236.886V240.5C0.689655 240.345 0.689655 243.287 0.965517 243.133L0.62069 239.209C0.965517 239.055 1.58621 241.481 1.51724 244.062C1.37931 244.733 0.896552 243.597 0.758621 243.649C0.896552 243.958 0.965517 246.075 0.896552 246.333L0.689655 245.249C0.551724 246.694 1.17241 247.572 0.827586 249.275C0.827586 249.843 0.413793 251.03 0.551724 251.134C0.965517 250.153 2.2069 249.998 2.48276 250.617C2.48276 250.824 2.06897 253.715 1.93103 254.386C1.58621 255.367 1.17241 252.94 0.896552 253.766C0.965517 253.766 1.10345 254.334 1.17241 254.541C1.10345 255.16 0.896552 254.283 0.896552 255.625C1.24138 255.831 0.896552 258.361 1.17241 256.244C1.24138 257.586 1.10345 257.638 1.17241 259.186C1.37931 258.67 1.93103 260.58 2.06897 261.922C2 261.819 1.86207 262.129 1.7931 262.284C1.7931 265.02 1.58621 266.465 1.58621 268.994C1.51724 269.252 1.37931 270.44 1.24138 269.924C1.24138 270.285 1.44828 270.646 1.44828 271.421C1.17241 272.918 1.44828 269.665 1.03448 270.853C1.24138 270.956 1.31034 272.866 1.44828 274.002C1.7931 273.64 1.44828 271.421 1.44828 270.337C1.86207 270.337 2.34483 272.246 2.55172 274.931C2.68966 277.047 2.27586 275.86 2.34483 276.221C2.27586 280.144 3.10345 279.577 2.75862 282.88C2.48276 284.171 2.2069 282.932 2 283.242C1.86207 281.538 2.2069 280.609 2.13793 279.473L2 280.919C1.93103 280.351 1.86207 279.215 1.93103 278.596C1.65517 279.68 1.93103 285.255 1.65517 288.3C1.72414 288.817 1.86207 289.797 1.93103 289.333V288.352C2.13793 287.475 2.2069 290.159 2.27586 288.972C2.41379 290.262 2.68966 291.707 2.55172 293.514L2.2069 293.875C2.27586 293.875 2.41379 292.688 2.27586 292.172C2.41379 292.946 1.86207 294.96 2.27586 295.785L2.48276 294.495C2.62069 295.785 2.96552 297.386 2.89655 298.986C3.24138 298.263 2.89655 298.625 3.24138 297.489C2.75862 298.47 3.24138 293.359 2.75862 294.96C3.17241 293.772 2.96552 292.946 3.31035 291.398C3.17241 291.398 3.10345 291.966 3.17241 290.572C3.17241 290.52 3.10345 290.365 3.10345 290.262C3.10345 290.262 3.10345 290.21 3.10345 290.159C3.10345 290.159 3.10345 290.159 3.10345 290.21C3.10345 290.159 3.10345 290.159 3.10345 290.21C3.10345 290.52 3.03448 290.778 2.96552 290.881C2.75862 290.21 2.75862 288.042 2.62069 287.32C2.62069 286.494 2.75862 287.681 2.82759 287.216L2.62069 286.132C2.82759 286.029 3.03448 284.016 3.17241 285.874V284.171C3.31034 283.19 3.37931 281.796 3.24138 280.919C3.24138 280.093 2.96552 278.906 3.17241 279.577L3.03448 276.892C3.03448 274.208 2.62069 271.421 3.03448 268.427C3.03448 267.549 2.89655 266.62 3.03448 265.123L3.24138 264.813C3.17241 263.677 3.44828 261.406 3.24138 260.89C3.7931 259.651 3.37931 255.367 3.44828 253.353H3.17241C3.17241 251.908 3.17241 250.566 3.03448 248.862L2.82759 248.966C2.62069 247.469 2.96552 245.146 2.96552 242.823C3.03448 242.978 2.96552 243.597 2.96552 244.01C3.51724 241.223 2.55172 238.125 2.96552 235.596C2.89655 234.976 2.96552 234.512 2.96552 234.047C2.96552 234.099 2.96552 234.151 2.96552 234.202C2.96552 234.151 2.96552 234.047 2.96552 233.944C2.96552 233.686 3.03448 233.376 3.10345 233.067C3.10345 233.325 3.03448 233.583 2.96552 233.789C2.96552 233.325 2.96552 232.55 2.89655 231.828L3.17241 231.518C3.17241 231.466 3.17241 231.415 3.17241 231.363C3.24138 230.64 3.03448 230.795 2.89655 231.157C2.89655 230.795 2.82759 230.434 2.75862 230.176C3.17241 229.608 2.62069 228.266 3.03448 227.492C2.82759 227.027 2.89655 223.878 2.41379 223.465C2.41379 223.465 2.48276 223.207 2.48276 223.62C2.48276 222.794 2.55172 222.02 2.48276 221.297L2.82759 220.936L2.41379 219.181C2.62069 218.097 2.68966 217.684 2.96552 218.716C2.62069 216.135 2.82759 216.651 2.48276 214.483L2.68966 214.586C2.68966 213.812 2.41379 212.573 2.55172 212.109C2.96552 210.354 2.55172 203.488 2.96552 198.997C2.34483 199.875 3.24138 196.932 2.75862 196.726C2.89655 196.468 2.96552 195.848 3.10345 196.571C2.96552 194.3 3.31035 193.164 2.96552 191.564C3.10345 191.306 3.17241 192.028 3.24138 191.822C3.24138 191.615 3.10345 191.099 3.24138 190.841C3.31034 190.583 3.37931 191.151 3.44828 191.512C3.44828 189.189 2.96552 188.931 2.55172 188.776C2.75862 187.589 2.68966 187.021 2.48276 186.144C2.62069 185.731 2.75862 185.059 2.82759 186.505C2.82759 185.679 3.03448 181.549 2.68966 181.446C2.75862 181.188 2.68966 180.31 2.68966 180.104C2.68966 178.297 2.68966 178.091 2.68966 176.336V176.852C2.2069 176.129 2.55172 175.355 2.48276 173.909C2.75862 170.606 2.34483 172.516 2.68966 169.264L2.41379 169.419C1.86207 169.109 2.75862 166.528 2.55172 164.618L2.41379 165.289C2.2069 164.256 3.17241 162.398 3.17241 161.366C3.17241 161.159 3.24138 161.727 3.31035 162.037C3.65517 159.301 2.96552 161.675 2.89655 159.662C3.10345 159.301 3.31034 160.127 3.37931 158.785C3.51724 158.114 2.82759 154.81 3.17241 152.952C3.03448 153.365 2.89655 153.777 2.82759 152.848C2.82759 151.403 3.31034 148.925 2.89655 147.635C2.89655 147.428 2.96552 147.377 3.03448 147.377C2.89655 146.293 2.82759 143.763 2.62069 143.092C3.44828 142.06 2.2069 136.227 2.96552 136.227V132.82V132.923C2.96552 130.755 2.82759 129.98 2.62069 129.206C2.62069 128.69 2.75862 129.051 2.75862 129.103C2.89655 125.902 2.89655 125.593 2.48276 122.96L2.75862 122.702C2.62069 121.979 3.17241 118.108 2.82759 115.011C2.82759 115.011 2.89655 115.114 2.96552 115.372C2.68966 111.862 3.65517 106.958 2.75862 105.667L2.55172 103.344C2.48276 106.338 2.13793 102.88 2 104.119C2 102.931 2.27586 101.073 2.34483 102.518V102.725C2.75862 103.241 2.48276 99.0082 2.82759 99.0598C2.82759 93.175 3.10345 87.3936 3.10345 81.9218L2.75862 82.5412V80.6313C2.89655 80.1151 3.10345 79.9602 3.03448 81.3023C3.24138 80.5797 2.82759 78.9794 2.75862 78.9794C2.89655 76.2952 3.17241 80.0118 3.24138 79.1859V78.0503L3.17241 78.3084C3.03448 77.3792 2.82759 77.3276 2.89655 75.6757C2.96552 74.6433 3.10345 75.1595 3.17241 74.7466C3.17241 74.7466 3.17241 74.5917 3.17241 74.1271V71.7009L2.89655 72.6817C2.75862 71.5977 2.89655 70.4104 2.55172 71.4945C3.10345 69.8426 2.75862 62.4609 2.89655 61.4285C2.68966 59.9315 2.68966 58.4345 2.68966 56.5761C2.68966 57.0407 2.27586 57.2988 2.34483 55.6986C3.03448 56.2664 2.62069 52.8079 3.17241 51.5173C2.82759 52.653 3.10345 46.9747 2.62069 48.7815C2.62069 47.4393 2.89655 48.6782 3.03448 47.6974C2.75862 44.5486 3.24138 40.7287 3.10345 36.8571C3.03448 36.8055 2.89655 37.4249 2.75862 36.599L3.24138 34.5342C3.24138 33.7599 2.68966 33.8115 3.03448 32.4178C2.96552 32.6242 2.82759 32.934 2.82759 32.4178C3.24138 24.7779 2.48276 16.8284 3.31035 9.03369C3.10345 10.0661 3.10345 9.39503 3.10345 8.56911C3.10345 9.08531 2.89655 8.5691 2.75862 8.67235L3.10345 5.42026C2.75862 4.85243 3.10345 1.96169 2.75862 1.60034V2.63275C2.41379 1.239 1.93103 4.54271 1.44828 4.33623C1.86207 5.88484 0.827586 8.36262 1.44828 10.892C1.37931 11.4599 1.31034 10.4274 1.17241 10.7372C1.37931 11.3566 1.44828 12.1309 1.31034 13.5763V13.4214C1.31034 17.4478 1.10345 19.1513 0.965517 23.6423L1.24138 23.3326C1.24138 24.3134 1.10345 24.5198 1.10345 24.9328C1.44828 26.0168 1.10345 22.1969 1.51724 23.2293C1.03448 24.5198 1.51724 30.0432 0.965517 30.9208C0.965517 32.4178 1.24138 30.5078 1.24138 31.9532L1.10345 32.3661L1.31034 32.7275C1.31034 33.7083 1.10345 34.1729 0.965517 34.2245C0.965517 33.9664 0.965517 33.5534 0.965517 33.2953C0.758621 34.5342 0.965517 36.8571 0.965517 37.2701V35.8247C1.17241 39.9027 0.965517 44.8583 1.31034 48.7815L1.44828 48.4717C1.65517 51.4657 1.31034 50.8463 1.44828 54.15V54.0467C1.51724 54.7178 1.58621 55.5954 1.58621 56.4729C1.44828 55.647 1.31034 58.0215 1.17241 56.9375C1.37931 60.1896 1.37931 58.5377 1.7931 60.7058L1.58621 61.222C1.7931 61.9447 1.86207 61.9963 1.93103 63.6482C1.7931 62.306 1.65517 64.6806 1.44828 63.1836C1.03448 66.6421 1.86207 68.294 1.24138 69.8942C1.7931 71.4945 1.51724 66.9002 1.65517 67.7778C1.86207 67.0551 2.06897 69.0683 2 70.1523C2 71.2364 1.31034 72.0107 1.31034 74.7982C1.31034 74.5401 1.31034 74.4884 1.31034 74.2303C1.17241 75.2628 1.51724 76.2435 1.31034 77.534C1.65517 78.2567 1.31034 79.1859 1.72414 79.3924V76.863C1.72414 78.3084 2.2069 79.6505 2 82.025C1.93103 81.8186 1.7931 81.1475 1.72414 80.6313C1.58621 81.3023 1.7931 81.9734 1.72414 82.6961C1.31034 82.4896 1.65517 79.5989 1.31034 78.0503C1.10345 78.7729 1.58621 80.9926 1.17241 80.2183C1.72414 81.354 1.10345 82.9542 1.51724 84.8125L1.24138 84.7093C1.24138 85.019 1.37931 85.6385 1.37931 86.1547L1.03448 85.1739C1.31034 86.6709 0.827586 88.1162 0.965517 89.5616C0.965517 86.516 1.24138 88.8906 1.44828 87.6C1.7931 91.3683 0.827586 89.7681 0.896552 93.9494C0.896552 93.3815 1.03448 91.8329 1.17241 92.7105C1.17241 93.5364 1.03448 94.5688 0.896552 95.085C0.896552 97.8725 1.17241 94.6721 1.31034 95.8593C1.03448 96.7885 1.44828 97.2531 1.51724 98.4403H1.24138C1.10345 101.641 1.7931 99.2663 1.58621 102.157L1.24138 100.97V102.467C1.31034 102.467 1.03448 102.157 1.03448 102.157C1.24138 103.757 1.17241 104.273 1.10345 105.874C1.31034 105.512 1.58621 106.08 1.58621 107.474C1.44828 108.455 1.37931 106.958 1.37931 108.919C1.24138 108.455 1.03448 107.99 1.24138 107.113C1.17241 107.009 1.10345 106.648 1.03448 106.596C0.896552 107.629 1.03448 109.177 1.03448 109.9C1.03448 109.642 1.03448 109.281 1.03448 109.126L1.37931 112.017C1.31034 112.481 1.24138 112.12 1.10345 111.758C1.10345 112.326 1.24138 112.739 1.24138 113.617C1.03448 113.41 0.827586 113.462 0.758621 112.223L0.965517 114.959C0.896552 115.165 0.689655 116.353 0.62069 115.991C0.482759 117.54 1.03448 119.76 0.827586 121.773C0.827586 121.876 0.896552 122.083 0.965517 122.495C0.965517 124.405 0.689655 126.109 0.965517 128.329L0.62069 129.619C0.689655 131.374 1.10345 127.864 1.24138 130.806C1.37931 132.871 0.965517 131.581 0.827586 132.303C1.03448 133.336 1.37931 135.143 1.10345 137.052C1.10345 136.433 1.10345 135.917 1.10345 135.349H0.689655ZM0.827586 157.133C0.827586 156.72 0.62069 155.894 0.827586 155.584C1.10345 156.049 0.965517 156.462 0.827586 157.133ZM1.44828 190.273C1.37931 189.963 1.44828 189.499 1.44828 188.931C1.44828 189.344 1.44828 189.757 1.44828 190.273ZM3.17241 282.622C3.17241 282.003 3.24138 281.693 3.17241 282.622V282.622ZM3.03448 284.584C3.03448 284.79 3.10345 284.79 3.17241 284.687C3.17241 284.532 3.17241 284.119 3.17241 283.603C3.17241 283.758 3.03448 284.016 3.17241 284.584H3.03448ZM2.96552 74.4368V74.7982C2.82759 73.9206 2.89655 74.1787 2.96552 74.4368Z" fill="#4D403C" fill-opacity="0.7"/>
<path d="M1.10345 186.556C1.10345 186.453 1.17242 186.401 1.24139 186.35C1.24139 186.195 1.17242 186.195 1.10345 186.556Z" fill="#4D403C" fill-opacity="0.7"/>
<path d="M0.965515 254.282C0.965515 253.869 1.03448 253.663 1.10345 253.508C1.10345 253.508 0.965515 253.663 0.965515 254.282Z" fill="#4D403C" fill-opacity="0.7"/>
<path d="M3.51723 294.959V293.72C3.51723 294.34 3.3793 294.546 3.3793 294.856C3.3793 294.856 3.51723 294.598 3.51723 294.959Z" fill="#4D403C" fill-opacity="0.7"/>
<path d="M2 305.851C2 306.058 2 306.264 2 306.419H2.13793C2.13793 305.593 2.06897 305.025 2 305.851Z" fill="#4D403C" fill-opacity="0.7"/>
<path d="M2.68966 296.147C2.48276 296.25 2.55173 297.024 2.62069 297.902C2.62069 297.85 2.62069 297.799 2.62069 297.747C2.89655 298.005 2.82759 297.076 2.68966 296.147Z" fill="#4D403C" fill-opacity="0.7"/>
<path d="M2.6207 298.108C2.6207 298.366 2.6207 298.676 2.6207 298.934C2.75863 299.037 2.6207 298.624 2.6207 298.108Z" fill="#4D403C" fill-opacity="0.7"/>
<path d="M3.24139 287.061C3.24139 287.474 3.51725 287.319 3.44828 287.578C3.72414 288.042 3.10345 284.79 3.24139 287.061Z" fill="#4D403C" fill-opacity="0.7"/>
<path d="M2 296.818L2.27586 296.508L2.06897 296.043L2 296.818Z" fill="#4D403C" fill-opacity="0.7"/>
<path d="M1.93103 294.908L2 294.495V293.514L1.93103 294.908Z" fill="#4D403C" fill-opacity="0.7"/>
<path d="M2.2069 274.828V273.279C2.06897 273.124 2 273.537 2 274.105C2 274.466 2.06897 275.034 2.2069 274.828Z" fill="#4D403C" fill-opacity="0.7"/>
<path d="M1.51723 279.473C1.51723 279.06 1.65517 279.009 1.72413 278.802H1.3793L1.51723 279.473Z" fill="#4D403C" fill-opacity="0.7"/>
<path d="M1.44827 274.982C1.3793 274.827 1.17241 272.762 1.24137 274.724C1.31034 274.879 1.3793 276.428 1.44827 274.982Z" fill="#4D403C" fill-opacity="0.7"/>
<path d="M1.86208 251.908V252.321L2.4138 252.269L1.86208 251.908Z" fill="#4D403C" fill-opacity="0.7"/>
<path d="M0.620693 231.569C0.482762 233.376 0.96552 231.982 0.758624 233.634C0.896555 234.047 0.896555 232.292 0.96552 232.757C0.827589 231.673 0.96552 231.105 0.551727 231.569H0.620693Z" fill="#4D403C" fill-opacity="0.7"/>
<path d="M1.03448 232.757C1.03448 232.911 1.03448 233.118 1.10345 233.324C1.10345 233.015 1.10345 232.86 1.03448 232.757Z" fill="#4D403C" fill-opacity="0.7"/>
<path d="M3.24137 3.20035L3.37931 2.0647L3.17241 2.78738L3.24137 3.20035Z" fill="#4D403C" fill-opacity="0.7"/>
<path d="M2.89655 0.980789L3.24137 0.722687L2.96551 0C2.96551 0.258102 2.96551 0.774307 2.96551 0.980789H2.89655Z" fill="#4D403C" fill-opacity="0.7"/>
<path d="M0.206894 160.385V160.488C0.344825 160.333 0.41379 160.024 0.41379 159.507L0.206894 160.436V160.385Z" fill="#4D403C" fill-opacity="0.7"/>
<path d="M0.413788 144.589V144.847L0.758615 144.331L0.413788 144.589Z" fill="#4D403C" fill-opacity="0.7"/>
<path d="M0 131.323C0 131.839 0 132.51 0 133.026C0 131.839 0.344828 131.168 0 131.323Z" fill="#4D403C" fill-opacity="0.7"/>
</g>
<defs>
<clipPath id="clip0_2803_931">
<rect width="4" height="352" fill="white"/>
</clipPath>
</defs>
</svg>
