<svg width="478" height="4" viewBox="0 0 478 4" fill="none" xmlns="http://www.w3.org/2000/svg">
<g clip-path="url(#clip0_2817_10337)">
<path d="M478 0.106195L477.765 0L477.194 0.283186L478 0.106195Z" fill="#4D403C" fill-opacity="0.7"/>
<path d="M474.136 0.778758C474.237 0.849555 474.203 0.920351 474.304 0.991148L476.555 0.14159C475.547 -0.318587 474.774 1.09734 474.136 0.778758Z" fill="#4D403C" fill-opacity="0.7"/>
<path d="M473.464 0.672541C472.59 0.460152 472.221 0.884931 472.019 0.991125C472.322 0.672541 473.666 1.09732 473.464 0.672541Z" fill="#4D403C" fill-opacity="0.7"/>
<path d="M376.224 2.19471L376.023 2.51329C379.786 1.94692 384.02 2.51329 387.985 2.2655L387.716 2.3717C397.796 2.47789 407.07 1.98232 417.083 1.73453C416.915 1.73453 416.881 1.87612 416.713 1.91152C417.183 1.80532 417.721 1.59294 418.259 1.62833C418.393 1.69913 418.091 1.76993 417.923 1.80532C420.039 2.3363 424.139 1.48674 425.449 1.87612C426.054 1.80533 426.289 1.59294 425.987 1.45134C433.816 1.30975 442.182 1.20355 450.145 0.814174C450.515 0.884971 450.582 1.02656 450.481 1.20355C457.302 0.353997 464.426 0.70798 471.414 0.849573C471.683 0.637183 470.709 0.601785 471.414 0.389396C469.163 0.10621 467.315 0.920369 465.266 0.530989L465.534 0.318599C464.056 0.177006 465.232 0.849573 463.686 0.566387C463.082 0.389396 463.854 0.283201 463.552 0.283201C460.394 0.353997 457.134 0.177006 454.177 0.70798C453.438 0.247803 450.817 0.70798 449.641 0.247803C448.835 0.424794 448.029 0.389396 447.693 0.70798C436.705 0.460192 425.449 0.920369 414.193 0.884971C408.918 1.76993 402.601 0.70798 396.351 1.02656C396.317 1.02656 396.317 0.955767 396.351 0.920369C394.301 1.13276 391.345 1.23895 388.892 1.13276L386.842 1.52214C372.192 0.743378 357.207 1.27435 342.322 0.955767C325.421 0.743378 310.603 0.0708115 294.138 1.27435C294.138 1.20355 294.038 1.13276 294.441 1.09736C289.703 1.27435 285.369 0.955767 280.866 1.13276V1.02656C269.778 1.76993 257.749 0.920369 247.064 1.73453C234.027 1.66373 219.277 1.73453 205.5 1.94692V1.76993C194.48 2.15931 183.828 1.20355 172.807 1.48674C161.484 1.09736 149.522 2.51329 138.098 1.98232C131.042 1.09736 121.735 2.97347 115.115 2.08851C101.474 0.70798 88.2349 1.59294 74.5932 2.40709C62.0266 1.91152 49.46 3.18586 37.2631 2.15931C31.4838 2.79648 25.0997 1.38055 18.682 1.55754L18.9172 1.76993C16.5988 1.09736 13.7763 2.69028 12.3315 1.69913H12.5667C11.3571 1.13276 9.74429 2.83187 9.00508 2.2301L8.80347 2.47789C7.32505 2.54869 8.63547 2.19471 7.49306 2.08851C7.05625 2.08851 7.32505 2.54869 6.41784 2.40709C6.21624 1.38055 2.78899 2.61948 2.68819 1.48674C3.4946 1.48674 1.41138 1.02656 3.2258 0.814174C2.72179 0.70798 0.235359 0.743378 0.470562 1.23895C0.268959 1.76993 -0.705454 2.19471 0.806567 2.61948L1.10897 2.2301C1.61298 2.61948 1.47858 2.40709 1.68018 2.69028C3.6626 2.72568 3.89781 3.29205 5.30903 3.50444C5.30903 3.50444 5.30903 3.50444 5.30903 3.46904C6.28344 3.00886 7.59386 3.29205 8.36667 3.36285L8.66907 3.57524C9.13948 4.00002 10.9203 2.72568 10.3155 3.46904C14.3139 3.29205 18.8836 3.29205 23.3525 3.29205C23.9909 3.00886 26.7797 3.29205 25.8053 2.76108C26.9141 3.39825 30.2406 3.53984 31.4838 3.53984C31.4502 3.61063 31.383 3.68143 31.1814 3.64603C33.567 4.46019 34.0038 2.90267 36.255 3.89382C36.591 3.18586 40.3207 4.10621 41.5975 3.29205C41.8663 3.43364 41.9671 3.57524 41.8663 3.71683C45.8984 3.71683 50.3672 4.00002 53.7945 4.03541C56.7177 3.43364 60.8842 4.3186 63.3706 3.46904C65.4538 3.64603 68.8139 4.00002 71.7371 3.64603L71.4683 3.75223C74.7612 3.71683 78.8268 3.64603 81.078 3.11506C82.0525 3.92922 83.4637 3.75223 84.8749 4.03541C87.0589 3.64603 91.4942 3.75223 94.8206 3.43364C95.3246 3.82302 97.5759 3.25665 97.7439 3.82302C107.118 2.76108 118.677 3.15046 128.656 3.92922H128.522C129.832 3.68143 131.311 3.00886 132.621 2.61948C132.756 2.65488 132.722 2.76108 132.453 2.76108C134.268 2.65488 135.981 3.18586 137.796 3.07966C137.796 3.15046 137.695 3.20945 137.493 3.25665C139.207 3.00886 141.021 3.68143 143.037 3.25665L143.138 3.39825L144.415 3.18586C144.415 3.36285 144.348 3.64603 143.642 3.57524C159.3 3.75223 175.495 2.79648 191.59 2.93807L190.985 3.11506L194.11 2.79648C194.11 2.90267 193.942 2.93807 193.808 2.97347C197.772 3.29205 201.905 2.76108 205.769 2.83187C205.769 2.90267 205.165 3.07966 205.702 3.18586C208.558 2.69028 210.305 3.82302 211.75 2.79648C211.885 2.83187 211.985 3.07966 211.683 3.15046C219.646 2.79648 227.845 2.83187 235.875 3.00886C242.562 2.08851 250.055 2.93807 257.01 2.19471V2.3717C265.981 1.73453 275.524 2.40709 284.865 2.3009C288.729 2.3717 291.35 2.15931 295.247 2.15931L295.348 2.40709C301.9 1.52214 309.124 3.18586 315.945 2.2301L315.475 2.54869C316.55 2.05311 319.608 2.72568 319.204 1.87612L320.414 2.12391C325.051 1.02656 328.881 2.61948 334.56 1.91152L334.19 2.12391C335.702 1.98232 337.483 1.84072 338.592 2.01771C338.424 2.01771 338.491 2.08851 338.155 2.15931C342.893 2.93807 348.168 2.08851 353.174 2.12391L352.603 2.47789C355.023 2.05311 359.458 2.47789 362.616 2.2655L362.415 2.44249L364.027 2.19471V2.54869C368.194 2.54869 372.092 2.2655 376.124 2.2301L376.224 2.19471Z" fill="#4D403C" fill-opacity="0.7"/>
<path d="M5.84647 3.61059C5.64487 3.61059 5.51047 3.57519 5.34247 3.53979C5.37607 3.61059 5.67847 3.61059 5.84647 3.61059Z" fill="#4D403C" fill-opacity="0.7"/>
</g>
<defs>
<clipPath id="clip0_2817_10337">
<rect width="478" height="4" fill="white"/>
</clipPath>
</defs>
</svg>
